<svg width="35" height="35" viewBox="0 0 35 35" fill="none" xmlns="http://www.w3.org/2000/svg">
<path d="M20.5414 26.438C20.5089 26.2704 20.4387 26.1122 20.336 25.9757C20.2333 25.8392 20.1008 25.7279 19.9487 25.6502C19.7966 25.5725 19.6288 25.5305 19.458 25.5272C19.2872 25.524 19.1178 25.5597 18.9629 25.6316C17.7234 26.1239 18.2572 28.0594 19.6328 27.8029C19.7826 27.774 19.9253 27.7157 20.0523 27.6312C20.1794 27.5467 20.2884 27.4378 20.3729 27.3108C20.4576 27.1837 20.5161 27.0411 20.5449 26.8913C20.5738 26.7415 20.5726 26.5875 20.5414 26.438ZM19.4339 27.6499C18.0326 27.5393 18.2089 25.7057 19.3947 25.6864C20.6872 25.6651 20.7612 27.5591 19.4339 27.6499Z" fill="#46178F"/>
<path d="M18.7989 26.6699C18.7971 26.826 18.8563 26.9765 18.9639 27.0897C19.0713 27.2029 19.2187 27.2698 19.3746 27.2761C19.4551 27.2799 19.5356 27.2671 19.611 27.2386C19.6865 27.2099 19.7552 27.1663 19.8132 27.1102C19.8709 27.054 19.9166 26.9864 19.9474 26.9119C19.9782 26.8373 19.9932 26.7574 19.9918 26.6767C19.9945 25.885 18.8267 25.9077 18.7989 26.6699ZM19.1266 27.0277C19.04 26.9661 18.9782 26.8755 18.9523 26.7724C18.9264 26.6693 18.9382 26.5603 18.9854 26.4651C19.0327 26.3697 19.1123 26.2945 19.2101 26.2527C19.3078 26.2108 19.4173 26.2052 19.5188 26.2369C19.6033 26.2621 19.6784 26.312 19.7342 26.3802C19.7902 26.4485 19.8245 26.5318 19.8326 26.6196C19.8396 26.7047 19.8223 26.7901 19.7827 26.8657C19.7432 26.9413 19.683 27.0041 19.6091 27.0468C19.5353 27.0895 19.4507 27.1105 19.3655 27.1072C19.2801 27.1037 19.1977 27.0762 19.1273 27.0277H19.1266Z" fill="#46178F"/>
<path fill-rule="evenodd" clip-rule="evenodd" d="M17.2803 19.5904C18.1735 19.8146 19.0186 20.0071 19.7714 20.1599C20.0761 20.2218 20.3551 20.2738 20.6097 20.3212C22.8355 20.7362 23.1972 20.8035 22.633 24.0885C22.6297 24.1077 22.6248 24.1378 22.6187 24.1753C22.5895 24.3543 22.5322 24.7029 22.4867 24.8653C22.4677 24.9332 22.4631 24.9845 22.46 25.0214C22.4545 25.0816 22.4526 25.1031 22.3968 25.0947C22.1042 25.0503 21.9057 25.0259 21.7264 25.0041C21.3097 24.9531 20.995 24.9146 19.8418 24.6656C19.685 24.6317 19.531 24.5928 19.3817 24.555C18.6884 24.3797 18.0953 24.2297 17.7717 24.729C17.6308 24.9465 16.9742 27.1578 17.1233 27.5169C17.2504 27.8231 17.4075 28.0606 17.9808 28.2773C19.093 28.6603 20.2355 28.9491 21.3961 29.14C21.4054 29.1416 21.4126 29.1421 21.417 29.1458C21.4341 29.1607 21.4075 29.2265 21.2897 29.6106C21.2329 29.7959 21.1784 29.9742 21.1261 30.1456C20.0926 33.528 19.8729 34.2469 18.1222 33.8998C17.9493 33.8655 17.7801 33.8325 17.613 33.7996C16.0559 33.4944 14.6887 33.2264 12.2821 32.4421C9.39465 31.5009 6.95935 30.4032 5.51227 29.5912C3.74159 28.5975 3.88096 27.5452 4.28745 24.4761C4.34901 24.0113 4.41672 23.4999 4.48485 22.9357C4.48588 22.927 4.48431 22.9198 4.48719 22.9161C4.50049 22.8986 4.608 22.9534 5.49495 23.266C5.77922 23.3662 5.88698 23.3685 5.9556 23.4215C6.0689 23.509 6.07546 23.7348 6.59325 24.7673C6.73955 25.0592 7.5883 26.6435 7.93777 27.1287C8.18697 27.4747 9.6484 27.8112 10.0605 27.9017C10.1595 27.9234 10.161 27.9365 10.1646 27.9682C10.1649 27.9708 10.1652 27.9733 10.1655 27.9761C10.168 27.9974 10.17 28.0169 10.1719 28.0352C10.1897 28.2027 10.1989 28.29 10.4191 29.1062C10.4623 29.2664 10.5001 29.3483 10.5213 29.3943C10.5473 29.4505 10.5482 29.4526 10.5034 29.4779L10.4999 29.4799C10.3207 29.5819 10.2118 29.6437 10.1748 29.8657C10.1496 29.976 10.159 30.0915 10.2017 30.1963C10.2443 30.3011 10.3182 30.3902 10.4132 30.4516C10.5083 30.5131 10.6199 30.5437 10.733 30.5395C10.8461 30.5353 10.9552 30.4963 11.0454 30.428C11.1356 30.3596 11.2026 30.2653 11.2373 30.1575C11.272 30.0498 11.2727 29.934 11.2393 29.8258C11.206 29.7177 11.1402 29.6225 11.0508 29.553C10.9614 29.4835 10.8529 29.4433 10.7399 29.4377C10.7045 29.4356 10.6807 29.4345 10.6626 29.424C10.5862 29.3794 10.6085 29.1654 10.2821 27.9892C10.2629 27.9204 10.2751 27.8902 10.2659 27.8695C10.2414 27.8149 10.0661 27.8279 8.75852 27.3767C8.60421 27.3235 8.48736 27.2848 8.39802 27.2554C8.13211 27.1674 8.11003 27.1602 8.06902 27.0887C7.98292 26.9387 5.99912 23.4348 6.16555 23.4823C7.20764 23.7798 7.331 23.7948 7.37499 23.862C7.38407 23.8758 7.38978 23.8919 7.39947 23.9131C7.48382 24.0983 8.00427 25.0889 8.27447 25.5184C8.32977 25.6066 8.36931 25.6636 8.3958 25.7021C8.44897 25.779 8.44963 25.78 8.41972 25.8022C8.33795 25.8651 8.27621 25.9505 8.24198 26.0478C8.20773 26.1451 8.2025 26.2502 8.22687 26.3505C8.25127 26.4508 8.30424 26.5418 8.37935 26.6125C8.45446 26.6832 8.54849 26.7306 8.65002 26.749C9.3544 26.8505 9.50612 25.8556 8.87595 25.7114C8.6033 25.6489 8.55848 25.7475 8.52243 25.7443C8.47025 25.7398 8.43644 25.5224 7.75595 24.2955C7.60515 24.0234 7.53125 23.9175 7.55202 23.8935C7.57117 23.8713 7.67074 23.9189 7.86462 23.9702C8.73901 24.2013 8.82905 24.1859 8.86524 24.2232C8.87434 24.2325 8.88004 24.2451 8.89397 24.2659C9.15738 24.659 9.23778 24.7822 9.32334 24.9019C9.40893 25.0214 9.49968 25.1374 9.78402 25.5159C9.8109 25.5516 9.83617 25.5858 9.86025 25.6181C10.0331 25.8511 10.1445 26.0012 10.3456 26.0934C11.6658 26.7023 11.9355 26.6067 12.0593 26.7016C12.1159 26.745 12.142 26.8281 12.224 27.0363C12.527 27.8053 12.6148 27.9029 12.5956 27.9336C12.5905 27.9418 12.5778 27.9451 12.5595 27.9551C12.4414 28.0239 12.3483 28.1283 12.2938 28.2536C12.2392 28.3789 12.226 28.5184 12.2562 28.6516C12.2863 28.7849 12.3582 28.9052 12.4613 28.9948C12.5645 29.0844 12.6935 29.1388 12.8297 29.15C12.9659 29.1612 13.1021 29.1286 13.2185 29.0571C13.3349 28.9857 13.4255 28.8789 13.4771 28.7522C13.5286 28.6257 13.5385 28.486 13.5052 28.3536C13.4719 28.2211 13.3972 28.1026 13.2919 28.0155C13.2134 27.9486 13.1197 27.9021 13.019 27.88C12.9183 27.858 12.8137 27.8609 12.7144 27.8888C12.6906 27.8923 12.6848 27.8709 12.6638 27.7943C12.6293 27.6679 12.5537 27.3912 12.2891 26.8272C12.2694 26.7583 12.2322 26.6954 12.1813 26.6449C12.1304 26.5943 12.0673 26.5575 11.9981 26.5383C11.3787 26.3173 11.1365 26.2275 11.0097 26.1806C10.8994 26.1396 10.8765 26.1312 10.7684 26.0968C10.2847 25.944 10.2597 25.912 10.2103 25.8434C9.99019 25.5368 9.68965 25.1281 9.43817 24.786C9.25223 24.5333 9.09312 24.3168 9.01315 24.2052C8.93547 24.0967 8.9306 24.0953 8.47809 23.974C8.06516 23.8632 7.27944 23.6527 5.72542 23.1694C5.72105 23.1694 4.77745 22.8736 4.51792 22.7592C4.58644 22.1789 4.60297 22.1869 4.6462 22.2077C4.64989 22.2095 4.65379 22.2114 4.65792 22.213C6.52078 22.9317 8.19826 23.3346 9.02237 23.5325C9.28025 23.5944 9.45457 23.6363 9.52485 23.6615C9.58977 23.6847 9.83089 24.0155 10.1039 24.39C10.3261 24.695 10.5695 25.0287 10.7561 25.2494C10.8557 25.3668 10.905 25.385 11.6513 25.6593C11.7109 25.6811 11.775 25.7048 11.8439 25.7301C13.3713 26.2924 13.5479 26.3222 13.5511 26.365C13.5518 26.3738 13.5452 26.3831 13.5414 26.3976C13.5154 26.5141 13.5209 26.6354 13.5575 26.749C13.594 26.8627 13.6603 26.9644 13.7493 27.0439C13.8384 27.1233 13.9471 27.1776 14.0642 27.201C14.1812 27.2243 14.3024 27.2161 14.4152 27.1769C14.5279 27.1377 14.6282 27.0691 14.7056 26.9782C14.783 26.8874 14.8346 26.7775 14.8553 26.6599C14.876 26.5423 14.8649 26.4214 14.8231 26.3096C14.7814 26.1977 14.7105 26.099 14.6179 26.0238C14.4934 25.924 14.3378 25.8712 14.1783 25.8745C14.0189 25.8777 13.8656 25.9366 13.7451 26.0413C13.6182 26.1486 13.6126 26.2163 13.5817 26.231C13.5119 26.2644 13.313 26.028 11.2929 25.3709C11.1364 25.3199 11.0644 25.318 11.0033 25.2912C10.8684 25.2321 10.7866 25.0517 9.96445 23.9534C9.83547 23.7813 9.77442 23.686 9.69059 23.6189C9.51853 23.4814 9.25057 23.4639 8.10227 23.1508C8.0482 23.1361 4.80177 22.1533 4.63832 22.0914C4.63981 22.0774 4.64112 22.0634 4.64242 22.0494C4.64557 22.0156 4.64874 21.9816 4.65442 21.9482C4.70783 21.6353 4.7141 21.5692 4.7369 21.5629C4.74353 21.5609 4.75157 21.5643 4.76257 21.5679C4.87426 21.6056 5.01529 21.6547 5.16934 21.7086C5.5766 21.8511 6.07493 22.0252 6.36277 22.0985C6.69706 22.1836 6.93823 22.2508 7.11834 22.301C7.61101 22.4384 7.6471 22.4484 7.88352 22.3486C8.88886 21.9244 8.96882 21.7219 9.08728 21.696C9.19956 21.6715 9.34645 21.8059 10.3487 22.0606C10.5727 22.132 10.8032 22.1808 11.0368 22.2063C11.0459 22.2069 11.0514 22.206 11.0561 22.2074C11.0895 22.217 11.0895 22.3404 12.0508 23.8673C12.1169 23.9716 12.3432 24.0388 12.5834 24.11C12.6613 24.1333 12.7407 24.1569 12.8166 24.1823C13.7995 24.5097 13.9663 24.4759 13.9979 24.5265C14.0053 24.5384 14.0053 24.5547 14.0066 24.5811C14.0093 24.7276 14.0629 24.8686 14.1581 24.9801C14.2534 25.0914 14.3844 25.1661 14.5288 25.1915C14.6731 25.2169 14.8218 25.1913 14.9493 25.119C15.0768 25.0468 15.1753 24.9325 15.2277 24.7956C15.5107 24.0272 14.4003 23.5706 14.0572 24.331C14.0424 24.3639 14.0387 24.3868 14.0253 24.3975C13.9744 24.4385 13.7825 24.3034 12.3054 23.8662C12.1537 23.8214 12.0732 23.6793 11.9675 23.4891C11.5975 22.8239 11.3953 22.508 11.2955 22.3519C11.2035 22.2083 11.1983 22.2 11.2286 22.1796C11.2816 22.1437 11.3735 22.0936 11.5181 22.0149C11.636 21.9508 11.7891 21.8675 11.9848 21.7571C12.1954 21.6381 12.3386 21.5529 12.4392 21.4929C12.6642 21.3588 12.6767 21.3513 12.756 21.3768C13.9444 21.7597 14.482 21.8758 14.7223 21.9276C14.9057 21.9671 14.9161 21.9694 14.9105 22.0243C14.8982 22.1446 14.9243 22.2655 14.985 22.3698C15.0457 22.4743 15.1379 22.5567 15.2484 22.6055C15.3646 22.6563 15.4944 22.6666 15.6171 22.6346C15.7398 22.6027 15.8482 22.5303 15.9248 22.4293C16.0014 22.3283 16.0418 22.2044 16.0395 22.0777C16.0372 21.951 15.9924 21.8287 15.9122 21.7305C15.8255 21.6171 15.6979 21.542 15.5567 21.5216C15.4155 21.5009 15.2718 21.5363 15.1563 21.6203C15.0169 21.7319 14.9779 21.8038 14.9571 21.8425C14.9388 21.8765 14.9345 21.8843 14.8877 21.8703C14.8322 21.8544 14.6435 21.7946 14.3996 21.7174C13.841 21.5405 12.9927 21.2717 12.7903 21.227C12.5665 21.1775 11.3324 21.936 11.159 22.0684C11.09 22.1211 11.0835 22.1192 10.5781 21.9738C10.4622 21.9405 10.3201 21.8996 10.145 21.85C10.1226 21.8437 9.30015 21.6099 9.2403 21.5847C9.11999 21.5343 9.06343 21.5655 8.76577 21.7296C8.68851 21.7722 8.595 21.8238 8.47992 21.8852C8.05292 22.1129 7.91492 22.1827 7.84564 22.2179C7.80187 22.2401 7.78551 22.2483 7.74107 22.2737C7.73225 22.2788 7.72536 22.2835 7.71801 22.2875C7.65447 22.3217 7.55624 22.291 5.89202 21.7876C4.9447 21.5011 4.75715 21.4783 4.74523 21.4197C4.73998 21.394 4.76887 21.3613 4.78182 21.2958C4.80769 21.1656 4.79964 21.0841 4.83618 21.0492C4.93015 20.9595 5.31907 21.1787 7.3384 21.6761C7.35679 21.6806 7.37065 21.6841 7.38469 21.685C7.45831 21.6897 7.53669 21.6189 8.30195 21.205C8.93792 20.8609 8.94119 20.8623 8.98258 20.879C8.98496 20.8798 8.98746 20.8809 8.99022 20.8819C9.48962 21.037 9.99733 21.1639 10.511 21.262C10.5637 21.2734 10.6081 21.2846 10.6468 21.2942C10.7918 21.3306 10.857 21.3469 10.9824 21.282C12.5113 20.4894 12.6574 20.2593 12.7241 20.2805C12.7384 20.285 12.7491 20.3011 12.7692 20.326C12.8382 20.414 12.9332 20.4779 13.0407 20.5085C13.1482 20.5391 13.2627 20.5349 13.3677 20.4966C13.4727 20.4583 13.5629 20.3877 13.6254 20.2952C13.6879 20.2024 13.7195 20.0923 13.7156 19.9807C13.7118 19.8689 13.6727 19.7612 13.604 19.673C13.5353 19.5848 13.4404 19.5208 13.333 19.4898C13.2256 19.4587 13.1111 19.4625 13.006 19.5005C12.9009 19.5385 12.8104 19.6086 12.7476 19.7012C12.6372 19.8486 12.6548 19.987 12.6667 20.0811C12.674 20.1391 12.6793 20.1802 12.6509 20.1958C11.1122 21.0461 10.9962 21.1894 10.873 21.1959C10.8496 21.1971 10.8259 21.1933 10.7922 21.1885C10.5738 21.1577 9.61706 20.9056 9.43654 20.858C9.42125 20.8539 9.41154 20.8515 9.4083 20.8506C8.91839 20.723 8.89614 20.7346 8.77762 20.796C8.77006 20.8 8.76211 20.8041 8.75362 20.8084C7.79861 21.2925 7.60534 21.502 7.39188 21.5251C7.12303 21.5541 6.82215 21.2876 4.92672 20.9014C4.90324 20.8965 4.88619 20.897 4.87655 20.8889C4.85151 20.8676 4.87657 20.7873 4.96907 20.3998C5.31015 18.8626 5.78811 17.3589 6.39725 15.9069C6.64995 15.3329 6.8771 15.132 8.32225 15.1414C9.51484 15.1499 10.9936 15.338 12.5312 15.6172C12.5293 15.5583 12.5286 15.4994 12.5292 15.4404C11.4924 15.2481 10.5394 15.1101 9.78945 15.0649C9.68973 15.0589 9.54865 15.052 9.43635 15.0464C9.34273 15.0418 9.26912 15.0382 9.25622 15.0369C8.96159 15.0062 8.66528 14.9945 8.36915 15.0019C8.33721 15.0019 8.30496 15.0019 8.27244 15.0018C7.57083 15.0005 6.74816 14.9989 6.42052 15.606C5.33395 17.6185 4.52002 21.2557 4.21027 23.6982C4.18112 23.9282 4.15272 24.148 4.1255 24.3587C3.55563 28.7695 3.51418 29.0905 8.32365 31.1688C10.4106 32.0664 12.5637 32.8019 14.7636 33.3689C15.916 33.679 18.0409 34.0689 18.097 34.0701C18.1189 34.0708 18.1586 34.0759 18.2124 34.0827C18.5375 34.1247 19.3716 34.2325 19.7945 33.7994C19.8381 33.7548 19.9669 33.7684 20.1386 33.7866C20.5115 33.826 21.0867 33.8869 21.4318 33.4191C21.8494 32.8532 22.4173 30.9572 22.6194 30.2763C22.696 30.0178 22.744 29.8302 22.779 29.6935C22.8616 29.3703 22.8716 29.3315 23.0165 29.311C23.3876 29.2585 23.6176 28.8885 23.7383 28.5321C24.0708 27.55 24.4422 26.2441 24.4315 25.2071C24.4284 24.8978 24.2688 24.7671 24.1573 24.6759C24.0894 24.6205 24.0393 24.5795 24.0535 24.5218C24.1849 23.9924 24.4376 22.0434 24.5174 21.3312C24.7836 18.9806 23.8535 18.6484 22.5312 18.1761C22.4425 18.1444 22.352 18.112 22.2599 18.0784C22.2599 18.0784 21.1305 17.6784 20.347 17.4134C20.3204 17.465 20.2929 17.516 20.2644 17.566C21.1368 17.8532 22.391 18.2709 22.6388 18.3607C23.2501 18.5814 23.8596 18.8518 24.1321 19.283C24.3169 19.5752 24.3405 19.7716 24.3769 20.0738C24.3806 20.1048 24.3844 20.1368 24.3886 20.17C24.4971 21.0396 23.9308 24.1749 23.738 25.0723H23.7369C23.7191 25.1553 23.7152 25.2011 23.6906 25.2225C23.6522 25.2557 23.5637 25.2309 23.2959 25.196C23.2956 25.196 23.3005 25.1731 23.3096 25.1304C23.4069 24.678 23.9837 21.996 23.7987 20.4504C23.7845 20.2404 23.7285 20.0355 23.6337 19.8477C23.5388 19.6599 23.4072 19.4931 23.2466 19.3572C22.7195 18.9186 22.0345 18.6867 21.3865 18.4676C21.3081 18.441 21.2301 18.4148 21.1531 18.3882C20.9434 18.3161 20.5162 18.1845 19.9643 18.0216C19.7069 18.3611 19.4013 18.654 19.0599 18.8934C20.4048 19.2702 21.4215 19.5535 21.603 19.5999C21.8083 19.6524 21.8571 19.78 21.4856 19.7187C21.1361 19.661 20.378 19.47 18.8315 19.0423C18.3627 19.326 17.8363 19.514 17.2803 19.5904ZM12.5848 16.1608C11.3869 15.9307 10.1826 15.7336 8.9638 15.671C6.78522 15.5588 6.92032 15.881 8.10035 16.4655C9.70622 17.2599 11.8753 18.0389 14.0608 18.7002C13.8955 18.566 13.7404 18.4188 13.597 18.2601C13.362 17.9997 13.1615 17.7113 12.9999 17.4019C11.9999 17.111 10.8939 16.7673 10.6835 16.6163C10.6759 16.611 10.6703 16.6032 10.6679 16.5943C10.6655 16.5853 10.6663 16.5758 10.6703 16.5674C10.6742 16.559 10.6811 16.5522 10.6895 16.5484C10.6979 16.5445 10.7075 16.5438 10.7164 16.5463C10.7164 16.5463 11.6082 16.7978 12.8819 17.1566C12.8398 17.0613 12.8013 16.9643 12.7664 16.8658C12.6851 16.6361 12.6244 16.4001 12.5848 16.1608ZM21.73 32.3773C21.9 31.8721 22.6143 29.6767 22.6449 29.3726H22.646C22.6497 29.3369 22.629 29.3339 22.4481 29.3078C22.4183 29.3035 22.3842 29.2986 22.3452 29.2928C22.2956 29.2851 22.2739 29.2744 22.2608 29.2811C22.2472 29.2879 22.243 29.3133 22.2269 29.3803C22.0879 29.9552 21.2969 32.7347 20.8881 33.0245C20.8018 33.0861 20.7033 33.1288 20.5994 33.1496C20.4952 33.1704 20.388 33.169 20.2845 33.1454C20.232 33.1332 20.214 33.175 20.1773 33.2602C20.1437 33.3381 20.0945 33.4522 19.9888 33.5945C19.9545 33.6405 20.0126 33.6431 20.2898 33.6559C20.3656 33.6592 20.4576 33.6634 20.5687 33.6695C20.5964 33.6669 20.6233 33.6648 20.6496 33.6625C21.078 33.627 21.3163 33.6072 21.73 32.3773ZM24.2656 25.7438C24.2709 25.6778 24.2758 25.6143 24.2908 25.5208H24.2919C24.3239 25.3843 24.3172 25.2415 24.2724 25.1087C24.2276 24.9759 24.1468 24.8581 24.0386 24.7689C24.0183 24.7482 24.0108 24.7626 24.0049 24.7815C23.9994 24.7942 23.9947 24.8074 23.9909 24.8208C23.9352 25.1015 23.9132 25.1771 23.935 25.1934C23.9447 25.2008 23.963 25.1964 23.9909 25.1929C24.1349 25.1754 24.1386 25.3133 23.9734 25.3504C23.7569 25.3989 23.2448 25.3528 22.3698 25.2569C21.0187 25.1087 20.0856 24.8924 19.4265 24.7396C18.2428 24.4652 17.9434 24.3959 17.6949 25.2944C17.6875 25.3208 17.6786 25.3528 17.6685 25.3896C17.5465 25.8281 17.2379 26.9369 17.2429 27.2647C17.2198 27.6758 17.5218 27.926 17.9079 28.0723C19.6131 28.7186 22.4402 29.1899 22.8997 29.1416C23.4527 29.0826 23.606 28.5084 23.7443 27.9899C23.7567 27.9434 23.769 27.8975 23.7814 27.8524C24.2278 26.2303 24.2479 25.9718 24.2656 25.7438ZM10.8105 29.6055C10.7541 29.5931 10.6956 29.5927 10.6391 29.6048L10.6399 29.605C10.5859 29.6115 10.5337 29.6286 10.4863 29.6556C10.4389 29.6823 10.3974 29.7184 10.3641 29.7614C10.3308 29.8045 10.3064 29.8538 10.2923 29.9065C10.2782 29.959 10.2747 30.014 10.2821 30.0679C10.4415 30.6226 11.1459 30.4929 11.127 29.9711C11.1227 29.9135 11.1062 29.8573 11.0785 29.8066C11.0508 29.7558 11.0125 29.7117 10.9663 29.6771C10.9201 29.6423 10.867 29.6179 10.8105 29.6055ZM8.72912 26.6394C9.3306 26.627 9.24502 25.7744 8.73752 25.822C8.62979 25.8238 8.52696 25.8673 8.45086 25.9436C8.37477 26.0199 8.3314 26.1228 8.32995 26.2306C8.32997 26.3374 8.37172 26.4399 8.44631 26.5162C8.52089 26.5927 8.62239 26.6368 8.72912 26.6394ZM12.8731 28.0141C12.2373 28.0081 12.1738 29.0011 12.8943 29.0221C13.0234 29.0166 13.1456 28.9622 13.236 28.8698C13.3264 28.7774 13.3781 28.654 13.3806 28.5249C13.3823 28.4577 13.3704 28.3907 13.3456 28.3282C13.3207 28.2657 13.2834 28.2088 13.236 28.1611C13.1886 28.1133 13.132 28.0757 13.0696 28.0505C13.0072 28.0251 12.9404 28.0128 12.8731 28.0141ZM13.8165 26.168C13.7205 26.2649 13.6666 26.3958 13.6664 26.5322C13.6704 26.6669 13.7256 26.7948 13.8209 26.8902C13.9162 26.9854 14.0443 27.0407 14.179 27.0446C14.2483 27.046 14.3172 27.0334 14.3816 27.0075C14.4459 26.9816 14.5044 26.9431 14.5534 26.8939C14.6024 26.8449 14.641 26.7864 14.6669 26.7222C14.6928 26.6578 14.7054 26.5889 14.704 26.5196C14.7004 26.3832 14.6434 26.2537 14.5451 26.1592C14.4469 26.0646 14.3153 26.0126 14.179 26.0142C14.0426 26.0159 13.9124 26.071 13.8165 26.168ZM14.6334 25.0389C15.212 25.0676 15.332 24.1462 14.6448 24.0799C14.5819 24.0792 14.5193 24.0907 14.4609 24.1142C14.4024 24.1376 14.3492 24.1723 14.3041 24.2164C14.2591 24.2603 14.2231 24.3128 14.1983 24.3706C14.1735 24.4285 14.1604 24.4908 14.1596 24.5536C14.1589 24.6166 14.1706 24.6791 14.194 24.7377C14.2174 24.7962 14.2521 24.8494 14.2961 24.8943C14.3401 24.9395 14.3925 24.9754 14.4504 25.0002C14.5083 25.0251 14.5705 25.0382 14.6334 25.0389ZM15.4317 21.6546C15.3561 21.663 15.2844 21.6925 15.2249 21.7398C15.1674 21.7818 15.1216 21.8378 15.0922 21.9027C15.0628 21.9675 15.0506 22.0389 15.057 22.1097C15.0633 22.1808 15.0879 22.2489 15.1284 22.3075C15.1689 22.3659 15.2238 22.4132 15.2879 22.4442C15.352 22.4751 15.423 22.4891 15.4941 22.4846C15.5652 22.48 15.6339 22.4571 15.6934 22.4181C15.753 22.3791 15.8015 22.3253 15.8341 22.262C15.8667 22.1986 15.8824 22.1281 15.8796 22.0569C15.8799 21.9809 15.8586 21.9064 15.8183 21.8418C15.7781 21.7774 15.7204 21.7256 15.652 21.6925C15.5836 21.6593 15.5072 21.6462 15.4317 21.6546ZM12.9044 19.7157C12.8299 19.7891 12.7862 19.8881 12.7823 19.9926H12.7826C12.7856 20.0978 12.8296 20.1975 12.9052 20.2705C12.9807 20.3436 13.0819 20.3842 13.1871 20.3837C13.3717 20.415 13.5796 20.1973 13.5757 19.9926C13.5695 19.8904 13.5263 19.7938 13.454 19.7212C13.3817 19.6485 13.2855 19.6048 13.1832 19.598C13.0787 19.6002 12.9789 19.6422 12.9044 19.7157Z" fill="#46178F"/>
<path d="M16.6687 11.2014C21.3937 11.3753 22.4806 17.284 18.671 19.275C18.0764 19.5879 17.4164 19.7562 16.7446 19.7666C16.0728 19.7767 15.408 19.6287 14.804 19.3341C14.2001 19.0394 13.6741 18.6068 13.2686 18.071C12.8631 17.5353 12.5896 16.9115 12.4701 16.2503C11.9804 13.5703 14.1683 11.1093 16.6687 11.2014ZM16.4736 19.6222C18.6768 19.7478 20.6385 18.1398 20.8246 15.691C20.8739 13.241 19.0887 11.4814 16.9212 11.3475C16.376 11.3147 15.8296 11.39 15.3136 11.5692C14.7976 11.7483 14.3221 12.0277 13.9144 12.3913C13.5068 12.7549 13.1751 13.1955 12.9383 13.6877C12.7016 14.18 12.5646 14.7142 12.535 15.2597C12.5055 15.8051 12.5842 16.351 12.7664 16.8659C12.9486 17.3808 13.2309 17.8547 13.5969 18.2602C13.963 18.6655 14.4056 18.9946 14.8992 19.2284C15.3929 19.4621 15.928 19.5959 16.4736 19.6222Z" fill="#46178F"/>
<path d="M14.8177 18.4469C14.0447 17.9724 13.4879 17.2145 13.2664 16.3349C13.045 15.4554 13.1764 14.5241 13.6326 13.7402C15.2669 10.9311 19.4732 11.7102 20.0256 14.855C20.5625 17.9133 17.2776 19.9613 14.8177 18.4469ZM13.3564 16.2198C13.4872 16.773 13.7556 17.2841 14.1366 17.7059C14.5177 18.1277 14.9991 18.4463 15.5362 18.6324C18.6622 19.6929 21.2471 16.1153 19.2896 13.4744C17.2314 10.698 12.5726 12.5908 13.3564 16.2198Z" fill="#46178F"/>
<path d="M15.5924 17.1788C15.0057 17.1475 15.0625 17.1881 15.1341 16.4185C15.1968 15.7424 15.3266 15.8189 14.8688 15.9258C14.6098 15.9864 14.5587 16.0104 14.565 15.8607C14.568 15.5885 14.6043 15.3177 14.6732 15.0543C14.6769 15.0321 14.6868 15.0114 14.7017 14.9945C14.7167 14.9777 14.7361 14.9653 14.7577 14.959C15.3177 14.7435 15.383 14.8347 15.404 14.7385C15.7926 12.957 15.8415 12.9185 16.0376 12.9088C16.3655 12.8932 16.6941 12.897 17.0215 12.9202C17.1363 12.9283 17.1575 12.9984 17.1529 13.0212C16.9807 13.8719 16.8904 14.2226 16.8904 14.2924C16.9825 14.2873 16.8059 14.3157 17.5617 14.1326C17.6667 14.1072 17.6753 14.2147 17.6567 14.3223C17.4856 15.3109 17.6847 15.0984 16.7742 15.4122C16.6956 15.4393 16.6393 15.4308 16.6242 15.5389C16.5987 15.7239 16.5521 15.841 16.5399 15.9682C16.5255 16.1155 16.4604 15.9773 18.4635 16.0307C18.7171 16.0373 18.6688 16.1239 18.5904 16.4645C18.414 17.2292 18.4665 17.1402 18.0466 17.1645C17.2295 17.2161 16.4101 17.2209 15.5924 17.1788ZM18.3377 16.9984C18.3706 16.8817 18.5258 16.3334 18.5494 16.2144C18.5692 16.1145 18.6313 16.1385 17.9534 16.1094C17.8933 16.1068 17.5055 16.1308 16.8551 16.1364C16.2611 16.1416 16.4291 16.2209 16.5234 15.4871C16.5394 15.3625 16.6003 15.3504 16.9434 15.2337C17.5572 15.0249 17.3634 15.1492 17.445 14.8806C17.5062 14.6795 17.5138 14.4695 17.5547 14.2651C17.575 14.1641 17.3552 14.3001 16.8628 14.4417C16.6853 14.4926 16.7334 14.4198 16.9937 13.3243C17.0637 13.0285 17.0782 13.0294 17.0052 13.0243C16.9574 13.021 16.4666 13.0158 16.4188 13.0154C15.8675 13.0119 15.9573 12.9979 15.8612 13.3348C15.3455 15.1469 15.7632 14.763 14.9862 14.9962C14.7992 15.0526 14.7432 14.8956 14.6824 15.7228C14.6791 15.7697 14.6436 15.8133 14.666 15.8628C15.2626 15.7298 15.3376 15.6703 15.3254 15.8165C15.3079 16.0226 15.2529 16.4015 15.2249 16.604C15.163 17.0509 15.1574 17.031 15.285 17.0378C16.6281 17.1083 18.3097 17.0997 18.338 16.9984H18.3377Z" fill="#46178F"/>
<path d="M10.5349 4.01746C16.092 4.35801 16.1452 11.5544 11.4536 12.5225C10.8185 12.6622 10.1598 12.6552 9.52775 12.5022C8.89567 12.3492 8.30679 12.0541 7.80587 11.6393C7.30497 11.2245 6.9052 10.701 6.63696 10.1086C6.36874 9.51613 6.23908 8.87033 6.25789 8.22026C6.27137 7.30116 6.64622 6.19026 7.32539 5.49026C8.33899 4.44271 9.08239 4.11686 10.5349 4.01746ZM10.5438 12.4843C11.105 12.4905 11.6616 12.3817 12.1792 12.1646C12.6968 11.9476 13.1645 11.6269 13.5535 11.2223C13.9425 10.8177 14.2446 10.3377 14.4411 9.812C14.6376 9.28627 14.7244 8.72587 14.6962 8.16531C14.6643 7.35075 14.3936 6.56357 13.9178 5.90168C13.442 5.2398 12.782 4.73244 12.02 4.44276C11.258 4.15306 10.4277 4.09384 9.63235 4.27243C8.83697 4.45104 8.11169 4.85956 7.54672 5.44721C6.98175 6.03484 6.60205 6.77563 6.45486 7.57741C6.30768 8.37919 6.3995 9.20656 6.71893 9.95654C7.03834 10.7065 7.57125 11.346 8.25134 11.7955C8.9314 12.2449 9.72863 12.4845 10.5438 12.4843Z" fill="#46178F"/>
<path d="M13.5121 6.57584C13.955 7.36354 14.0776 8.29146 13.8545 9.16712C13.6314 10.0428 13.0798 10.799 12.3141 11.2788C10.0123 12.7082 7.09682 10.9851 7.02735 8.61739C6.91237 4.67027 11.7382 3.49882 13.5121 6.57584ZM11.1841 11.5838C12.9525 11.1404 13.8476 9.72882 13.8548 8.27789C13.8653 6.12539 11.6391 4.45204 9.59915 5.08169C8.72187 5.35259 7.91687 5.85082 7.47062 6.82802C6.16092 9.69504 8.8477 12.1695 11.1841 11.5838Z" fill="#46178F"/>
<path d="M11.1769 10.4592C10.9289 10.4338 10.6856 10.374 10.4541 10.2814C10.4051 10.2575 10.4314 10.2725 10.2886 10.6092C10.2186 10.7735 10.1524 10.9737 10.014 10.9176C9.37683 10.6589 9.42425 10.7805 9.7263 10.0165C9.7403 9.98148 9.6843 9.97378 9.6563 9.96118C9.61973 9.94368 9.62708 9.93738 9.48725 10.2477C9.3385 10.5779 9.3525 10.6225 9.25083 10.6015C9.19168 10.5894 8.84693 10.4326 8.79285 10.4055C8.70833 10.3633 8.70535 10.3416 8.72863 10.2585C8.78279 10.0755 8.85349 9.89776 8.93985 9.72755C8.9696 9.66788 8.99235 9.70445 8.28255 9.40433C8.01393 9.29075 8.07098 9.23528 8.32893 8.68683C8.383 8.57185 8.41345 8.60213 8.83135 8.7654C9.18135 8.90208 8.8548 8.94793 9.3028 7.96268C9.34883 7.86135 9.6199 7.2324 9.8103 6.80908C9.8292 6.7669 9.86403 6.79578 9.37105 6.56618C9.27428 6.52103 9.2629 6.49023 9.29038 6.37368C9.34043 6.19665 9.41463 6.02733 9.51088 5.87055C9.5555 5.78988 9.57055 5.76398 9.99248 5.92463C10.4242 6.08913 10.3966 6.1418 10.4275 6.05605C10.668 5.39 10.6328 5.44618 10.9898 5.5825C11.0921 5.61559 11.1911 5.65801 11.2856 5.7092C11.3395 5.75173 11.3269 5.7218 11.0785 6.38505C11.0628 6.4274 11.1965 6.4694 11.2052 6.42355C11.2422 6.28611 11.2927 6.15269 11.3561 6.02525C11.4425 5.81368 11.483 5.796 11.5631 5.80895C11.7366 5.84623 11.9005 5.91883 12.0447 6.02228C12.0951 6.07863 12.0659 6.18118 12.0358 6.26518C11.8618 6.75115 11.8575 6.69655 11.9222 6.72228C13.1224 7.19933 12.7865 8.30848 12.1705 8.54753C12.1116 8.57045 12.0465 8.5708 12.083 8.6114C12.3819 8.93778 12.5013 9.2239 12.3272 9.66438C12.0456 10.3775 11.5369 10.427 11.1769 10.4592ZM11.9677 10.0217C12.4227 9.5592 12.3574 8.8963 11.9537 8.6226C11.876 8.5701 11.9047 8.51603 11.9457 8.50518C12.0517 8.49342 12.1535 8.45665 12.2425 8.3979C12.3316 8.33915 12.4055 8.26011 12.4581 8.16725C12.6495 7.83248 12.6749 7.39375 12.3965 7.11533C12.2226 6.97146 12.0251 6.85893 11.8127 6.78283C11.7329 6.74573 11.7498 6.70565 11.7819 6.62743C12.0529 5.9654 12.1018 6.11993 11.5673 5.91343C11.5103 5.89155 11.5286 5.89155 11.3374 6.33343C11.2486 6.5387 11.2441 6.5898 11.1825 6.55655C10.9167 6.41358 10.8895 6.59155 11.176 5.82155C11.2021 5.75155 11.2383 5.77903 10.7926 5.62205C10.7226 5.59755 10.7504 5.558 10.5623 6.00233C10.4863 6.18188 10.49 6.26133 10.3624 6.20638C9.5121 5.8401 9.60013 5.86005 9.5709 5.93303C9.34043 6.50825 9.30123 6.4323 9.4813 6.50878C10 6.72928 9.98075 6.68378 9.9013 6.85878C9.05798 8.6975 9.15353 8.9866 9.0088 8.93253C8.26365 8.65533 8.4362 8.67335 8.35903 8.85028C8.30233 8.98048 8.25508 9.11488 8.20275 9.24683C8.18858 9.28288 8.1268 9.24245 8.9766 9.59875C9.09455 9.6481 9.055 9.67295 8.94458 9.94875C8.79215 10.3289 8.7862 10.3121 8.86478 10.3446C9.46485 10.5936 9.16018 10.5992 9.5744 9.86178C9.5919 9.82958 9.6094 9.8224 9.80715 9.91428C9.85738 9.93755 9.83708 9.99845 9.80715 10.0732C9.55655 10.6986 9.56635 10.6314 9.6381 10.6615C10.0714 10.8434 10.055 10.8456 10.0856 10.7777C10.3717 10.1432 10.2956 10.275 10.3369 10.1939C10.4268 10.01 11.2632 10.7368 11.9677 10.0221V10.0217Z" fill="#46178F"/>
<path d="M11.4274 9.14042C11.4402 9.38262 11.138 9.65265 10.814 9.58947C10.4872 9.52499 10.1695 9.42053 9.86816 9.2785C9.79169 9.24262 9.77804 9.21375 9.80184 9.13027C9.85042 8.92435 9.92021 8.72401 10.0101 8.53247C10.099 8.36342 10.1462 8.17162 10.2533 8.20085C10.4501 8.25529 10.6419 8.32594 10.827 8.41207C11.1845 8.57675 11.4064 8.74195 11.4274 9.14042ZM10.8826 9.5025C10.9528 9.49634 11.0217 9.4794 11.0867 9.45227C11.1374 9.43798 11.1839 9.41139 11.222 9.37489C11.26 9.3384 11.2885 9.29309 11.3049 9.24297C11.4827 8.70905 10.8312 8.51865 10.3074 8.31792C10.2435 8.29342 10.2316 8.33682 10.2008 8.40245C10.0884 8.64447 9.9897 8.89268 9.90526 9.14585C9.89774 9.16825 9.90176 9.17367 9.92084 9.18085C10.5454 9.4325 10.3921 9.4073 10.8826 9.5025Z" fill="#46178F"/>
<path d="M11.2931 8.00062C11.1356 8.02057 10.8285 7.89055 10.5492 7.78555C10.3926 7.72675 10.4092 7.67145 10.4246 7.61667C10.4908 7.37988 10.5843 7.15159 10.7034 6.93645C10.7384 6.871 10.7613 6.86382 10.8381 6.88395C10.9806 6.92843 11.1176 6.98884 11.2466 7.06402C11.5175 7.19562 11.6856 7.30902 11.7278 7.4779C11.7495 7.54249 11.7544 7.61156 11.7419 7.67853C11.7294 7.74552 11.6999 7.80819 11.6564 7.86059C11.6128 7.91298 11.5565 7.95335 11.493 7.97787C11.4294 8.00237 11.3606 8.01021 11.2931 8.00062ZM11.6548 7.62805C11.6598 7.57212 11.6508 7.51584 11.6287 7.46421C11.6066 7.4126 11.5721 7.36728 11.5281 7.3323C11.4162 7.24424 11.2919 7.17308 11.1592 7.12107C10.779 6.97145 10.8049 6.93995 10.7714 7.02657C10.5264 7.66427 10.4872 7.6452 10.5602 7.67582C10.8346 7.79027 11.4105 8.0547 11.5703 7.8237C11.617 7.76813 11.6464 7.70013 11.6548 7.62805Z" fill="#46178F"/>
<path d="M24.1141 4.95611C24.115 5.58196 23.972 6.19964 23.696 6.76141C23.42 7.32317 23.0188 7.81398 22.523 8.1959C22.027 8.57784 21.4501 8.84063 20.8365 8.96403C20.223 9.08742 19.5893 9.06808 18.9843 8.90752C18.3793 8.74694 17.8195 8.44944 17.3479 8.038C16.8763 7.62655 16.5056 7.11219 16.2645 6.53466C16.0233 5.95711 15.9182 5.33187 15.9572 4.70722C15.9962 4.08258 16.1784 3.47527 16.4895 2.93223C18.5227 -0.669092 24.1102 0.742808 24.1141 4.95611ZM20.0383 1.02071C17.4112 0.990784 15.4033 3.64273 16.2876 6.22643C17.22 8.95101 20.6881 9.78838 22.6975 7.87388C25.432 5.26866 23.4764 1.06008 20.0383 1.02071Z" fill="#46178F"/>
<path d="M19.9983 1.66923C20.6516 1.66981 21.29 1.86368 21.8333 2.22642C22.3765 2.58916 22.8004 3.10455 23.0513 3.70769C23.3023 4.31081 23.3691 4.97472 23.2435 5.61578C23.1178 6.25684 22.8053 6.84638 22.3454 7.31017C21.8853 7.77395 21.2982 8.09124 20.6582 8.22207C20.0182 8.3529 19.3538 8.29143 18.7486 8.04538C18.1435 7.79933 17.6248 7.37971 17.2576 6.83938C16.8905 6.29905 16.6914 5.66216 16.6856 5.00893C16.6762 4.57007 16.7552 4.13379 16.9181 3.72613C17.0809 3.31847 17.3241 2.94777 17.6332 2.63611C17.9424 2.32445 18.3111 2.07823 18.7175 1.91212C19.1238 1.746 19.5594 1.6634 19.9983 1.66923ZM17.8342 2.63173C17.2626 3.14849 16.8986 3.85577 16.8106 4.62136C16.7225 5.38693 16.9162 6.15839 17.3556 6.79148C19.0799 9.27368 23.0933 8.22228 23.1686 4.94173C23.2276 2.37256 19.946 0.724584 17.8342 2.63138V2.63173Z" fill="#46178F"/>
<path d="M20.3239 7.57396C19.9307 7.38689 19.1957 6.83039 18.7339 6.45151C18.4168 6.19129 18.4619 6.20756 18.4945 6.14649C18.6319 5.88763 18.8062 5.65026 19.0123 5.44194C19.0648 5.38944 19.1189 5.40886 19.2451 5.49444C19.4682 5.63757 19.6826 5.79383 19.8871 5.96239C20.4559 6.39989 20.0128 6.29086 21.0344 5.22616C21.1611 5.09421 21.7101 5.63916 21.8109 5.74486C21.8225 5.75317 21.8319 5.76388 21.8389 5.77626C21.8457 5.78863 21.8499 5.80237 21.851 5.81651C21.852 5.83063 21.8499 5.84482 21.8449 5.85809C21.84 5.87135 21.8321 5.88336 21.8219 5.89326C21.5801 6.22891 20.6603 7.39056 20.3239 7.57396ZM21.7096 5.85249C21.764 5.78406 21.7934 5.84566 21.1181 5.30684C21.0759 5.27306 21.1181 5.23684 20.3155 6.27844C20.2308 6.38834 20.2749 6.37189 19.808 6.01891C19.0282 5.42864 19.073 5.49636 19.0435 5.53451C19.0139 5.57266 18.8884 5.73909 18.5991 6.14194C18.5545 6.20406 18.5291 6.15944 18.9974 6.50944C19.2307 6.68444 20.0999 7.35294 20.3682 7.47754C20.3255 7.47841 20.525 7.34174 21.7096 5.85249Z" fill="#46178F"/>
<path d="M21.5516 3.5922C21.571 3.7742 21.176 4.20173 21.0341 4.36395C20.9758 4.43063 20.9791 4.44445 20.8895 4.38145C19.7974 3.6202 19.8975 3.56245 19.836 3.59395C19.6197 3.94336 19.3767 4.2753 19.1086 4.58673C18.9738 4.75525 19.0246 4.74615 18.2409 4.18423C18.1625 4.12805 18.1359 4.15903 18.5528 3.60935C18.6732 3.45045 19.1324 2.87295 19.2375 2.75185C19.6679 2.25415 19.6549 2.29773 19.7386 2.34218C20.2844 2.63355 21.4088 3.3864 21.5516 3.5922ZM21.47 3.63403C21.4515 3.60778 21.4875 3.63403 21.2614 3.46165C20.7719 3.07992 20.2515 2.73955 19.7055 2.44403C19.6311 2.40098 19.6787 2.363 19.2773 2.86893C18.1949 4.23288 18.3148 4.1186 18.3757 4.16393C18.9882 4.61368 18.9675 4.62593 19.0093 4.56643C19.0877 4.45618 18.8128 4.84923 19.5286 3.87063C19.81 3.48563 19.7911 3.4487 19.8572 3.49473C20.0508 3.62808 20.9268 4.31215 20.9525 4.31093C20.9783 4.3097 21.4387 3.68723 21.47 3.63403Z" fill="#46178F"/>
<path d="M18.6998 5.10517C18.5555 5.3843 18.3654 5.63744 18.1379 5.85417C18.119 5.87188 18.0947 5.8824 18.0688 5.88387C18.0431 5.88534 18.0175 5.87768 17.9969 5.86222C17.7874 5.72999 17.5958 5.57169 17.4262 5.39112C17.3446 5.31605 17.3333 5.28612 17.8203 4.60082C17.8257 4.58861 17.8339 4.57778 17.8441 4.56908C17.8544 4.56038 17.8663 4.55406 17.8793 4.55055C17.8922 4.54703 17.9057 4.54642 17.919 4.54876C17.9321 4.55111 17.9445 4.55632 17.9556 4.56407C18.2443 4.68073 18.4998 4.86654 18.6998 5.10517ZM17.9255 4.6591C17.8555 4.72455 17.4696 5.27737 17.4967 5.3185C17.5091 5.3374 17.9111 5.6685 17.9276 5.68267C18.0548 5.78767 18.0676 5.79537 18.0931 5.76247C18.6046 5.08662 18.6153 5.13825 18.5394 5.07997C18.3022 4.8999 17.9813 4.6899 17.9255 4.6591Z" fill="#46178F"/>
<path d="M22.7028 4.57677C22.5892 4.83298 22.4319 5.06757 22.2382 5.27012C22.1993 5.31037 22.1722 5.34554 22.1249 5.32034C21.8736 5.19009 21.6477 5.01584 21.4578 4.80584C21.4438 4.79531 21.4344 4.77968 21.4318 4.7623C21.429 4.74494 21.4332 4.72721 21.4435 4.71292C21.5613 4.45833 21.7268 4.22881 21.9314 4.03689C22.0026 3.97004 22.0208 3.96269 22.1041 4.01712C22.3412 4.15885 22.5455 4.34967 22.7028 4.57677ZM22.6001 4.57939C22.4165 4.40023 22.2215 4.23315 22.0163 4.07924C21.843 4.28537 21.6822 4.50159 21.5347 4.72674C21.5021 4.77189 21.5289 4.75807 21.6615 4.85764C22.1704 5.23984 22.1542 5.25577 22.1865 5.20572C22.3624 4.93867 22.5726 4.62454 22.6001 4.57939Z" fill="#46178F"/>
<path d="M19.9278 4.31311C20.1868 4.43272 20.4216 4.5988 20.6206 4.80311C20.6628 4.85089 20.6628 4.85999 20.6266 4.91249C20.1432 5.61109 20.1121 5.57136 20.0284 5.51186C19.3228 5.01014 19.3345 5.04689 19.4423 4.87836C19.5356 4.73224 19.7664 4.38241 19.9278 4.31311ZM20.1112 5.44816C20.1378 5.41491 20.1905 5.33406 20.2442 5.26284C20.5753 4.82394 20.5767 4.87084 20.5023 4.81799C19.8924 4.38434 19.9344 4.38871 19.8928 4.44156C19.7657 4.60239 19.6128 4.79436 19.5125 4.92736C19.4702 4.98336 19.4513 4.96411 19.7069 5.15259C19.7166 5.16046 20.068 5.41999 20.1112 5.44816Z" fill="#46178F"/>
<path d="M26.5999 8.12184C31.3267 8.04536 32.7286 13.8851 29.0286 16.0766C28.4514 16.4208 27.8013 16.6241 27.1311 16.6701C26.4606 16.7161 25.789 16.6035 25.1702 16.3414C24.5516 16.0793 24.0033 15.6751 23.57 15.1616C23.1367 14.648 22.8304 14.0396 22.6761 13.3857C22.0452 10.7367 24.0974 8.16226 26.5999 8.12184ZM26.8518 16.5404C29.0587 16.5488 30.9324 14.8394 30.9879 12.3841C30.9072 9.93694 29.0307 8.27251 26.8595 8.25414C26.3131 8.25011 25.7713 8.35419 25.2654 8.56035C24.7595 8.76652 24.2992 9.07072 23.9114 9.45544C23.5234 9.84016 23.2154 10.2978 23.0051 10.8021C22.7947 11.3063 22.6862 11.8471 22.6857 12.3935C22.6852 12.9398 22.7926 13.4809 23.0021 13.9855C23.2116 14.4901 23.5187 14.9483 23.906 15.3338C24.2931 15.7192 24.7528 16.0243 25.2584 16.2314C25.7638 16.4385 26.3054 16.5436 26.8518 16.5406V16.5404Z" fill="#46178F"/>
<path d="M25.1358 15.4548C24.3385 15.0222 23.7421 14.2948 23.4742 13.4282C23.2063 12.5615 23.288 11.6245 23.702 10.8173C25.1857 7.92581 29.4259 8.48091 30.145 11.5912C30.8445 14.6171 27.673 16.8365 25.1358 15.4548ZM23.5608 13.3085C23.7209 13.8537 24.0162 14.3497 24.419 14.7504C24.8219 15.1512 25.3194 15.4437 25.8656 15.601C29.0441 16.4935 31.4355 12.7835 29.3397 10.2514C27.1355 7.58859 22.5833 9.72621 23.5601 13.3085H23.5608Z" fill="#46178F"/>
<path d="M28.5583 12.7161C28.5655 12.8074 28.4064 12.8489 26.6575 13.3701C26.472 13.4254 25.1236 11.9758 25.0863 11.9148C25.0347 11.8299 25.0513 11.8204 25.2718 11.5658C25.6948 11.0758 26.4897 10.1886 26.9924 9.79499C27.4499 9.43711 27.4431 9.35749 27.5188 9.51622C27.939 10.3991 28.4714 12.3153 28.5583 12.7161ZM26.8741 11.5532C26.9791 11.5466 26.9336 11.6285 27.082 10.9778C27.427 9.46459 27.3979 9.62611 27.3862 9.58044C27.2506 9.61754 25.3107 11.619 25.2435 11.777C25.2795 11.7863 26.1983 11.5966 26.8741 11.5532ZM28.4262 12.5532C28.4134 12.463 27.5111 9.67546 27.4753 9.64676C27.4499 9.68176 27.4651 9.68019 27.4541 9.72866C27.0073 11.7137 26.9786 11.5389 27.175 11.6516C28.0339 12.1449 28.4042 12.633 28.4262 12.5532ZM26.9324 11.6503C26.8124 11.6111 25.2426 11.8827 25.1999 11.8945C25.2211 11.9435 25.5692 12.2578 25.8884 12.5756C26.5709 13.2547 26.5695 13.2843 26.5994 13.2386C26.6136 13.221 26.8783 11.8227 26.9324 11.6503ZM26.6962 13.2666C27.2052 13.1107 27.1674 13.0792 28.4332 12.714C28.4936 12.6965 28.4927 12.7082 27.9479 12.3106C27.3108 11.8456 27.2773 11.8253 27.0773 11.6964C27.0017 11.6477 27.0339 11.6012 26.8288 12.5574C26.665 13.3205 26.6757 13.2365 26.6958 13.2666H26.6962Z" fill="#46178F"/>
<path d="M24.9918 12.1768C25.0581 12.2303 26.2054 13.4502 26.4534 13.6772C26.4993 13.7192 28.2885 13.0691 28.3865 13.0638C28.474 13.0591 28.4015 13.1538 28.3417 13.2184C27.2612 14.3846 27.1231 14.4656 26.4137 15.0396C26.1897 15.2207 26.1547 15.293 26.094 15.1642C25.6428 14.233 25.2617 13.2696 24.9533 12.2819C24.9295 12.2182 24.961 12.2021 24.9918 12.1768ZM26.2518 15.0366C26.8995 14.5008 27.5199 13.9328 28.1107 13.3349C28.1931 13.2534 28.2703 13.1821 28.1528 13.2226C26.4441 13.8104 26.514 13.7425 26.4935 13.8375C26.2172 15.1252 26.2287 14.996 26.2518 15.0366ZM25.1155 12.4382C25.108 12.461 26.0719 14.9374 26.148 15.0315C26.1627 14.985 26.2081 14.6961 26.263 14.4304C26.3962 13.7845 26.434 13.7934 26.3787 13.7381C25.2265 12.5854 25.2207 12.5143 25.1155 12.4382Z" fill="#46178F"/>
</svg>
