<svg width="16" height="16" viewBox="0 0 16 16" fill="none" xmlns="http://www.w3.org/2000/svg">
<circle cx="8" cy="8" r="7.5" stroke="#FBFCD8" stroke-opacity="0.5"/>
<path fill-rule="evenodd" clip-rule="evenodd" d="M9.23698 8.14622C9.95404 7.97976 10.4193 8.22303 10.6241 8.88033C10.6754 9.04679 10.7309 9.24742 10.7863 9.49071C10.4278 9.56754 10.0052 9.64009 9.51438 9.69557L9.23698 8.14622ZM9.27111 5.76885C9.19855 5.78592 9.10464 5.80295 8.99367 5.82856L8.73331 4.58655C8.96807 4.61643 9.39489 4.75298 10.0138 4.98347C10.0223 4.53104 10.0052 3.94629 9.94974 3.21643C9.36927 3.00728 8.86138 2.87072 8.43029 2.8067L8.39184 2.64877L8.22964 2C7.93087 2.31158 7.70895 2.52072 7.56383 2.63596C7.41871 2.74693 7.22666 2.85364 6.98764 2.95607C6.46692 3.17802 6.05288 3.44694 5.73703 3.77986C5.51935 4.01034 5.34865 4.30059 5.22487 4.65059C5.16511 4.81705 5.11813 4.99204 5.07971 5.18411C4.95167 5.79446 4.9773 6.39199 5.16084 6.97246C5.27608 7.33953 5.44678 7.66393 5.66873 7.94989C5.6986 7.98404 5.72424 8.02245 5.75412 8.0566C6.01021 8.36391 6.35591 8.54741 6.79126 8.60716C7.22235 8.66692 7.57238 8.65413 7.837 8.56876C7.85408 8.56449 7.92235 8.53891 8.0376 8.49196C8.14857 8.44501 8.24249 8.41082 8.32358 8.38948L8.67355 9.64436C8.32356 9.69984 7.86689 9.5035 7.30775 9.05534C6.71447 9.4779 6.22364 9.88764 5.82243 10.2846L7.06871 12.9351C7.29919 12.7772 7.66624 12.4528 8.17416 11.962C8.12294 11.7187 8.0675 11.5053 8.00774 11.3217C8.29798 11.3388 8.66503 11.3346 9.11746 11.309L9.5101 12.6961C9.56986 12.6449 9.65098 12.5638 9.74915 12.4443C9.85158 12.3248 9.92843 12.248 9.97965 12.201L9.79182 11.198C9.8217 11.2023 9.94976 11.1681 10.1802 11.0956L10.5217 11.0016C10.7351 10.9376 10.9869 10.7498 11.2771 10.4425C11.5631 10.1309 11.768 9.63583 11.8875 8.96146C12.0113 8.28708 11.9686 7.6255 11.7637 6.97673C11.6613 6.63955 11.4735 6.36213 11.2046 6.14446C10.9357 5.92678 10.6582 5.78166 10.3637 5.71764C10.0607 5.65361 9.76194 5.66211 9.46743 5.73467C9.43755 5.74321 9.36928 5.756 9.26684 5.77734L9.27111 5.76885ZM7.52543 4.62495L7.97356 6.05906C7.17114 6.09747 6.63334 5.67922 6.36017 4.80424C6.80406 4.67619 7.19678 4.61642 7.52116 4.62495H7.52543Z" fill="#FBFCD8" fill-opacity="0.5"/>
</svg>
