<svg width="217" height="391" viewBox="0 0 217 391" fill="none" xmlns="http://www.w3.org/2000/svg">
<path d="M3.79134 196.705C3.79134 196.705 18.0647 187.561 29.4388 194.698L28.5467 196.259C17.8417 189.791 4.68342 198.266 4.68342 198.266L3.79134 196.705Z" fill="black"/>
<path d="M4.68341 196.928C4.68341 196.928 15.1654 206.518 15.1654 216.777H13.3812C13.3812 207.41 3.34528 198.266 3.34528 198.266L4.46038 196.928H4.68341Z" fill="black"/>
<path d="M30.3309 218.784C30.3309 218.784 29.6618 200.719 27.8776 199.158C27.4316 198.712 27.2086 198.266 27.2086 197.597C27.2086 196.705 27.6546 195.367 28.3237 194.252C29.2158 193.137 30.3309 191.799 31.892 190.683C35.0143 188.676 39.9208 187.115 46.3884 188.23L46.1654 190.014C40.1438 189.122 35.6834 190.46 32.7841 192.245C31.446 193.137 30.3309 194.252 29.6618 195.144C28.9927 196.036 28.7697 196.928 28.7697 197.597C28.7697 197.82 28.7697 197.82 28.9927 198.043C31.446 200.05 32.115 219.007 32.115 219.007H30.3309V218.784Z" fill="black"/>
<path d="M47.2806 188.676L51.741 210.086L51.072 210.309C51.072 210.309 37.4676 217.223 33.8993 225.252L32.3382 224.583C35.6835 217 47.0576 210.532 49.7338 209.194L45.4964 188.899L47.2806 188.453V188.676Z" fill="black"/>
<path fill-rule="evenodd" clip-rule="evenodd" d="M46.8345 191.576L50.6259 209.863C50.6259 209.863 36.7986 217 33.0072 225.252C33.0072 225.252 41.482 215.885 54.6403 212.986L49.9568 192.245L49.7338 191.129L46.8345 191.352V191.576Z" fill="white"/>
<path d="M47.9497 192.245L51.741 210.309L51.072 210.532C51.072 210.532 43.7123 214.324 38.3597 219.453C42.1511 216.777 47.2806 213.878 53.7482 212.317C52.4101 206.295 49.9569 198.043 49.0648 192.245L47.9497 192.468V192.245ZM49.7338 209.194L45.9425 190.683L50.6259 190.237L50.8489 192.245L55.7554 213.655L54.8633 213.878C41.9281 216.554 33.6763 225.698 33.6763 225.698L32.3382 224.806C35.6835 217.223 47.0576 210.755 49.7338 209.417V209.194Z" fill="black"/>
<path fill-rule="evenodd" clip-rule="evenodd" d="M14.4964 215.885C14.0503 210.086 10.259 204.511 7.35967 200.943L1.78413 201.612C1.78413 201.612 10.482 209.863 10.928 219.007C13.3813 219.007 21.187 219.453 33.0072 225.475C27.2086 220.345 17.3956 217 14.2733 216.108L14.4964 215.885Z" fill="white"/>
<path d="M13.6043 215.885C13.3813 213.432 12.7122 211.201 11.5971 208.971C10.259 206.072 8.47482 203.619 6.91367 201.835L3.56835 202.281C6.02158 204.957 10.9281 211.201 11.8201 218.115C13.1583 218.115 15.6115 218.338 18.7338 219.007C20.295 219.453 22.0791 219.899 23.8633 220.345C19.8489 218.338 16.0576 217.223 14.2734 216.554L13.6043 216.331V215.662V215.885ZM13.1583 208.302C14.2734 210.532 14.9424 212.763 15.1655 215.216C17.3957 215.885 21.4101 217.223 25.6475 219.453C28.5468 220.791 31.223 222.576 33.6763 224.583L32.7842 225.921C26.9856 223.022 22.0791 221.46 18.5108 220.568C14.9424 219.676 12.4892 219.676 11.1511 219.676H10.259V218.784C9.81295 210.086 1.33813 202.058 1.33813 202.058L0 200.719L7.80576 199.827L8.02878 200.273C9.81295 202.281 11.8201 204.957 13.1583 208.079V208.302Z" fill="black"/>
<path fill-rule="evenodd" clip-rule="evenodd" d="M37.6906 197.597C37.9136 192.245 44.1582 191.576 36.1294 189.568C30.7769 191.352 28.1006 195.144 27.8776 197.151C27.8776 197.597 21.187 198.489 21.41 198.712C22.9711 200.05 24.0863 209.64 24.5323 214.77C24.5323 214.547 35.6834 220.345 36.1294 218.561C36.7985 216.554 39.0287 208.079 38.3596 206.741C37.9136 205.403 37.2445 202.95 37.4676 197.597H37.6906Z" fill="#46178F"/>
<path fill-rule="evenodd" clip-rule="evenodd" d="M7.35975 200.943C10.259 204.288 14.0504 209.863 14.4964 215.885C17.6187 216.777 27.4317 220.122 33.2302 225.252C36.7986 217 50.849 209.863 50.849 209.863L47.0576 191.576L46.6115 188.899C42.5972 188.23 39.0288 188.676 36.3526 189.568C35.4605 190.684 33.2302 193.36 33.0072 198.043C32.7842 204.288 34.1223 203.396 34.7914 204.734C35.2374 206.072 32.7842 211.201 31.8921 214.324C31.6691 215.216 31.4461 215.662 31.4461 215.885C31.2231 210.532 30.331 199.827 28.7698 198.489C28.1007 198.043 28.1007 196.705 28.9928 195.144C18.0648 188.899 4.46046 197.374 4.46046 197.374C4.46046 197.374 5.79859 198.712 7.58277 200.719L7.35975 200.943Z" fill="#46178F"/>
<path d="M29.2159 194.475C29.2159 194.475 33.2302 223.691 33.8993 224.806L32.3382 225.698C31.6691 224.137 27.6547 194.698 27.6547 194.698L29.4389 194.475H29.2159Z" fill="black"/>
<path fill-rule="evenodd" clip-rule="evenodd" d="M71.8129 180.87C70.6978 180.424 69.5827 179.978 68.6906 179.532C66.2373 178.863 64.2301 182.432 64.2301 182.432C64.2301 182.432 65.5683 186.223 66.9064 189.122C67.1294 189.345 66.9064 189.568 66.6834 190.014C72.705 191.799 70.6978 184.216 70.6978 184.216L72.0359 187.115H73.151H75.3812V186.892L74.9352 182.209C74.9352 182.209 73.374 181.317 71.8129 180.647V180.87Z" fill="white"/>
<path d="M71.5899 181.54L70.0287 180.87C69.5827 180.647 69.1367 180.424 68.6906 180.424C67.3525 179.978 65.7913 181.763 65.3453 182.655C65.7913 183.77 66.6834 186.669 68.0215 188.899C68.0215 189.122 68.2446 189.345 68.2446 189.568C71.5899 189.791 70.2518 184.662 70.2518 184.662L71.8129 184.216L72.928 186.669H74.7122L74.2661 183.101C73.5971 182.878 72.482 182.209 71.5899 181.763V181.54ZM70.6978 179.309L72.259 179.978C74.0431 180.87 75.3813 181.54 75.3813 181.54L75.8273 181.763L76.4964 188.007H72.0359C71.8129 190.014 70.4748 191.799 66.6834 190.683L65.5683 190.237L66.4604 189.122C64.8992 186.223 63.7841 182.432 63.7841 182.432L63.5611 181.986L63.7841 181.54C63.7841 181.54 66.2374 177.302 69.3597 178.194C69.8057 178.417 70.4748 178.64 70.9208 178.863L70.6978 179.309Z" fill="black"/>
<path fill-rule="evenodd" clip-rule="evenodd" d="M64.2302 182.432C64.2302 182.432 66.4604 178.863 68.6906 179.532C69.5827 179.755 70.6978 180.201 71.8129 180.87C73.5971 177.302 75.6043 175.741 77.3885 175.072L76.0504 170.834L73.3741 169.496L70.9209 172.619L68.0216 170.388L66.9065 174.626L61.3309 173.065V175.964L64.2302 177.971V182.209V182.432Z" fill="#46178F"/>
<path d="M65.1223 179.978C66.2374 179.086 67.5755 178.194 69.1367 178.64C69.5827 178.863 70.2518 179.086 70.6978 179.309L71.5899 179.755C72.259 178.417 73.151 177.302 73.8201 176.633C74.7122 175.741 75.6043 175.072 76.4964 174.626L75.6043 171.504L74.0431 170.612L71.5899 173.734L68.9136 171.727L68.0215 175.518L62.669 174.18V175.518L65.5683 177.525V179.755L65.1223 179.978ZM68.4676 180.425C66.6834 179.978 64.8992 182.878 64.8992 182.878L63.3381 182.432V178.64L60.4388 176.633V172.173L66.2374 173.734L67.3525 169.05L70.6978 171.504L72.928 168.604L76.4964 170.389L78.0575 175.741L77.3885 175.964C76.4964 176.187 75.6043 176.856 74.7122 177.748C73.8201 178.64 73.151 179.755 72.482 181.317L72.0359 182.209L69.8057 181.094C69.3597 180.871 68.9136 180.648 68.4676 180.648V180.425Z" fill="black"/>
<path fill-rule="evenodd" clip-rule="evenodd" d="M77.3885 175.072C75.6044 175.741 73.5972 177.302 71.813 180.87C73.5972 181.763 74.9353 182.432 74.9353 182.432L75.3813 187.115C75.3813 187.115 78.2806 187.115 80.9569 186.669C82.741 186.446 84.7482 185.777 85.1943 184.662C86.7554 182.209 82.295 182.209 82.295 182.209L82.741 179.309C82.741 179.309 82.072 177.748 80.2878 178.194C78.5036 178.64 81.849 175.295 80.7339 174.849C80.0648 174.626 78.7267 174.403 77.1655 174.849L77.3885 175.072Z" fill="white"/>
<path d="M77.8346 175.964C76.9425 176.187 76.0504 176.856 75.1583 177.748C74.4893 178.417 73.8202 179.309 73.1511 180.424C74.4893 181.094 75.6044 181.763 75.6044 181.763L76.0504 181.986L76.4964 186.446C77.6116 186.446 79.3957 186.446 81.1799 186C82.072 185.777 82.9641 185.554 83.6331 185.331C84.3022 185.108 84.7482 184.885 84.9713 184.439C85.6403 183.324 82.9641 183.324 82.9641 183.324H81.849L82.518 179.755C82.295 179.532 81.849 179.086 81.1799 179.309C80.2878 179.532 79.8418 179.309 79.6187 178.64C79.3957 177.971 79.8418 177.525 80.2878 176.856C80.5108 176.41 81.1799 175.964 81.1799 175.964C80.9569 175.964 80.5108 175.741 79.8418 175.741C79.3957 175.741 78.7267 175.741 78.0576 175.964H77.8346ZM73.8202 176.633C74.9353 175.518 76.0504 174.849 77.1655 174.403C78.0576 174.18 78.7267 173.957 79.3957 173.957C80.2878 173.957 81.1799 174.18 81.4029 174.403C82.7411 175.072 82.072 176.41 81.4029 177.748C82.9641 177.748 83.8562 179.309 83.8562 179.309V179.755L83.4101 181.763C84.9713 181.986 87.6475 182.655 85.8634 185.554C85.4173 186.223 84.7482 186.669 83.8562 187.115C82.9641 187.338 82.072 187.784 80.9569 187.784C78.0576 188.23 75.1583 188.23 75.1583 188.23H74.2662L73.8202 183.101C73.1511 182.878 72.036 182.209 71.1439 181.763L70.2518 181.317L70.6979 180.424C71.59 178.64 72.4821 177.525 73.3741 176.41L73.8202 176.633Z" fill="black"/>
<path fill-rule="evenodd" clip-rule="evenodd" d="M81.1799 186.892C78.5036 187.338 75.6044 187.338 75.6044 187.338V187.561H73.3741C73.3741 188.23 73.5972 191.576 71.813 196.482C69.5828 201.835 68.4677 217.669 78.7267 224.583C88.9857 231.273 104.82 213.878 100.137 203.396C95.6763 193.137 84.9713 189.568 81.1799 187.338V186.892Z" fill="white"/>
<path d="M80.9569 187.784C79.1727 188.007 77.6115 188.23 76.4964 188.23V188.453H74.2662C74.2662 188.899 74.2662 189.791 74.0432 190.46C73.8202 192.022 73.3741 194.252 72.482 196.705C71.1439 199.827 70.4748 206.518 72.036 212.763C73.1511 217 75.3813 221.014 79.1727 223.691C82.072 225.475 85.1943 225.475 88.3166 223.914C89.8777 223.245 91.4389 222.129 93 220.791C94.5612 219.453 95.6763 217.892 96.7914 216.331C99.4676 212.093 100.806 207.187 99.0216 203.396C95.4533 195.367 87.8705 191.352 83.1871 189.122C82.295 188.676 81.4029 188.23 80.7338 187.784H80.9569ZM75.6043 186.446C76.0504 186.446 78.5036 186.446 80.9569 186L81.6259 186.223C82.295 186.669 83.1871 187.115 84.3022 187.561C89.2087 190.014 97.2374 194.029 101.029 202.727C103.036 207.187 101.698 212.763 98.5756 217.223C97.4605 219.007 95.8993 220.568 94.3382 222.129C92.777 223.468 90.9928 224.806 89.2087 225.475C85.6403 227.036 81.6259 227.259 78.2806 225.029C73.8202 222.129 71.59 217.669 70.2518 212.986C68.6907 206.295 69.5828 199.158 70.9209 195.813C71.813 193.583 72.259 191.576 72.482 190.014C72.7051 188.676 72.482 187.561 72.482 187.338V186.446H74.7123V186.223H75.8274L75.6043 186.446Z" fill="black"/>
<path fill-rule="evenodd" clip-rule="evenodd" d="M31.223 212.763C31.223 212.763 63.7842 194.698 66.9065 190.237C67.1295 189.791 68.0216 190.906 67.1295 189.345C66.2374 187.784 64.4533 182.655 64.4533 182.655L29.2159 198.935L31.223 212.986V212.763Z" fill="white"/>
<path d="M31.8921 211.424C37.6907 208.302 63.3381 193.583 66.2374 189.791L66.4604 189.568C65.7914 188.23 64.6763 185.331 64.0072 183.77L30.3309 199.381L32.1151 211.647L31.8921 211.424ZM67.3525 191.129C62.8921 196.482 31.6691 213.655 31.6691 213.655L30.554 214.324L28.3237 198.266L64.8993 181.317L65.1223 182.209C65.1223 182.209 67.1295 187.338 67.7986 188.899C68.4676 190.237 68.2446 190.683 67.7986 190.906C67.5755 190.906 67.3525 190.906 67.3525 190.906V191.129Z" fill="black"/>
<path fill-rule="evenodd" clip-rule="evenodd" d="M71.813 196.259C69.5828 201.612 68.4677 217.446 78.7267 224.36C88.9857 231.05 104.82 213.655 100.137 203.173C95.6763 192.914 84.9713 189.345 81.1799 187.115C78.5036 187.561 75.6044 187.561 75.6044 187.561V187.784H73.3741C73.3741 188.453 73.5972 191.799 71.813 196.705V196.259Z" fill="#46178F"/>
<path d="M72.482 196.482C71.1439 199.604 70.4748 206.295 72.036 212.54C73.1511 216.777 75.3813 220.791 79.1727 223.468C82.072 225.252 85.1943 225.252 88.3166 223.691C89.8777 223.022 91.4389 221.906 93 220.568C94.5612 219.23 95.6763 217.669 96.7914 216.108C99.4676 211.871 100.806 206.964 99.0216 203.173C95.4533 195.144 87.8705 191.13 83.1871 188.899C82.295 188.453 81.4029 188.007 80.7338 187.561C78.9497 187.784 77.3885 188.007 76.2734 188.007V188.23H74.0432C74.0432 188.676 74.0432 189.568 73.8202 190.237C73.5971 191.799 73.1511 194.029 72.259 196.482H72.482ZM70.2518 212.986C68.6907 206.295 69.5828 199.158 70.9209 195.813C71.813 193.583 72.259 191.576 72.482 190.014C72.7051 188.676 72.482 187.561 72.482 187.338V186.446H74.7123V186.223H75.8274C76.2734 186.223 78.7266 186.223 81.1799 185.777L81.8489 186C82.518 186.446 83.4101 186.892 84.5252 187.338C89.4317 189.791 97.4605 193.806 101.252 202.504C103.259 206.964 101.921 212.54 98.7986 217C97.6835 218.784 96.1223 220.345 94.5612 221.906C93 223.245 91.2159 224.583 89.4317 225.252C85.8633 226.813 81.8489 227.036 78.5036 224.806C74.0432 221.906 71.813 217.446 70.4748 212.763L70.2518 212.986Z" fill="black"/>
<path d="M9.14391 198.266L10.036 198.489L10.7051 198.043L13.1583 198.489L14.2734 198.043L14.7194 197.597L15.8346 198.043L15.6115 197.82V197.597H16.7266L16.5036 197.374L17.8417 197.597V196.928C17.6187 196.705 16.7266 196.036 18.2878 196.928C18.5108 197.151 18.9569 197.151 19.1799 197.374C19.4029 197.374 19.4029 197.374 19.4029 197.374V197.151C19.4029 196.928 19.4029 196.928 19.4029 196.705C19.4029 196.482 19.6259 196.482 20.295 196.928C20.741 197.151 21.1871 197.374 21.1871 197.374C21.1871 197.374 21.1871 197.151 20.964 197.151C20.964 197.151 20.741 196.928 20.964 196.928C20.964 196.928 21.1871 196.928 21.4101 196.928C21.8561 197.151 22.0792 197.374 22.3022 197.374V197.151C22.3022 197.151 21.8561 196.705 22.7482 197.151C23.1943 197.374 23.1943 197.374 23.4173 197.374C23.1943 197.151 22.9712 196.705 23.8633 197.151C24.3094 197.374 24.3094 197.374 24.3094 197.374H24.5324V197.151H24.7554L24.5324 197.597H24.3094C24.3094 197.597 24.0864 197.597 23.6403 197.597C23.6403 197.597 23.4173 198.043 22.7482 197.597C22.5252 197.597 22.5252 197.374 22.5252 197.374V197.82C22.5252 197.82 22.0792 197.597 21.6331 197.374L21.8561 197.597C21.8561 197.82 21.8561 197.82 21.6331 197.82C21.4101 197.82 21.1871 197.597 20.741 197.374C20.295 197.151 20.295 197.151 20.072 197.151V197.374C20.072 197.597 20.072 197.597 20.072 197.597L19.8489 197.82C19.8489 197.82 19.6259 197.82 19.4029 197.82C19.1799 197.82 18.7338 197.597 18.5108 197.374H18.2878V198.266L16.9497 198.043V198.266H15.8346L16.5036 198.712V198.935L14.7194 198.043L14.4964 198.489L13.3813 199.158L11.1511 198.712L10.482 199.158L9.58995 198.935V198.712L9.14391 198.266Z" fill="white"/>
<path d="M11.5972 202.058L12.4893 202.281L13.1583 201.835L15.6116 202.281L16.7267 201.835L17.1727 201.388L18.2878 201.835L18.0648 201.611V201.388H19.1799L18.9569 201.165L20.295 201.388V200.719C20.072 200.496 19.1799 199.827 20.7411 200.719C20.9641 200.942 21.4101 200.942 21.6331 201.165C21.8562 201.165 21.8562 201.165 21.8562 201.165V200.942C21.8562 200.719 21.8562 200.719 21.8562 200.496C21.8562 200.273 22.0792 200.273 22.7482 200.719C23.1943 200.942 23.6403 201.165 23.6403 201.165C23.6403 201.165 23.6403 200.942 23.4173 200.942C23.4173 200.942 23.1943 200.719 23.4173 200.719C23.4173 200.719 23.6403 200.719 23.8634 200.719C24.3094 200.942 24.5324 201.165 24.7554 201.165V200.942C24.7554 200.942 24.3094 200.496 25.2015 200.942C25.6475 201.165 25.6475 201.165 25.8705 201.165C25.6475 200.942 25.4245 200.496 26.3166 200.942C26.7626 201.165 26.7626 201.165 26.7626 201.165H26.9857V200.942H27.2087L26.9857 201.388H26.7626C26.7626 201.388 26.5396 201.388 26.0936 201.388C26.0936 201.388 25.8705 201.835 25.2015 201.388C24.9785 201.388 24.9785 201.165 24.9785 201.165V201.611C24.9785 201.611 24.5324 201.388 24.0864 201.165L24.3094 201.388C24.3094 201.611 24.3094 201.611 24.0864 201.611C23.8634 201.611 23.6403 201.388 23.1943 201.165C22.7482 200.942 22.7482 200.942 22.5252 200.942V201.165C22.5252 201.388 22.5252 201.388 22.5252 201.388L22.3022 201.611C22.3022 201.611 22.0792 201.611 21.8562 201.611C21.6331 201.611 21.1871 201.388 20.9641 201.165H20.7411V202.058L19.4029 201.835V202.058H18.2878L18.9569 202.504V202.727L17.1727 201.835L16.9497 202.281L15.8346 202.95L13.6044 202.504L12.9353 202.95L12.0432 202.727V202.504L11.5972 202.058Z" fill="white"/>
<path d="M16.2806 212.093L16.9497 212.317L17.3957 211.87L19.1799 212.54L20.072 212.093L20.295 211.647L21.1871 212.317L20.9641 212.093V211.87H21.8561V211.647L22.9713 212.093L23.1943 211.424C22.9713 211.201 22.3022 210.309 23.4173 211.424C23.6403 211.647 23.8633 211.87 24.0864 211.87H24.3094V211.647C24.3094 211.424 24.3094 211.201 24.3094 211.201C24.3094 210.978 24.5324 210.978 24.9785 211.424C25.4245 211.87 25.6475 211.87 25.6475 212.093V211.87V211.647H25.8705C26.0936 211.87 26.3166 212.093 26.5396 212.093V211.87C26.5396 211.647 26.3166 211.424 26.9856 212.093C27.2087 212.317 27.4317 212.317 27.4317 212.317C27.4317 212.093 26.9856 211.647 27.6547 212.093C28.1008 212.317 28.1008 212.317 28.1008 212.317H28.3238L28.5468 212.093H28.7698L28.5468 212.54H28.3238C28.3238 212.54 28.1008 212.54 27.8777 212.317C27.8777 212.317 27.6547 212.763 27.2087 212.093C26.9856 211.87 26.9856 211.647 26.9856 211.647V212.093C26.9856 212.093 26.5396 211.87 26.3166 211.647V211.87C26.3166 212.093 26.3166 212.093 26.0936 212.093C25.8705 212.093 25.6475 211.87 25.4245 211.424C25.2015 211.201 24.9785 211.201 24.9785 211.201V211.424C24.9785 211.647 24.9785 211.647 24.9785 211.647L24.7554 211.87H24.5324C24.3094 211.87 24.0864 211.647 23.8633 211.424L23.6403 212.317L22.7482 211.87V212.093H21.8561L22.3022 212.763V212.986L20.9641 212.093L20.741 212.317L19.6259 212.763L17.8418 212.093L17.3957 212.54L16.7267 212.317V212.093H16.2806Z" fill="white"/>
<path d="M14.9424 208.525L15.6115 208.748L16.0576 208.302L17.8417 208.971L18.7338 208.525L18.9568 208.079L19.8489 208.748L19.6259 208.525V208.302H20.518V208.079L21.6331 208.525L21.8561 207.856C21.6331 207.633 20.964 206.741 22.0791 207.856C22.3022 208.079 22.5252 208.302 22.7482 208.302H22.9712V208.079C22.9712 207.856 22.9712 207.633 22.9712 207.633C22.9712 207.41 23.1942 207.41 23.6403 207.856C24.0863 208.302 24.3094 208.302 24.3094 208.525V208.302V208.079H24.5324C24.7554 208.302 24.9784 208.525 25.2014 208.525V208.302C25.2014 208.079 24.9784 207.856 25.6475 208.525C25.8705 208.748 26.0935 208.748 26.0935 208.748C26.0935 208.525 25.6475 208.079 26.3165 208.525C26.7626 208.748 26.7626 208.748 26.7626 208.748H26.9856L27.2086 208.525H27.4317L27.2086 208.971H26.9856C26.9856 208.971 26.7626 208.971 26.5396 208.748C26.5396 208.748 26.3165 209.194 25.8705 208.525C25.6475 208.302 25.6475 208.079 25.6475 208.079V208.525C25.6475 208.525 25.2014 208.302 24.9784 208.079V208.302C24.9784 208.525 24.9784 208.525 24.7554 208.525C24.5324 208.525 24.3094 208.302 24.0863 207.856C23.8633 207.633 23.6403 207.633 23.6403 207.633V207.856C23.6403 208.079 23.6403 208.079 23.6403 208.079L23.4173 208.302H23.1942C22.9712 208.302 22.7482 208.079 22.5252 207.856L22.3022 208.748L21.4101 208.302V208.525H20.518L20.964 209.194V209.417L19.6259 208.525L19.4029 208.748L18.2878 209.194L16.5036 208.525L16.0576 208.971L15.3885 208.748V208.525H14.9424Z" fill="white"/>
<path d="M13.6043 204.957L14.2733 205.18L14.7194 204.734L16.5036 205.403L17.3956 204.957L17.6187 204.511L18.5108 205.18L18.2877 204.957V204.734H19.1798V204.511L20.2949 204.957L20.5179 204.288C20.2949 204.065 19.6259 203.173 20.741 204.288C20.964 204.511 21.187 204.734 21.41 204.734H21.6331V204.511C21.6331 204.288 21.6331 204.065 21.6331 204.065C21.6331 203.842 21.8561 203.842 22.3021 204.288C22.7482 204.734 22.9712 204.734 22.9712 204.957V204.734V204.511H23.1942C23.4172 204.734 23.6403 204.957 23.8633 204.957V204.734C23.8633 204.511 23.6403 204.288 24.3093 204.957C24.5323 205.18 24.7554 205.18 24.7554 205.18C24.7554 204.957 24.3093 204.511 24.9784 204.957C25.4244 205.18 25.4244 205.18 25.4244 205.18H25.6474L25.8705 204.957H26.0935L25.8705 205.403H25.6474C25.6474 205.403 25.4244 205.403 25.2014 205.18C25.2014 205.18 24.9784 205.626 24.5323 204.957C24.3093 204.734 24.3093 204.511 24.3093 204.511V204.957C24.3093 204.957 23.8633 204.734 23.6403 204.511V204.734C23.6403 204.957 23.6402 204.957 23.4172 204.957C23.1942 204.957 22.9712 204.734 22.7482 204.288C22.5251 204.065 22.3021 204.065 22.3021 204.065V204.288C22.3021 204.511 22.3021 204.511 22.3021 204.511L22.0791 204.734H21.8561C21.6331 204.734 21.41 204.511 21.187 204.288L20.964 205.18L20.0719 204.734V204.957H19.1798L19.6259 205.626V205.849L18.2877 204.957L18.0647 205.18L16.9496 205.626L15.1654 204.957L14.7194 205.403L14.0503 205.18V204.957H13.6043Z" fill="white"/>
<path d="M86.9784 207.41L87.4245 210.086C88.3166 210.086 88.9856 209.863 89.6547 209.64C89.6547 209.194 89.4317 208.748 89.4317 208.525C88.9856 207.41 88.3166 206.964 86.9784 207.187V207.41ZM84.7482 203.842L83.8561 201.388C83.1871 201.388 82.518 201.388 81.8489 201.611C82.295 203.173 83.1871 203.842 84.7482 203.842ZM85.1943 196.705L85.6403 198.043C86.3094 198.043 87.2015 198.489 88.3166 198.712C88.3166 200.05 88.5396 200.942 88.5396 201.835C87.4245 201.388 86.7554 201.165 86.3094 201.165L86.7554 203.396C87.2015 203.396 87.4245 203.173 87.6475 203.173C88.0935 202.95 88.7626 202.95 89.2087 203.173C89.6547 203.173 90.3238 203.619 90.7698 203.842C91.2158 204.288 91.6619 204.734 91.6619 205.403C92.1079 206.518 92.1079 207.633 91.8849 208.971C91.6619 210.086 91.4389 210.978 90.7698 211.647C90.3238 212.094 89.8777 212.54 89.4317 212.54L88.7626 212.763C88.3166 212.986 88.0935 212.986 88.0935 212.986L88.3166 214.77C88.3166 214.77 88.0935 214.993 87.8705 215.216C87.6475 215.439 87.6475 215.662 87.4245 215.662L86.7554 213.209C85.8633 213.209 85.4173 213.209 84.7482 213.209C84.7482 213.432 84.9712 213.878 84.9712 214.324C84.0792 215.216 83.4101 215.662 82.964 216.108L80.7338 211.424C81.4029 210.755 82.295 210.086 83.4101 209.194C84.3022 209.863 85.1943 210.309 85.8633 210.309L85.1943 208.079C84.9712 208.079 84.9712 208.079 84.7482 208.302C84.5252 208.302 84.5252 208.525 84.3022 208.525C83.8561 208.748 83.1871 208.748 82.518 208.525C81.8489 208.525 81.1799 208.079 80.7338 207.633C80.2878 207.187 79.8417 206.518 79.6187 205.626C79.3957 204.511 79.1727 203.619 79.3957 202.504C79.6187 201.388 80.0648 200.719 80.5108 200.05C80.9569 199.381 81.8489 198.935 82.741 198.489C83.1871 198.266 83.4101 198.043 83.8561 197.82C84.0792 197.597 84.5252 197.151 84.9712 196.705H85.1943Z" fill="white"/>
<path fill-rule="evenodd" clip-rule="evenodd" d="M108.388 84.9713C110.842 81.849 112.626 82.518 117.086 78.5036C121.547 74.4893 120.432 84.9713 124.446 82.7411C128.46 80.5108 131.137 90.3238 131.583 87.4245C131.583 86.7554 132.029 86.0864 132.475 85.1943C133.367 83.8562 134.482 82.7411 135.374 81.6259C129.129 66.9065 115.971 65.1223 115.971 65.1223L114.633 68.0216L104.597 65.1223L107.496 70.2518L96.5683 69.5828L98.5755 74.9353L89.8777 74.2662L93.669 78.7267L88.7626 82.295L100.583 85.1943C100.583 85.1943 100.583 85.1943 100.583 84.9713C101.029 85.1943 101.475 85.1943 101.921 85.4173C103.928 86.3094 106.381 87.2015 108.165 84.9713H108.388Z" fill="black"/>
<path d="M107.719 84.5252C109.058 82.741 110.173 82.072 111.734 81.4029C113.072 80.7338 114.41 79.8417 116.64 78.0576C118.647 76.2734 119.763 76.7194 120.878 77.8346C121.324 78.5036 121.77 79.3957 122.216 80.2878C122.439 80.7338 122.662 81.1799 122.885 81.6259C123.331 82.295 123.777 82.741 124.446 82.518C127.568 80.9569 129.799 84.3022 131.137 86.5324L131.36 86.9784L131.583 86.7554C131.806 86.3094 132.029 85.8633 132.252 85.6403C132.698 84.9712 133.144 84.3022 133.813 83.6331L134.928 82.295C129.576 70.4748 119.54 67.5756 116.863 66.9065L115.525 69.8058L106.827 67.3525L109.504 72.036L98.1295 71.1439L100.137 76.4964L92.1079 75.8274L95.2302 79.3957L91.2158 82.518L100.137 84.7482V84.5252L101.252 84.9712L102.59 85.4173C103.482 85.8633 104.597 86.3094 105.489 86.3094C106.381 86.3094 107.05 86.0864 107.719 85.4173V84.5252ZM112.626 82.741C111.288 83.4101 110.396 84.0792 109.058 85.4173C107.942 86.7554 106.827 87.2015 105.489 86.9784C104.374 86.9784 103.036 86.5324 101.921 86.0864L87.2014 82.518L92.7769 78.2806L89.4316 74.4892L90.1007 73.1511L97.4604 73.8202L95.4532 68.6907L106.158 69.3597L104.151 65.7914L105.043 64.4533L114.41 67.1295L115.748 64.2302L116.417 64.4533C116.417 64.4533 130.245 66.4605 136.489 81.6259L136.712 82.072L136.266 82.518C135.82 82.9641 135.151 83.6331 134.705 84.3022C134.259 84.9712 133.813 85.4173 133.367 86.0864C133.144 86.3094 132.921 86.7554 132.921 86.9784C132.698 87.2015 132.698 87.6475 132.698 87.8705C132.475 88.9856 132.029 89.2087 131.36 89.2087C130.691 88.9856 130.245 88.3166 129.576 87.2015C128.46 85.4173 126.899 82.9641 125.115 83.8561C123.108 84.9712 121.993 83.8561 121.101 82.295C120.878 81.8489 120.655 81.4029 120.432 80.9569C120.209 80.2878 119.763 79.3957 119.54 78.9497C119.317 78.5036 118.647 78.5036 117.755 79.3957C115.525 81.4029 113.964 82.295 112.626 82.9641V82.741Z" fill="black"/>
<path fill-rule="evenodd" clip-rule="evenodd" d="M117.309 78.5036C112.849 82.518 111.065 81.849 108.612 84.9713C107.05 86.9785 104.597 86.0864 102.367 85.4173L101.029 85.1943C101.252 90.9928 103.259 108.612 115.302 114.856C117.755 116.194 120.209 116.64 122.216 116.194C129.576 115.079 134.036 105.489 135.82 99.0216C136.489 96.7914 136.712 95.2303 136.712 94.3382C137.381 90.7698 140.281 91.6619 139.612 87.6475C139.166 84.3022 134.482 84.9713 132.698 85.4173C132.252 86.0864 131.806 86.9785 131.806 87.6475C131.36 90.5468 128.684 80.7338 124.669 82.9641C120.655 85.1943 121.77 74.7123 117.309 78.7267V78.5036Z" fill="white"/>
<path d="M117.755 79.1727C115.525 81.1799 113.964 82.072 112.626 82.741C111.288 83.4101 110.396 84.0792 109.058 85.4173C107.943 86.7554 106.827 87.2015 105.489 86.9784C104.374 86.9784 103.036 86.5324 102.144 86.0864C102.367 89.2087 103.036 94.3381 104.82 99.2446C106.827 105.043 110.173 110.842 115.971 113.741C117.086 114.41 118.202 114.856 119.317 115.079C120.432 115.302 121.547 115.302 122.439 115.079C125.338 114.633 127.568 112.849 129.576 110.396C132.252 106.827 134.259 102.367 135.374 98.7986C135.597 97.9065 135.82 96.7914 136.043 96.1223C136.266 95.2302 136.266 94.5612 136.266 94.3382V94.1151C136.712 92.331 137.381 91.4389 138.273 90.7698C138.943 90.1007 139.389 89.6547 139.166 87.6475V87.4245C138.943 86.5324 138.273 86.0864 137.604 86.0864C136.712 85.8633 135.597 85.8633 134.705 86.0864L133.813 86.3094L133.367 86.9784C133.144 87.2015 133.144 87.6475 133.144 87.8705C132.921 88.9856 132.475 89.2087 131.806 89.2087C131.137 88.9856 130.691 88.3166 130.022 87.2015C128.907 85.4173 127.345 82.9641 125.561 83.8561C123.554 84.9712 122.439 83.8561 121.547 82.295C121.324 81.8489 121.101 81.4029 120.878 80.9569C120.655 80.2878 120.209 79.3957 119.986 78.9497C119.763 78.5036 119.094 78.5036 118.202 79.3957L117.755 79.1727ZM111.734 81.1799C113.072 80.5108 114.41 79.6187 116.64 77.8346C118.648 76.0504 119.763 76.4964 120.878 77.6115C121.324 78.2806 121.77 79.1727 122.216 80.0648C122.439 80.5108 122.662 80.9569 122.885 81.4029C123.331 82.072 123.777 82.518 124.446 82.295C127.568 80.7338 129.799 84.0792 131.137 86.3094L131.36 86.7554L131.583 86.5324C131.806 86.0864 132.029 85.6403 132.252 85.4173L132.698 84.9712C133.144 84.9712 133.59 84.7482 134.036 84.7482C135.151 84.5252 136.489 84.5252 137.604 84.7482C138.943 85.1943 140.058 85.8633 140.504 87.4245V87.8705C140.95 90.5468 140.058 91.4389 139.166 92.331C138.72 92.777 138.05 93.4461 137.827 94.7842C137.827 95.2302 137.827 96.1223 137.604 96.7914C137.381 97.6835 137.158 98.5756 136.935 99.6907C135.82 103.482 133.813 108.389 130.914 111.957C128.684 114.633 126.007 116.863 122.662 117.309C121.547 117.532 120.209 117.532 118.871 117.309C117.755 117.086 116.417 116.64 115.079 115.971C108.835 112.626 105.266 106.604 103.259 100.36C101.252 94.3382 100.583 88.3166 100.36 85.4173V84.3022C101.252 84.5252 102.144 84.7482 102.813 84.9712C103.705 85.4173 104.82 85.8633 105.712 85.8633C106.604 85.8633 107.273 85.6403 107.943 84.9712C109.281 83.1871 110.396 82.518 111.957 81.8489L111.734 81.1799Z" fill="black"/>
<path d="M114.41 91.8849L115.971 90.9928L116.64 89.2086H118.648L119.317 87.6475H119.986C119.986 87.6475 121.77 87.4245 122.216 87.4245L122.439 87.2014L122.662 86.9784H124V88.7626H123.108C122.662 88.9856 122.216 89.2086 121.77 89.2086C121.547 89.2086 120.878 89.2086 120.432 89.2086L119.763 90.9928H117.978L117.532 91.8849L117.086 92.3309L115.302 93.223L114.41 91.6619V91.8849Z" fill="black"/>
<path d="M104.82 95.0072L106.381 94.3382L108.166 93.223L108.612 93H111.288V94.5612L109.058 94.7842L107.273 95.8993L107.05 96.1223L105.266 96.5684L104.82 95.0072Z" fill="black"/>
<path d="M114.187 98.5756L113.741 100.583C113.741 101.029 113.518 102.367 113.518 102.367L113.741 103.705C113.741 103.705 113.964 105.266 117.978 104.151L118.424 105.935C112.849 107.496 112.18 104.374 111.957 103.705L111.734 102.144C111.734 102.144 111.734 100.583 111.957 100.137L112.403 98.1295L114.187 98.5756Z" fill="black"/>
<path d="M125.338 104.82C124.892 105.935 123.777 107.496 121.547 108.612L119.094 109.727C120.432 110.396 121.993 110.396 123.554 109.95C124.223 109.727 124.892 109.281 125.561 108.835C126.007 108.388 126.453 107.942 126.453 107.273C126.676 106.604 126.23 105.712 125.561 104.82H125.338ZM120.878 107.05C124 105.489 124 103.259 124 103.259V101.475L125.338 102.59C127.568 104.374 128.237 106.158 128.014 107.719C127.791 108.612 127.345 109.504 126.676 110.173C126.007 110.842 125.115 111.288 124.223 111.734C121.77 112.626 118.648 112.403 116.863 110.396L115.971 109.504L120.878 107.273V107.05Z" fill="black"/>
<path fill-rule="evenodd" clip-rule="evenodd" d="M149.87 259.82C146.971 260.712 149.647 259.151 149.647 259.151C149.647 259.151 149.647 259.374 149.87 259.82ZM137.827 346.576L147.194 341C147.194 341 148.532 352.597 150.316 354.604C150.539 354.827 150.763 355.05 151.432 355.05C154.331 355.496 161.691 353.935 165.482 353.043C165.482 353.043 165.482 353.043 165.705 353.043C165.259 305.986 151.878 265.173 150.093 259.597C152.101 258.928 156.784 256.921 166.82 252.46C191.352 241.309 201.388 229.266 203.619 215.439C205.403 204.288 195.144 183.993 191.129 176.633C191.352 177.079 191.352 177.302 191.352 177.302C191.352 177.302 169.05 195.59 142.511 200.942V201.388L140.28 212.094C140.28 212.094 102.144 236.18 92.9999 243.986C83.633 251.791 89.8776 264.281 89.8776 264.281L135.597 347.468L138.05 345.906L137.827 346.576Z" fill="#46178F"/>
<path d="M149.201 260.935C140.058 263.835 148.978 258.482 148.978 258.482L149.871 257.813L150.094 258.705C151.209 258.259 152.77 257.59 155.223 256.698C157.899 255.583 161.245 254.022 165.928 252.014C178.194 246.439 186.669 240.64 192.468 234.619C198.266 228.597 201.166 222.353 202.281 215.662C202.95 211.424 201.835 206.072 200.05 200.273C197.374 192.245 193.36 183.77 190.684 179.086C186.669 182.209 166.374 197.374 142.734 202.281L140.504 213.209L140.281 213.432C140.281 213.432 102.367 237.518 93 245.324C84.3022 252.46 89.8777 264.058 90.1008 264.727L135.374 347.022L147.64 339.662L147.863 341C147.863 341 149.201 352.374 150.763 354.158L151.209 354.381C152.324 354.604 154.108 354.381 156.115 354.158C159.014 353.712 162.137 353.043 164.367 352.597C164.144 329.403 160.576 307.77 157.007 291.266C153.662 275.878 150.317 264.95 148.978 261.158L149.201 260.935ZM150.763 260.266C152.101 264.058 155.446 275.209 158.791 290.597C162.36 307.324 165.928 329.403 166.151 353.043V353.712L165.259 353.935C163.029 354.381 159.46 355.273 156.338 355.719C154.108 355.942 152.101 356.165 150.986 355.942C150.763 355.942 150.317 355.719 150.094 355.719C149.871 355.496 149.648 355.496 149.425 355.273C147.863 353.489 146.748 345.683 146.302 342.561L134.705 349.475C120.432 323.381 100.583 291.712 88.5396 265.396C88.5396 265.396 81.849 252.237 91.8849 243.986C100.806 236.626 135.374 214.547 139.166 212.094L141.619 200.719L142.288 200.496C166.374 195.59 186.892 179.978 190.237 177.302V177.079L191.799 176.41C194.252 180.871 199.158 190.237 202.058 199.604C203.842 205.403 204.957 211.201 204.288 215.662C203.173 222.576 200.05 229.266 194.029 235.511C188.23 241.755 179.309 247.554 167.043 253.13C162.583 255.137 159.014 256.698 156.338 257.813C153.885 258.928 152.101 259.597 150.986 260.043L150.763 260.266Z" fill="black"/>
<path d="M188.007 187.784C188.007 187.784 191.13 191.576 191.576 192.468L194.029 197.151L195.59 198.935L194.252 200.05C192.245 197.597 191.799 196.482 190.237 193.36C189.791 192.691 186.892 188.899 186.892 188.899L188.23 187.784H188.007Z" fill="white"/>
<path d="M192.022 205.403L191.799 209.194L191.576 209.863L186.669 214.547L181.54 219.23C171.281 229.489 170.165 230.827 156.784 236.626C156.338 237.072 153.885 239.302 150.54 241.309C147.64 243.094 145.856 243.763 145.187 243.986L140.281 248.669V253.129L142.511 259.374C142.511 259.374 142.734 260.712 143.18 262.05C143.403 262.942 143.626 263.611 143.849 264.504C143.849 265.173 144.072 265.619 144.295 266.511C144.518 267.626 144.072 268.072 143.626 268.518C143.403 268.741 142.957 268.964 145.41 273.424C147.194 276.993 147.863 277.662 148.309 277.885C148.978 278.331 148.978 278.331 149.424 281.23C149.871 283.683 150.317 285.691 150.54 287.252C150.986 288.813 151.209 289.928 151.432 290.82C151.878 292.604 153.662 300.187 153.662 300.187V300.41C153.662 300.41 153.662 302.194 154.108 304.87C154.331 305.986 154.331 306.209 154.331 306.209C154.554 306.432 154.554 306.655 155 308.662C155.669 312.007 155.892 319.59 156.115 320.928L157.453 324.496H156.338C156.561 324.496 157.23 324.719 158.122 326.504C159.237 329.18 158.345 329.403 157.453 329.849C157.453 329.849 157.23 329.849 157.676 330.741C158.568 333.417 158.791 334.086 158.791 334.755L159.014 335.424C159.237 336.54 159.683 337.655 159.683 337.655L159.906 338.77C159.906 338.993 159.906 339.216 159.906 339.439C159.906 339.885 159.683 340.554 159.906 341.223C159.906 341.223 160.129 341.446 160.129 341.669C160.353 341.892 160.799 342.338 160.799 342.784C161.022 343.453 160.799 343.899 160.576 344.345C160.576 344.568 160.353 344.791 160.353 345.014C160.353 345.237 160.576 345.683 160.799 346.129C161.245 345.46 161.691 345.683 161.691 349.698V351.705H159.906V348.806L159.46 347.468C159.46 347.245 159.237 347.022 159.237 346.799C159.014 346.353 158.568 345.683 158.568 345.014C158.568 344.568 158.791 344.122 158.791 343.676C158.791 343.453 159.014 343.23 159.014 343.007C159.014 343.007 158.791 342.784 158.791 342.561C158.345 342.115 158.122 341.892 158.122 341.223C157.899 340.108 158.122 339.439 158.122 338.77V338.547C157.899 337.655 157.899 337.209 157.899 337.209C157.899 337.209 157.453 336.317 157.23 335.424L157.007 334.755C156.784 334.086 156.784 333.64 155.892 330.964C155 328.511 155.892 328.065 156.784 327.842C156.784 327.842 156.784 327.842 156.338 326.727C155.669 325.165 155.446 324.05 155.446 323.381L154.331 320.928V320.705C154.331 320.705 154.108 312.23 153.439 308.662C152.993 306.878 152.993 306.878 152.993 306.655C152.77 306.432 152.77 306.209 152.547 304.647C152.101 302.194 152.101 300.41 152.101 299.964C151.878 299.295 150.317 292.381 149.871 290.82C149.647 289.928 149.201 288.813 148.978 287.029C148.532 285.468 148.086 283.237 147.64 280.784C147.194 278.554 147.194 278.554 147.194 278.554C146.748 278.108 145.856 277.439 143.849 273.647C140.95 267.849 141.842 267.18 142.511 266.511C142.511 266.511 142.511 266.511 142.511 266.288C142.288 265.396 142.065 264.727 142.065 264.281C141.842 263.612 141.842 262.942 141.619 262.05C141.173 260.489 140.727 258.705 140.727 258.705C140.727 258.705 140.504 258.259 138.496 252.906V252.683V247.331L143.849 241.978L144.518 241.755C144.518 241.755 145.856 241.532 149.424 239.302C153.216 237.072 155.446 234.842 155.446 234.842L155.669 234.619L163.029 231.273L168.381 228.374L173.734 223.914C177.748 219.899 181.317 216.554 185.331 212.763L190.014 208.302L190.237 204.957H192.022V205.403Z" fill="white"/>
<path d="M155 214.993L147.194 217.446L145.633 222.129L145.187 222.576C138.496 227.036 138.05 227.705 131.36 230.604L124.223 239.748C120.655 245.77 120.878 245.324 115.971 250.453C114.856 253.799 113.741 256.698 112.403 259.82V260.712L114.187 263.165L115.079 264.504L115.302 264.727L117.086 269.187L117.978 271.863L120.209 276.101C120.432 276.324 121.77 278.554 122.439 281.676C122.885 281.899 123.554 282.791 124.223 284.129C124.669 284.352 124.892 284.576 125.115 285.468L125.338 286.583L127.345 290.82C130.022 296.173 130.245 297.288 130.691 298.18C130.914 298.626 131.137 299.295 131.806 300.633C131.806 300.856 131.806 301.079 131.583 301.302C132.475 301.079 132.475 301.748 133.59 304.424C134.928 307.993 135.597 310.223 135.82 311.338C136.043 309.108 136.712 308.439 138.496 317.36C139.612 322.935 143.403 327.619 143.403 327.619L143.626 328.065L144.295 330.964L145.633 332.079L144.518 333.417L142.957 332.079L142.734 331.633L142.065 328.511C141.396 327.619 138.05 322.935 136.935 317.583C136.712 316.914 136.712 316.468 136.712 316.022L136.043 316.245C135.151 314.683 135.151 314.014 134.482 312.23V312.007C134.482 312.007 134.259 310.446 132.252 304.87C132.029 303.978 132.252 303.309 132.475 303.086C132.029 303.309 131.36 303.086 130.468 301.302C129.799 299.741 129.576 299.295 129.353 298.626C128.907 297.734 128.684 296.619 126.007 291.489L123.331 286.137L122.885 285.245C122.216 285.022 121.324 284.576 120.878 282.345C120.209 279 118.648 276.77 118.648 276.77C117.086 273.87 116.417 272.532 115.302 269.41L113.518 264.95C112.403 263.611 111.511 262.273 110.619 260.935L110.396 260.489V259.151V258.928L112.626 253.129L113.964 249.338L114.187 249.115L118.648 244.209C122.439 237.964 124.892 235.065 129.576 229.043L130.022 228.82L136.043 226.367L143.626 221.237L145.41 216.108L154.108 213.209L154.554 214.77L155 214.993Z" fill="white"/>
<path d="M149.647 207.187C149.647 207.187 150.986 207.856 151.209 207.633C151.655 207.633 151.878 207.633 152.101 207.633C152.324 207.633 152.324 207.633 153.439 207.41L155.446 206.741C155.892 206.072 156.784 204.734 157.899 204.511C158.345 204.511 158.568 204.288 158.568 204.288C158.791 204.065 159.237 204.065 159.683 204.065C161.245 204.065 163.921 202.504 165.482 201.835L172.619 197.597L176.41 199.158L175.518 201.166L175.295 201.389L174.18 202.504C171.95 205.403 171.281 205.849 168.158 207.41L167.266 205.849C168.158 205.403 169.05 204.957 169.942 204.511L171.281 203.396C172.173 202.281 172.842 201.389 173.734 200.496V200.273L172.396 199.604C167.712 202.504 165.705 203.619 160.799 205.849C160.576 205.849 160.13 206.072 159.46 206.072C159.237 206.072 159.237 206.072 159.014 206.072C158.791 206.295 158.568 206.295 157.899 206.518C157.23 206.741 156.561 208.079 156.561 208.079L156.338 208.525H155.892C155.892 208.525 155.669 208.748 153.885 209.417C152.324 209.863 152.101 209.863 151.655 209.863H151.432C150.763 209.863 148.755 209.194 148.755 209.194L149.647 207.633V207.187Z" fill="white"/>
<path fill-rule="evenodd" clip-rule="evenodd" d="M144.518 356.611C144.518 356.611 140.281 358.842 139.166 361.518C138.05 364.194 130.022 369.324 130.022 369.324C130.022 369.324 130.022 377.13 137.381 376.014C141.396 375.345 147.417 372.669 151.878 370.439C151.878 366.424 152.101 359.957 151.655 356.165L144.741 356.388L144.518 356.611Z" fill="#46178F"/>
<path d="M144.964 357.281C144.518 357.504 140.95 359.511 140.058 361.741C138.942 364.417 132.475 368.655 130.914 369.77C131.137 371.331 131.806 375.791 137.158 375.122C139.165 374.899 141.619 374.007 144.072 373.115C146.525 372.223 148.755 371.108 150.986 369.993C150.986 367.763 150.986 364.863 150.986 361.964C150.986 360.18 150.986 358.396 150.763 357.058L144.964 357.281ZM138.496 361.072C139.389 358.842 142.065 357.058 143.403 356.165L142.957 355.496L152.324 355.273V356.165C152.547 357.727 152.547 359.957 152.547 362.187C152.547 365.309 152.547 368.432 152.547 370.662V371.108L152.101 371.331C149.871 372.446 147.194 373.784 144.741 374.899C142.065 376.014 139.612 376.906 137.381 377.129C129.13 378.245 129.13 369.547 129.13 369.547V369.101L129.576 368.878C129.576 368.878 137.604 363.748 138.496 361.295V361.072Z" fill="black"/>
<path fill-rule="evenodd" clip-rule="evenodd" d="M165.482 361.072C161.468 367.54 152.993 367.986 152.101 370.439C152.101 370.662 151.878 370.885 152.101 371.108C152.324 374.676 148.532 383.374 148.532 383.374C148.532 383.374 148.532 383.374 145.41 386.05C142.288 388.727 148.532 389.173 148.532 389.173C148.532 389.173 155.446 385.604 156.784 383.597C158.122 381.59 173.957 369.993 173.957 369.993L165.482 361.072Z" fill="#46178F"/>
<path d="M165.705 362.41C163.252 365.755 159.461 367.317 156.561 368.655C154.777 369.547 153.216 369.993 152.993 370.662V370.885C153.216 374.676 149.425 383.597 149.425 383.597L149.202 383.82L146.079 386.496C144.741 387.612 147.64 388.058 148.532 388.058C149.648 387.389 155 384.489 156.338 382.928C157.676 381.144 169.72 372.223 173.065 369.77L166.151 362.187L165.705 362.41ZM155.892 367.094C158.791 365.755 162.806 364.194 164.813 360.626L165.482 359.734L175.295 370.216L174.403 370.885C174.403 370.885 158.791 382.259 157.453 384.266C155.892 386.496 148.755 390.065 148.755 390.065H148.309C148.309 390.065 140.058 389.173 144.741 385.381L147.64 382.928C148.086 381.59 151.209 374.23 150.986 371.331V370.885C150.986 370.662 150.986 370.439 151.209 370.439C151.655 369.101 153.439 368.209 155.669 367.317L155.892 367.094Z" fill="black"/>
<path fill-rule="evenodd" clip-rule="evenodd" d="M144.295 356.388L151.209 356.165C151.209 355.719 151.209 355.273 150.986 355.05C150.54 355.05 150.094 354.827 149.871 354.604C148.086 352.597 146.748 341 146.748 341L137.381 346.576L144.072 356.388H144.295Z" fill="white"/>
<path d="M144.741 355.496L149.648 355.273L149.425 355.05C147.863 353.266 146.748 345.46 146.302 342.338L138.943 346.799L144.741 355.496ZM151.209 357.058L143.849 357.281L136.489 346.13L147.863 339.439L148.086 340.777C148.086 340.777 149.425 352.151 150.986 353.935C151.209 354.158 151.878 354.158 152.101 354.158L152.547 356.835H151.655L151.209 357.058Z" fill="black"/>
<path fill-rule="evenodd" clip-rule="evenodd" d="M151.432 356.165C151.878 359.957 151.878 366.648 151.655 370.439C151.878 370.439 151.878 370.216 152.101 370.216C153.216 367.763 161.691 367.094 165.482 360.849L165.036 360.403V353.043C161.245 353.935 153.885 355.496 150.986 355.05C150.986 355.496 150.986 355.719 151.209 356.165H151.432Z" fill="white"/>
<path d="M152.101 356.165C152.324 357.727 152.324 359.957 152.324 362.187C152.324 364.417 152.324 366.647 152.324 368.655C153.216 367.986 154.331 367.54 155.669 367.093C158.568 365.978 162.137 364.417 164.367 361.072L164.144 360.626V354.381C162.36 354.827 160.129 355.273 157.676 355.719C155.446 356.165 153.439 356.388 151.878 356.165H152.101ZM150.763 362.187C150.763 359.957 150.54 357.95 150.54 356.388L150.317 354.158L151.432 354.381C152.77 354.604 155.223 354.381 157.899 353.935C160.576 353.489 163.252 352.82 165.259 352.374L166.374 352.151L166.151 360.403L166.597 361.072L166.151 361.741C163.698 365.755 159.46 367.54 156.338 368.878C154.554 369.77 152.993 370.216 152.77 370.885L152.324 371.331L150.54 372.223V370.662C150.54 368.432 150.54 365.086 150.54 362.187H150.763Z" fill="black"/>
<path fill-rule="evenodd" clip-rule="evenodd" d="M142.288 201.389C168.827 196.036 191.13 177.748 191.13 177.748C191.13 177.748 191.13 177.525 190.906 177.079C189.122 172.396 179.309 147.194 178.194 142.957C177.302 139.165 171.504 126.676 169.273 122.216C168.827 121.101 168.381 120.432 168.381 120.432C168.381 120.432 168.381 132.029 167.043 136.489C165.705 140.95 159.014 133.144 155 126.899C151.878 122.439 152.101 114.856 152.547 111.288C152.101 111.288 151.878 111.288 151.432 111.065C146.971 109.281 146.748 115.748 143.18 114.856C142.511 119.986 139.835 134.928 132.921 138.273C126.23 141.396 121.547 131.583 119.986 126.899C119.763 126.899 119.317 127.122 118.647 127.122C115.971 129.576 112.626 133.144 111.511 135.82C110.619 138.05 111.288 141.842 112.403 145.856C113.964 151.432 116.863 157.676 118.424 160.13C120.878 164.144 138.942 195.367 142.511 201.165H142.734L142.288 201.389Z" fill="#FCFEC6"/>
<path d="M142.288 200.496C166.374 195.59 186.669 180.201 190.014 177.525V177.302C188.899 174.403 184.439 163.029 181.094 154.108C179.309 148.978 177.748 144.741 177.302 142.957C176.856 141.173 175.295 137.158 173.511 132.921C171.95 129.576 170.389 126.23 169.273 124C169.05 127.791 168.827 133.813 167.935 136.712C167.712 137.158 167.489 137.604 167.266 137.827C166.597 138.496 165.705 138.719 164.59 138.273C163.698 138.05 162.806 137.381 161.914 136.489C159.46 134.259 156.561 130.468 154.331 127.345C152.993 125.338 152.324 122.885 151.878 120.432C151.432 117.309 151.432 113.964 151.655 111.734L151.209 111.511C149.425 110.842 148.532 111.957 147.417 113.072C146.525 114.187 145.41 115.525 143.849 115.525C143.403 118.201 142.734 122.885 141.173 127.345C139.612 132.252 136.935 137.158 133.144 138.942C129.353 140.727 126.23 138.942 123.777 135.82C121.77 133.367 120.209 130.022 119.317 127.791H118.871C117.309 129.13 115.748 130.691 114.633 132.252C113.518 133.59 112.849 134.705 112.18 135.82C111.734 136.712 111.734 138.05 111.957 139.389C112.18 141.173 112.626 143.18 113.072 145.41C113.741 147.863 114.856 150.54 115.748 152.993C116.863 155.892 118.201 158.122 118.871 159.683C120.209 161.691 125.338 170.612 130.468 179.532L142.511 200.273L142.288 200.496ZM191.576 178.417C191.576 178.417 169.05 196.928 142.288 202.281L141.396 202.504L128.684 180.648C123.331 171.504 118.201 162.806 117.086 160.799C116.194 159.46 114.856 156.784 113.741 153.885C112.626 151.432 111.734 148.755 111.065 146.079C110.396 143.849 109.95 141.619 109.727 139.835C109.504 138.05 109.727 136.489 110.173 135.374C110.619 134.036 111.734 132.698 112.849 131.36C114.187 129.576 115.971 128.014 117.532 126.453L117.978 126.23L119.986 125.784L120.209 126.453C121.101 128.683 122.662 132.252 124.669 134.705C126.676 137.158 129.13 138.719 132.029 137.158C135.374 135.597 137.604 131.137 139.166 126.676C140.727 121.993 141.619 116.863 141.842 114.41L142.065 113.518L142.957 113.741C144.072 113.964 144.964 113.072 145.633 111.957C146.971 110.396 148.309 108.612 151.432 109.95L151.878 110.173H152.324H153.216V111.065C152.993 113.072 152.77 116.64 153.439 119.986C153.885 122.216 154.554 124.446 155.669 126.007C157.899 129.13 160.576 132.698 163.029 134.928C163.921 135.597 164.59 136.043 165.259 136.266C165.705 136.489 165.928 136.489 166.151 136.266C166.151 136.043 166.374 136.043 166.374 135.82C167.712 131.583 167.712 119.986 167.712 119.986L169.273 119.54L170.166 121.324C171.281 123.554 173.288 127.791 175.072 132.029C176.856 136.266 178.64 140.281 179.086 142.288C179.309 143.849 180.871 148.086 182.655 153.216C186 162.137 190.46 173.511 191.576 176.41L192.022 177.748L191.576 178.194V178.417Z" fill="black"/>
<path d="M123.777 148.755C123.777 148.755 139.612 175.295 175.295 170.835L175.518 172.619C138.719 177.302 122.216 149.871 122.216 149.647L123.777 148.755Z" fill="black"/>
<path d="M139.834 176.633C139.834 176.633 173.734 175.072 170.165 181.54C167.043 186.892 153.216 191.576 153.216 191.576L152.547 190.014C152.547 190.014 165.928 185.554 168.604 180.87C170.611 177.079 140.057 178.64 139.834 178.64V176.856V176.633Z" fill="black"/>
<path fill-rule="evenodd" clip-rule="evenodd" d="M118.201 127.345C113.072 128.237 97.0143 130.468 82.0719 127.122C80.2877 123.108 66.9064 99.0216 69.1366 95.8993C69.8057 94.7842 71.1438 92.1079 71.1438 92.1079C71.1438 92.1079 71.1438 88.3166 71.1438 84.7482C71.1438 81.1799 71.1438 80.7338 71.1438 80.7338H68.4675C66.9064 79.6187 62.2229 76.4964 58.2085 78.5036C53.5251 80.7338 55.3093 81.1799 55.7553 82.072C56.2014 82.964 53.5251 84.7482 53.5251 84.7482C53.5251 84.7482 50.4028 86.3094 51.9639 87.6475C53.5251 88.7626 51.5179 90.7698 51.5179 90.7698C51.5179 90.7698 48.6186 95.6763 58.4316 99.9137C59.3237 100.36 68.6906 132.252 72.0359 137.827C72.0359 137.827 76.2733 146.302 111.957 146.525C110.842 142.511 110.173 138.496 111.065 136.489C112.18 133.813 115.302 130.468 118.201 127.791V127.345Z" fill="white"/>
<path d="M115.525 128.684C112.626 129.13 108.612 129.576 103.705 129.799C97.0144 130.022 89.2086 129.799 81.8489 128.014H81.4029L81.1799 127.568C80.7338 126.676 80.0647 125.115 78.9496 122.885C74.4892 114.41 66.2374 98.3526 68.4676 95.4533C69.1367 94.5612 70.0288 92.777 70.2518 91.8849V81.6259H68.4676L68.0216 81.4029C67.3525 80.9569 65.7914 79.8418 64.0072 79.3957C62.223 78.7267 60.4388 78.5036 58.6547 79.3957C56.2014 80.5108 55.9784 80.9569 55.9784 80.9569L56.2014 81.1799C56.4245 81.4029 56.4245 81.4029 56.6475 81.6259C57.5396 83.1871 54.1942 85.4173 54.1942 85.4173C54.1942 85.4173 52.4101 86.3094 52.8561 86.7554C54.8633 88.3166 53.0791 90.5468 52.6331 90.9928C52.4101 91.4389 50.8489 95.2303 59.3237 98.7986C59.9928 99.0216 62 105.043 64.4532 112.403C67.5755 121.993 71.5899 134.036 73.3741 136.935C73.3741 136.935 77.1655 144.741 111.288 144.964C110.842 143.18 110.396 141.396 110.396 139.835C110.173 138.05 110.396 136.489 110.842 135.374C111.288 134.036 112.403 132.698 113.518 131.36C114.41 130.245 115.302 129.353 116.194 128.46L115.525 128.684ZM103.705 128.014C110.173 127.791 115.525 126.899 117.978 126.453L118.647 128.014C117.086 129.353 115.525 131.137 114.187 132.698C113.072 134.036 112.403 135.151 111.734 136.266C111.288 137.158 111.288 138.496 111.511 139.835C111.734 141.619 112.18 143.626 112.626 145.856L112.849 146.971H111.734C76.7194 146.748 71.3669 138.496 71.1439 138.05C69.1367 134.928 65.3453 122.885 62.223 113.072L58.2086 100.583C47.2806 95.8993 50.8489 90.1008 50.8489 90.1008V89.8777C50.8489 89.8777 51.964 88.7626 51.295 88.0936C49.0647 86.3094 52.1871 84.0792 52.8561 83.8562C52.8561 83.8562 54.8633 82.518 54.8633 82.295L54.6403 82.072C54.4173 81.849 54.4173 81.6259 54.1942 81.4029C53.7482 80.5108 53.9712 79.3957 57.7626 77.3885C59.9928 76.2734 62.446 76.7195 64.4532 77.3885C66.2374 78.0576 67.7986 78.9497 68.6906 79.6187H72.036V91.8849L71.8129 92.331C71.8129 92.331 70.4748 95.0072 69.8058 96.1223C68.2446 98.3526 76.2734 113.741 80.5108 121.77C81.4029 123.554 82.295 125.115 82.741 126.007C89.8777 127.568 97.4604 128.014 103.705 127.791V128.014Z" fill="black"/>
<path fill-rule="evenodd" clip-rule="evenodd" d="M152.324 111.288C152.101 114.856 151.655 122.439 154.777 126.899C159.014 132.921 165.482 140.727 166.82 136.489C168.158 132.029 168.158 120.432 168.158 120.432C168.158 120.432 168.381 121.101 169.05 122.216C190.014 105.043 194.029 90.1007 194.029 90.1007L193.36 52.6331L196.036 45.9424L193.36 43.7122L194.475 41.0359L191.799 37.4676H189.791V34.7913L187.784 34.5683L185.108 32.7841V31L178.863 34.7913L175.295 37.0216L174.849 44.3813L185.331 53.9712C185.331 53.9712 180.424 88.3165 178.417 88.3165C176.41 88.5395 171.727 101.921 163.252 103.259C155.446 104.374 155.892 111.734 152.547 111.511L152.324 111.288Z" fill="white"/>
<path d="M153.216 112.18C152.993 114.187 152.993 117.309 153.439 120.432C153.885 122.662 154.554 124.892 155.669 126.453C157.899 129.576 160.576 133.144 163.029 135.374C163.921 136.043 164.59 136.489 165.259 136.712C165.705 136.935 165.928 136.935 166.151 136.712C166.151 136.489 166.374 136.489 166.374 136.266C167.712 132.029 167.712 120.432 167.712 120.432L169.273 119.986L169.719 120.655C188.899 104.82 193.137 91.2158 193.583 89.8777L192.914 52.4101V51.964L195.367 45.9424L192.691 43.7122L193.806 41.036L191.576 38.1367H189.122V35.2374H188.007L187.561 35.0144L184.439 33.0072V32.3381L176.187 37.2446L175.741 43.7122L186.223 53.3022V53.7482C186.223 53.7482 181.094 88.7626 178.64 88.9856C178.417 88.9856 177.525 90.3237 176.41 92.1079C173.734 96.3453 169.496 103.036 163.475 103.928C159.46 104.597 157.676 107.05 156.561 109.058C155.669 110.619 154.777 111.734 153.439 111.957L153.216 112.18ZM151.655 120.655C150.986 117.086 151.209 113.518 151.432 111.288V110.396H152.324C153.216 110.396 153.885 109.504 154.777 108.165C156.338 105.935 158.122 102.813 163.029 102.144C168.381 101.252 172.173 95.2302 174.849 91.2158C176.187 88.9856 177.302 87.4245 178.417 87.2014C179.532 87.2014 183.77 57.9856 184.439 53.9712L174.18 44.6043L174.849 36.3525L178.863 33.8993L186.446 29.4388V32.3381L188.676 33.6763L191.353 33.8993V36.5755H192.691L196.036 40.8129L195.144 43.2662L197.82 45.4964L194.921 52.4101L195.59 89.8777V90.1007C195.59 90.1007 191.576 105.266 170.389 122.662L169.942 123.108C169.942 126.899 169.496 133.367 168.604 136.712C168.381 137.158 168.158 137.604 167.935 137.827C167.266 138.496 166.374 138.719 165.259 138.273C164.367 138.05 163.475 137.381 162.583 136.489C160.13 134.259 157.23 130.468 155 127.345C153.662 125.338 152.993 122.885 152.547 120.432L151.655 120.655Z" fill="black"/>
<path d="M178.194 86.5324C178.194 86.5324 186.446 86.9784 188.453 89.6547L187.115 90.7698C185.554 88.7626 178.194 88.3166 178.194 88.3166L178.417 86.5324H178.194Z" fill="black"/>
<path fill-rule="evenodd" clip-rule="evenodd" d="M132.475 138.496C139.389 135.151 142.065 119.986 142.734 115.079C142.511 115.079 142.288 114.856 142.065 114.856C138.719 113.518 136.489 103.705 135.597 99.4676C133.813 105.712 129.353 115.525 121.993 116.64C122.885 118.424 124.446 122.885 121.993 124.446C121.77 124.669 121.547 124.669 121.324 124.892C120.655 125.338 119.986 126.007 119.094 126.899C119.094 127.122 119.317 127.345 119.317 127.568C121.101 132.029 125.784 142.065 132.252 138.942L132.475 138.496Z" fill="white"/>
<path d="M132.252 137.604C135.597 136.043 137.827 131.583 139.389 127.122C140.727 122.885 141.619 118.201 142.065 115.525C140.504 114.856 139.166 112.849 138.273 110.396C137.381 107.942 136.489 105.043 135.82 102.59C134.705 105.712 132.921 109.058 130.914 111.734C128.907 114.187 126.453 116.194 123.777 116.863C124.223 117.755 124.446 118.871 124.669 120.209C124.892 121.993 124.669 123.777 122.885 124.669L122.216 125.115L120.432 126.676V126.899C121.324 129.13 122.885 132.698 124.892 135.151C126.899 137.604 129.353 139.166 132.252 137.604ZM140.95 127.568C139.389 132.475 136.712 137.381 132.921 139.166C129.13 140.95 126.007 139.166 123.554 136.043C121.324 133.367 119.54 129.576 118.648 127.122L118.201 125.784C119.317 124.669 120.432 123.777 121.77 122.885C122.662 122.439 122.885 121.324 122.662 119.986C122.439 118.648 121.77 117.086 121.547 116.194L121.101 115.079L122.216 114.856C125.115 114.41 127.345 112.626 129.353 110.173C132.029 106.604 134.036 102.144 135.151 98.5756H136.935C137.381 101.029 138.496 105.712 139.835 109.281C140.727 111.288 141.619 113.072 142.734 113.518C143.18 113.741 143.626 113.741 144.072 113.964V114.633C143.626 117.309 142.957 122.216 141.173 127.122L140.95 127.568Z" fill="black"/>
<path d="M133.144 117.978C133.144 117.978 133.144 122.885 136.266 121.547L141.842 119.317V121.101C141.842 121.101 141.173 121.547 136.935 123.108C131.36 125.338 131.36 117.978 131.36 117.755H133.144V117.978Z" fill="black"/>
<path d="M179.309 34.3453L183.77 39.0288C183.77 39.0288 185.331 42.5971 183.993 43.2662V43.4892C183.993 43.7122 183.77 43.9353 183.77 44.1583C183.324 44.8274 182.655 44.8274 181.317 43.7122C180.201 42.5971 179.532 42.3741 179.532 42.1511L177.748 40.813L178.863 39.4748L180.647 41.036C180.647 41.036 180.87 41.036 182.432 42.5971C182.655 42.8202 182.209 43.2662 182.432 43.0432C182.655 42.5971 182.878 42.1511 183.324 41.9281C183.547 41.9281 182.655 40.3669 182.432 40.1439L178.194 35.4604L179.532 34.3453H179.309Z" fill="black"/>
<path d="M81.626 128.683C81.626 128.683 77.3886 131.583 76.9425 133.813L75.1584 133.367C75.8274 130.245 80.5109 127.345 80.5109 127.345L81.626 128.683Z" fill="black"/>
<path d="M68.9136 81.4029C68.9136 81.4029 66.9064 81.1799 66.2373 83.1871C65.3452 85.8633 65.1222 86.7554 65.1222 86.7554C65.1222 86.7554 65.1222 88.0935 66.2373 87.8705C68.0215 87.2014 68.0215 84.7482 68.0215 84.7482H69.8057C69.8057 84.7482 69.8057 88.5396 66.9064 89.4317C63.3381 90.5468 63.5611 86.7554 63.5611 86.7554C63.5611 86.7554 63.7841 85.6403 64.6762 82.741C65.7913 79.3957 69.1366 79.8417 69.1366 79.8417V81.6259L68.9136 81.4029Z" fill="black"/>
<path d="M118.87 97.0144C119.486 97.0144 119.986 96.3154 119.986 95.4532C119.986 94.591 119.486 93.8921 118.87 93.8921C118.255 93.8921 117.755 94.591 117.755 95.4532C117.755 96.3154 118.255 97.0144 118.87 97.0144Z" fill="black"/>
<path d="M118.87 97.0144C119.363 97.0144 119.763 96.4153 119.763 95.6762C119.763 94.9372 119.363 94.3381 118.87 94.3381C118.378 94.3381 117.978 94.9372 117.978 95.6762C117.978 96.4153 118.378 97.0144 118.87 97.0144Z" fill="white"/>
<path d="M118.871 97.0144C119.117 97.0144 119.317 96.7149 119.317 96.3453C119.317 95.9758 119.117 95.6763 118.871 95.6763C118.624 95.6763 118.425 95.9758 118.425 96.3453C118.425 96.7149 118.624 97.0144 118.871 97.0144Z" fill="black"/>
<path d="M109.058 100.583C109.673 100.583 110.173 99.8838 110.173 99.0216C110.173 98.1594 109.673 97.4604 109.058 97.4604C108.442 97.4604 107.942 98.1594 107.942 99.0216C107.942 99.8838 108.442 100.583 109.058 100.583Z" fill="black"/>
<path d="M109.058 100.583C109.55 100.583 109.95 99.9836 109.95 99.2446C109.95 98.5056 109.55 97.9065 109.058 97.9065C108.565 97.9065 108.166 98.5056 108.166 99.2446C108.166 99.9836 108.565 100.583 109.058 100.583Z" fill="white"/>
<path d="M109.058 100.583C109.304 100.583 109.504 100.283 109.504 99.9137C109.504 99.5442 109.304 99.2446 109.058 99.2446C108.811 99.2446 108.612 99.5442 108.612 99.9137C108.612 100.283 108.811 100.583 109.058 100.583Z" fill="black"/>
<path d="M183.77 24.3094L182.878 15.3885L190.907 12.4892L188.453 0.446043L190.014 0L192.914 13.6043L184.885 16.5036L185.554 24.3094H183.77Z" fill="black"/>
<path d="M191.799 24.9784L194.252 19.4029L199.604 20.518L202.281 13.3813L203.842 13.8273L200.719 22.5252L195.367 21.4101L193.36 25.8705L191.799 24.9784Z" fill="black"/>
<path d="M194.921 30.1079L202.504 26.9856L206.741 32.7841L216.108 27.6546L217 29.2158L206.295 35.0143L201.834 29.2158L195.59 31.669L194.921 30.1079Z" fill="black"/>
<path d="M59.7698 73.3741L61.7769 65.7914L54.1942 62L58.6546 48.8417L60.4388 49.5108L56.2014 61.1079L63.7841 64.8993L61.5539 73.8202L59.7698 73.3741Z" fill="black"/>
<path d="M51.964 74.0431L50.6259 69.3597L45.0503 69.8057L43.2662 60.6618L44.8273 60.4388L46.3885 68.0215L51.741 67.5755L53.7482 73.3741L51.964 74.0431Z" fill="black"/>
<path d="M48.8417 79.6187L43.0431 76.0503L37.9136 81.4029L28.1007 74.0431L29.2158 72.705L37.6906 79.1726L42.8201 73.8201L49.7338 78.0575L48.8417 79.6187Z" fill="black"/>
</svg>
