<svg width="327" height="183" viewBox="0 0 327 183" fill="none" xmlns="http://www.w3.org/2000/svg">
<path fill-rule="evenodd" clip-rule="evenodd" d="M206.689 25.4673C197.797 39.4941 181.781 48.8544 163.5 48.8544C145.219 48.8544 129.203 39.495 120.311 25.4682C119.879 24.785 119.463 24.0913 119.064 23.3871C110.172 9.36026 94.1554 0 75.8742 0H34.8192C15.6688 0 0 15.1283 0 33.6182V149.382C0 167.872 15.6688 183 34.8192 183H292.181C311.331 183 327 167.872 327 149.382V33.6182C327 15.1283 311.331 0 292.181 0H251.126C232.846 0 216.829 9.35939 207.937 23.3862C207.538 24.0904 207.122 24.7841 206.69 25.4673H206.689Z" fill="url(#paint0_linear_120_152)"/>
<defs>
<linearGradient id="paint0_linear_120_152" x1="1.49725e-05" y1="170.309" x2="436.309" y2="-93.2614" gradientUnits="userSpaceOnUse">
<stop offset="0.304625" stop-color="#46178F"/>
<stop offset="1" stop-color="#8567B4"/>
</linearGradient>
</defs>
</svg>
