<svg width="78" height="23" viewBox="0 0 78 23" fill="none" xmlns="http://www.w3.org/2000/svg">
<path d="M1 11.5C1 5.70101 5.70101 1 11.5 1H63.6263C66.0559 1 66.866 4.25136 64.7203 5.39122C62.0697 6.79938 61.6197 10.4111 63.8437 12.4267L66.0004 14.3812C68.9652 17.068 67.062 22 63.0565 22H62.9482H62.84H62.7318H62.6238H62.5159H62.408H62.3003H62.1926H62.0851H61.9776H61.8703H61.763H61.6558H61.5488H61.4418H61.3349H61.2281H61.1214H61.0148H60.9082H60.8018H60.6955H60.5892H60.4831H60.377H60.271H60.1651H60.0593H59.9536H59.848H59.7424H59.637H59.5316H59.4263H59.3211H59.216H59.111H59.006H58.9012H58.7964H58.6917H58.5871H58.4826H58.3781H58.2737H58.1695H58.0653H57.9611H57.8571H57.7531H57.6492H57.5454H57.4417H57.338H57.2345H57.131H57.0275H56.9242H56.8209H56.7177H56.6146H56.5116H56.4086H56.3057H56.2029H56.1001H55.9974H55.8948H55.7923H55.6898H55.5874H55.4851H55.3829H55.2807H55.1786H55.0765H54.9746H54.8726H54.7708H54.669H54.5673H54.4657H54.3641H54.2626H54.1612H54.0598H53.9585H53.8572H53.756H53.6549H53.5538H53.4528H53.3519H53.251H53.1502H53.0495H52.9488H52.8481H52.7476H52.647H52.5466H52.4462H52.3458H52.2456H52.1453H52.0452H51.9451H51.845H51.745H51.645H51.5452H51.4453H51.3455H51.2458H51.1461H51.0465H50.9469H50.8474H50.7479H50.6485H50.5491H50.4498H50.3506H50.2513H50.1522H50.0531H49.954H49.855H49.756H49.657H49.5582H49.4593H49.3605H49.2618H49.1631H49.0644H48.9658H48.8672H48.7687H48.6702H48.5718H48.4734H48.375H48.2767H48.1784H48.0802H47.982H47.8839H47.7857H47.6877H47.5896H47.4916H47.3937H47.2957H47.1978H47.1H47.0022H46.9044H46.8066H46.7089H46.6113H46.5136H46.416H46.3184H46.2209H46.1234H46.0259H45.9284H45.831H45.7336H45.6363H45.539H45.4417H45.3444H45.2472H45.1499H45.0528H44.9556H44.8585H44.7614H44.6643H44.5673H44.4702H44.3732H44.2763H44.1793H44.0824H43.9855H43.8886H43.7918H43.6949H43.5981H43.5013H43.4045H43.3078H43.2111H43.1144H43.0177H42.921H42.8243H42.7277H42.6311H42.5345H42.4379H42.3414H42.2448H42.1483H42.0518H41.9552H41.8588H41.7623H41.6658H41.5694H41.4729H41.3765H41.2801H41.1837H41.0873H40.9909H40.8946H40.7982H40.7019H40.6055H40.5092H40.4129H40.3166H40.2203H40.124H40.0277H39.9314H39.8351H39.7389H39.6426H39.5463H39.4501H39.3538H39.2576H39.1613H39.0651H38.9688H38.8726H38.7764H38.6801H38.5839H38.4877H38.3914H38.2952H38.199H38.1027H38.0065H37.9102H37.814H37.7177H37.6215H37.5252H37.429H37.3327H37.2365H37.1402H37.0439H36.9476H36.8513H36.755H36.6587H36.5624H36.4661H36.3698H36.2734H36.1771H36.0807H35.9843H35.888H35.7916H35.6952H35.5988H35.5023H35.4059H35.3094H35.213H35.1165H35.02H34.9235H34.827H34.7304H34.6339H34.5373H34.4407H34.3441H34.2475H34.1509H34.0542H33.9575H33.8608H33.7641H33.6674H33.5706H33.4739H33.3771H33.2803H33.1834H33.0866H32.9897H32.8928H32.7958H32.6989H32.6019H32.5049H32.4079H32.3108H32.2137H32.1166H32.0195H31.9223H31.8251H31.7279H31.6307H31.5334H31.4361H31.3388H31.2414H31.144H31.0466H30.9491H30.8516H30.7541H30.6566H30.559H30.4614H30.3637H30.266H30.1683H30.0705H29.9728H29.8749H29.7771H29.6792H29.5812H29.4833H29.3852H29.2872H29.1891H29.091H28.9928H28.8946H28.7964H28.6981H28.5998H28.5014H28.403H28.3045H28.206H28.1075H28.0089H27.9103H27.8116H27.7129H27.6141H27.5153H27.4165H27.3176H27.2186H27.1197H27.0206H26.9215H26.8224H26.7232H26.624H26.5247H26.4254H26.326H26.2266H26.1271H26.0275H25.928H25.8283H25.7286H25.6289H25.5291H25.4292H25.3293H25.2294H25.1294H25.0293H24.9292H24.829H24.7287H24.6284H24.5281H24.4277H24.3272H24.2267H24.1261H24.0254H23.9247H23.8239H23.7231H23.6222H23.5213H23.4203H23.3192H23.218H23.1168H23.0156H22.9142H22.8128H22.7114H22.6099H22.5083H22.4066H22.3049H22.2031H22.1012H21.9993H21.8973H21.7952H21.6931H21.5909H21.4886H21.3863H21.2839H21.1814H21.0789H20.9762H20.8735H20.7708H20.6679H20.565H20.462H20.359H20.2558H20.1526H20.0493H19.9459H19.8425H19.739H19.6354H19.5317H19.428H19.3241H19.2202H19.1162H19.0122H18.908H18.8038H18.6995H18.5951H18.4907H18.3861H18.2815H18.1768H18.072H17.9671H17.8621H17.7571H17.6519H17.5467H17.4414H17.336H17.2305H17.125H17.0193H16.9136H16.8077H16.7018H16.5958H16.4897H16.3835H16.2773H16.1709H16.0645H15.9579H15.8513H15.7445H15.6377H15.5308H15.4238H15.3167H15.2095H15.1022H14.9948H14.8873H14.7798H14.6721H14.5643H14.4565H14.3485H14.2404H14.1323H14.024H13.9157H13.8072H13.6987H13.59H13.4813H13.3724H13.2635H13.1544H13.0452H12.936H12.8266H12.7171H12.6076H12.4979H12.3881H12.2782H12.1682H12.0581H11.9479H11.8376H11.7272H11.6167H11.506C5.70636 22 1 17.2983 1 11.5Z" stroke="url(#paint0_linear_146_195)" stroke-width="2"/>
<path d="M66.416 16.1115L66.3388 16.1707C66.399 16.1352 66.4361 16.1115 66.416 16.1115ZM65.3707 15.1022C65.446 15.0579 65.5212 15.0023 65.5933 14.9368L65.8421 14.7915C66.4717 14.5767 66.8205 15.1048 67.1713 15.6349C67.2543 15.7606 66.805 15.8879 67.0714 15.8879C67.2558 15.8879 67.4392 15.9064 67.6175 15.942H67.6206C67.7952 15.977 67.9709 16.0311 68.1445 16.1032L68.3176 16.2068C68.3928 16.2671 68.4835 16.3227 68.5876 16.3721C68.6813 16.417 68.7813 16.4515 68.8838 16.4736L69.4484 16.5957V22.5487L68.008 22.0351C67.7112 21.9305 67.3563 21.8553 67.0147 21.8259H67.0116C66.719 21.8007 66.4521 21.8089 66.2677 21.8615L65.8998 21.9733L64.3878 22.4519V16.5731L64.8514 16.5494L64.5212 16.5365V16.5339C64.5454 15.9672 64.5707 15.4046 65.1193 15.2171C65.2048 15.1877 65.2883 15.1491 65.3671 15.1027H65.3702L65.3707 15.1022ZM65.9967 16.3871C65.8638 16.4582 65.7236 16.5195 65.5789 16.5695L65.5588 16.5767L65.7458 16.5839C65.8519 16.5705 65.9488 16.5648 65.9477 16.5916V16.5947C65.9338 16.9203 65.9194 17.2475 65.82 17.4999V20.5024L65.8772 20.4859C66.2368 20.3834 66.6829 20.3607 67.1353 20.3999C67.4279 20.4256 67.7308 20.4772 68.0183 20.5488V17.6838L67.9735 17.6632C67.821 17.5906 67.6721 17.5004 67.5278 17.3943C67.4706 17.3752 67.4083 17.3582 67.3413 17.3453C67.2563 17.3283 67.1662 17.3196 67.0719 17.3196C66.5732 17.3196 66.2759 16.8703 65.9812 16.4237C65.9756 16.4154 65.9823 16.4031 65.9972 16.3876L65.9967 16.3871ZM65.5583 16.5762L65.5552 16.5772L65.7453 16.5834L65.5583 16.5762ZM65.5552 16.5772C65.3594 16.6462 65.5552 16.6076 65.7334 16.5849L65.5552 16.5772ZM65.0678 16.537C65.5155 16.5138 64.8648 16.536 64.6139 16.5365L64.8684 16.5473L65.0678 16.537Z" fill="#46178F"/>
<path d="M64.3883 20.9573V17.9027C64.0153 17.8203 63.6696 17.6632 63.3672 17.4478C63.0199 17.2005 62.7309 16.8744 62.5259 16.4952L62.3528 21.5667L62.396 21.5631C62.5187 21.5513 63.497 21.2417 64.3883 20.9573ZM65.8195 17.2505V21.9959L65.1374 22.2138C64.1127 22.541 62.8164 22.9552 62.53 22.983C62.4182 22.9938 62.2868 22.9995 62.1544 22.9953H62.1513C61.9458 22.9881 61.7278 22.9552 61.5377 22.8774C61.1972 22.7367 60.9545 22.4874 60.9154 22.0773C60.9118 22.0376 60.9102 21.9964 60.9118 21.9531L61.2091 13.2557L62.1972 13.741C62.529 13.9038 62.8242 14.13 63.0653 14.4025C63.3048 14.6735 63.4939 14.993 63.615 15.3443L63.6402 15.434L63.6613 15.5246H63.6644L63.6912 15.6127L63.6887 15.6138C63.7824 15.8853 63.9617 16.1197 64.194 16.2856C64.4176 16.4447 64.6933 16.5385 64.9926 16.5385V16.5411C65.2662 16.5375 65.5444 16.5215 65.8184 16.5117V17.2515L65.8195 17.2505Z" fill="#46178F"/>
<path d="M69.449 17.9228V21.0299C69.7514 21.135 70.076 21.2453 70.3779 21.3396C70.7962 21.4704 71.1502 21.5688 71.2717 21.5688C71.3361 21.5688 71.3938 21.5667 71.4423 21.5621L71.4201 20.9356L71.2589 17.014L71.1646 17.113C70.7164 17.5612 70.1162 17.8589 69.4485 17.9228H69.449ZM68.0178 21.5353V16.284L68.8844 16.4736C68.9395 16.4855 68.9879 16.4942 69.0271 16.4983H69.0302C69.0688 16.5025 69.1188 16.5045 69.1796 16.5045C69.5598 16.5045 69.9044 16.35 70.1538 16.1011C70.4026 15.8523 70.5572 15.5076 70.5572 15.1269H70.5603V15.0996L70.6355 14.7781C70.7303 14.5885 70.8457 14.4123 70.9765 14.2532C71.1131 14.0873 71.264 13.9399 71.4232 13.8158L72.5154 12.9657C72.6282 15.6055 72.7395 18.2453 72.8467 20.8852L72.8791 21.7775C72.8791 22.237 72.655 22.5616 72.2851 22.7718C72.0074 22.9299 71.6499 23 71.2728 23C70.9915 23 70.4943 22.8728 69.9539 22.7038C69.4655 22.5508 68.9225 22.3601 68.4964 22.2087L68.0183 22.0387V21.5353H68.0178Z" fill="#46178F"/>
<path fill-rule="evenodd" clip-rule="evenodd" d="M66.072 15.468C65.8649 15.6545 65.6196 15.8008 65.3497 15.893C65.1704 15.9543 65.3018 17.2402 65.1039 17.2505V21.4766C65.5393 21.3375 65.9035 21.2221 66.0725 21.1737C66.6361 21.0124 67.5614 21.1201 68.2461 21.3617C68.3738 21.4066 68.5418 21.4674 68.7334 21.5354V17.1722C68.4135 17.1027 68.1209 16.96 67.8736 16.7627C67.6263 16.6607 67.3553 16.6035 67.0714 16.6035C66.8339 16.6035 66.2842 15.3954 66.0715 15.468H66.072Z" fill="#FCFEC6"/>
<path fill-rule="evenodd" clip-rule="evenodd" d="M65.1039 21.4767V17.2506C65.0673 17.2526 65.0302 17.2537 64.9936 17.2537C64.0776 17.2537 63.2987 16.6648 63.0153 15.8446C62.9854 15.7576 62.9607 15.6679 62.9422 15.5762C62.7608 15.0523 62.3775 14.6231 61.885 14.381L61.7742 17.6189L61.7418 18.5628L61.6253 21.9779C61.615 22.284 62.1416 22.3041 62.4635 22.2731C62.6887 22.2515 64.09 21.8007 65.1044 21.4767H65.1039Z" fill="#8567B4"/>
<path fill-rule="evenodd" clip-rule="evenodd" d="M68.7334 17.1723V21.5354C69.5716 21.8337 70.8683 22.285 71.2722 22.285C71.7684 22.285 72.1635 22.1402 72.1635 21.778C72.1635 21.6245 72.1089 20.2593 72.0455 18.7348C72.0332 18.4314 72.0203 18.1218 72.0074 17.8142C71.9425 16.2686 71.8786 14.773 71.8621 14.381C71.6159 14.5721 71.4139 14.8168 71.2728 15.0976C71.2728 15.1074 71.2728 15.1177 71.2728 15.128C71.2728 16.2836 70.3356 17.2207 69.1801 17.2207C69.0271 17.2207 68.8777 17.2042 68.7344 17.1728L68.7334 17.1723Z" fill="#8567B4"/>
<path fill-rule="evenodd" clip-rule="evenodd" d="M57.8073 10.0359C57.8073 4.9391 61.9391 0.806785 67.0364 0.806785C72.1331 0.806785 76.2654 4.93859 76.2654 10.0359C76.2654 13.3027 74.5679 16.1733 72.0069 17.8136C72.0198 18.1212 72.0327 18.4308 72.045 18.7343C75.0496 17.0007 77.0717 13.754 77.0717 10.0359C77.0717 4.49347 72.5788 0 67.0359 0C61.4935 0 57 4.49295 57 10.0359C57 13.6349 58.8949 16.792 61.7408 18.5627L61.7732 17.6189C59.3755 15.9523 57.8063 13.1769 57.8063 10.0359H57.8073Z" fill="#46178F"/>
<path fill-rule="evenodd" clip-rule="evenodd" d="M67.0363 0.807251C61.9391 0.807251 57.8073 4.93905 57.8073 10.0363C57.8073 13.1774 59.3765 15.9522 61.7742 17.6194L61.885 14.3814C61.6454 14.2639 61.3806 14.1908 61.1008 14.1728C60.4033 13.8332 59.9226 13.1177 59.9226 12.2897C59.9226 12.0208 59.9736 11.7632 60.0663 11.5268C60.1472 11.3196 60.2606 11.129 60.3992 10.96C60.4919 10.7236 60.5429 10.466 60.5429 10.1971C60.5429 9.92761 60.4919 9.67002 60.3992 9.43406C60.1014 9.0724 59.9226 8.60925 59.9226 8.10436C59.9226 7.2981 60.3791 6.59796 61.0473 6.24866C61.2265 6.15541 61.4208 6.08637 61.6253 6.04825C62.089 5.80611 62.4506 5.39499 62.6284 4.89681C62.6485 4.76028 62.682 4.62788 62.7273 4.50114C63.0168 3.6923 63.7901 3.11323 64.6984 3.11323C65.0328 3.11323 65.3491 3.19154 65.6293 3.33115C65.7344 3.3837 65.8344 3.4445 65.9281 3.5125C66.2084 3.65212 66.5247 3.73042 66.8591 3.73042C67.143 3.73042 67.4134 3.67375 67.6602 3.57175C67.7906 3.47747 67.9322 3.39813 68.0827 3.33579C68.3294 3.23378 68.5999 3.17711 68.8838 3.17711C69.7416 3.17711 70.4788 3.69333 70.8018 4.43159C70.8672 4.58151 70.9157 4.73967 70.945 4.90556C71.1887 5.46248 71.6684 5.89369 72.2572 6.07143C73.1722 6.29451 73.8517 7.12036 73.8517 8.10436C73.8517 8.40111 73.7899 8.68343 73.6781 8.93948C73.3453 9.3099 73.1428 9.80036 73.1428 10.3377C73.1428 10.9472 73.4035 11.4958 73.8193 11.8781C73.8404 11.9966 73.8517 12.1192 73.8517 12.2439C73.8517 13.3078 73.0388 14.1831 72.0001 14.2815C71.9522 14.3129 71.9059 14.3459 71.861 14.3809C71.878 14.7729 71.9419 16.2685 72.0063 17.8141C74.5673 16.1743 76.2649 13.3031 76.2649 10.0363C76.2649 4.93957 72.1331 0.807251 67.0358 0.807251H67.0363Z" fill="#8567B4"/>
<path fill-rule="evenodd" clip-rule="evenodd" d="M65.5222 17.6797C65.7556 17.4695 66.0317 17.3046 66.3352 17.2005C66.5747 17.1186 66.8313 17.0743 67.0987 17.0743C67.4186 17.0743 67.7236 17.1382 68.0018 17.2531C68.1945 17.4076 68.4129 17.5318 68.6489 17.6199C68.7529 17.6585 68.8601 17.6905 68.9703 17.7142C69.1321 17.7492 69.3871 17.7755 69.5597 17.7755C70.8611 17.7755 71.9167 16.7199 71.9167 15.4185C71.9167 15.4072 71.9162 15.3958 71.9162 15.3845C71.9239 15.369 71.9322 15.3531 71.9404 15.3376C71.9038 14.4788 71.8745 13.7951 71.8642 13.5479C71.6179 13.739 71.4159 13.9837 71.2748 14.2645C71.2748 14.2743 71.2748 14.2846 71.2748 14.2949C71.2748 15.4504 70.3377 16.3876 69.1821 16.3876C69.0291 16.3876 68.8797 16.3711 68.7365 16.3397C68.4165 16.2701 68.1239 16.1274 67.8766 15.9301C67.6293 15.8281 67.3583 15.7709 67.0745 15.7709C66.837 15.7709 66.6092 15.8106 66.3965 15.8832C66.1265 15.9759 65.8818 16.1217 65.6742 16.3082C65.4949 16.3695 65.3043 16.4077 65.1064 16.418C65.0699 16.42 65.0328 16.4211 64.9962 16.4211C64.0802 16.4211 63.3012 15.8322 63.0179 15.012C62.988 14.9249 62.9633 14.8353 62.9447 14.7436C62.7711 14.2413 62.4115 13.8261 61.9483 13.5798C61.9272 13.5999 61.9056 13.62 61.8845 13.6401L61.8412 14.9054C62.1549 15.1748 62.3976 15.5251 62.5357 15.9239C62.5568 16.0269 62.5841 16.1279 62.6181 16.2263C62.937 17.1495 63.7273 17.8054 64.7592 17.8054C64.8009 17.8054 64.8421 17.8043 64.8834 17.8018C64.9292 17.7992 64.9751 17.7956 65.0199 17.7904C65.1935 17.7714 65.362 17.7332 65.5227 17.6786L65.5222 17.6797Z" fill="#614C83" fill-opacity="0.701961"/>
<path d="M67.0363 15.2953C69.9411 15.2953 72.2959 12.9406 72.2959 10.0358C72.2959 7.13102 69.9411 4.77625 67.0363 4.77625C64.1316 4.77625 61.7768 7.13102 61.7768 10.0358C61.7768 12.9406 64.1316 15.2953 67.0363 15.2953Z" fill="#46178F"/>
<path fill-rule="evenodd" clip-rule="evenodd" d="M64.3522 8.97922L65.9282 8.93904L66.5696 7.50424C66.8452 7.01687 67.1182 7.4146 67.2352 7.74484L67.6602 8.93955L69.3707 8.97304C69.8266 9.00653 69.9528 9.53768 69.5149 9.90295L68.4845 10.7458L68.8575 12.4062C68.9492 12.8452 68.5886 13.0811 68.2924 12.8256L67.0415 11.8782L65.432 12.8859C65.073 12.976 64.9854 12.6999 65.0467 12.4099L65.3517 10.9601L64.1801 9.61548C63.955 9.35685 63.9638 9.05496 64.3512 8.97974L64.3522 8.97922Z" fill="#FCFEC6"/>
<path fill-rule="evenodd" clip-rule="evenodd" d="M61.7768 10.0358C61.7768 7.13119 64.1317 4.77627 67.0363 4.77627C69.941 4.77627 72.2959 7.13119 72.2959 10.0358C72.2959 12.9404 69.941 15.2954 67.0363 15.2954C64.1317 15.2954 61.7768 12.9404 61.7768 10.0358ZM63.0153 15.844C63.2987 16.6637 64.0776 17.2531 64.9936 17.2531C65.0307 17.2531 65.0673 17.252 65.1039 17.25C65.3017 17.2397 65.4923 17.2021 65.6716 17.1402C65.8787 16.9532 66.124 16.8074 66.3939 16.7152C66.6067 16.6426 66.8349 16.6029 67.0719 16.6029C67.3558 16.6029 67.6268 16.6596 67.874 16.7621C68.2316 17.048 68.686 17.2191 69.1795 17.2191C70.3351 17.2191 71.2722 16.2819 71.2722 15.1264C71.2722 15.1161 71.2722 15.1063 71.2722 15.096C71.4134 14.8152 71.6158 14.5705 71.8616 14.3794C71.9064 14.3443 71.9533 14.3114 72.0007 14.2799C73.0393 14.1815 73.8523 13.3067 73.8523 12.2424C73.8523 12.1172 73.8409 11.9951 73.8198 11.8766C73.4041 11.4938 73.1434 10.9456 73.1434 10.3362C73.1434 9.79883 73.3458 9.30888 73.6787 8.93795C73.7899 8.6819 73.8523 8.39958 73.8523 8.10283C73.8523 7.11882 73.1727 6.29298 72.2578 6.0699C71.6689 5.89216 71.1893 5.46147 70.9456 4.90403C70.8802 4.75411 70.8317 4.59595 70.8024 4.43006C70.4788 3.69179 69.7416 3.17558 68.8843 3.17558C68.6005 3.17558 68.33 3.23225 68.0832 3.33425C67.9529 3.42853 67.8112 3.50787 67.6608 3.57021C67.414 3.67222 67.1435 3.72889 66.8596 3.72889C66.5253 3.72889 66.209 3.65058 65.9287 3.51096C65.8236 3.45842 65.7236 3.39762 65.6299 3.32962C65.3496 3.19 65.0333 3.11169 64.6989 3.11169C63.7907 3.11169 63.0174 3.69077 62.7278 4.49961C62.7077 4.63614 62.6743 4.76854 62.6289 4.89527C62.4507 5.39346 62.089 5.80406 61.6258 6.04672C61.4466 6.13996 61.2529 6.209 61.0478 6.24712C60.3796 6.59642 59.9232 7.29656 59.9232 8.10283C59.9232 8.60771 60.1024 9.07087 60.3997 9.43253C60.4924 9.669 60.5434 9.92659 60.5434 10.1955C60.5434 10.465 60.4924 10.722 60.3997 10.9585C60.3188 11.1656 60.2055 11.3562 60.0669 11.5252C59.9742 11.7617 59.9232 12.0193 59.9232 12.2882C59.9232 13.1161 60.4043 13.8317 61.1014 14.1712C61.3811 14.1893 61.6459 14.2624 61.8855 14.3799C62.378 14.6215 62.7618 15.0512 62.9427 15.5751C62.9731 15.6622 62.9973 15.7518 63.0158 15.8435L63.0153 15.844Z" fill="#FCFEC6"/>
<path d="M66.8905 11.4413C67.3769 11.3949 67.6345 10.9941 67.6345 10.8797C67.6345 10.8653 67.6236 10.8297 67.6056 10.8297C67.5768 10.8297 67.3408 11.2373 66.9652 11.2373C66.6968 11.2373 66.4253 11.0013 66.4253 10.7293C66.4253 10.296 66.9225 10.3429 66.9369 10.2641C66.9477 10.2249 66.9585 10.1925 66.9585 10.1641C66.9585 10.0353 66.8586 10.0534 66.7154 10.0425C66.6401 9.98896 66.6046 9.92816 66.6046 9.85294C66.6046 9.6953 66.855 9.64532 66.9657 9.64532C67.0621 9.64532 67.3022 9.65254 67.4454 9.84213C67.4454 9.84573 67.4454 9.84573 67.449 9.84573C67.4706 9.84573 67.517 9.69169 67.517 9.62059C67.517 9.58144 67.5067 9.52374 67.381 9.43822C67.3562 9.41349 67.1986 9.34497 67.009 9.34497C66.8086 9.34497 66.3867 9.46656 66.3867 9.8174C66.3867 9.96062 66.4619 10.0425 66.5299 10.0966C66.3403 10.1827 66.1399 10.3753 66.1399 10.6834C66.1399 11.1023 66.4907 11.4418 66.8915 11.4418L66.8905 11.4413Z" fill="#46178F"/>
<path d="M7.07633 16V7.36H12.6563V8.716H8.52233V10.846H11.9363V12.202H8.52233V14.644H12.6563V16H7.07633ZM13.3759 16L15.7459 12.724L13.4239 9.52H15.1279L16.5859 11.59L18.0199 9.52H19.7239L17.4019 12.724L19.7839 16H18.0799L16.5859 13.858L15.0799 16H13.3759ZM23.8544 16.18C23.2224 16.18 22.6924 16.03 22.2644 15.73C21.8364 15.43 21.5144 15.022 21.2984 14.506C21.0824 13.986 20.9744 13.404 20.9744 12.76C20.9744 12.108 21.0824 11.524 21.2984 11.008C21.5144 10.492 21.8304 10.086 22.2464 9.79C22.6664 9.49 23.1844 9.34 23.8004 9.34C24.4124 9.34 24.9424 9.49 25.3904 9.79C25.8424 10.086 26.1924 10.492 26.4404 11.008C26.6884 11.52 26.8124 12.104 26.8124 12.76C26.8124 13.408 26.6904 13.99 26.4464 14.506C26.2024 15.022 25.8584 15.43 25.4144 15.73C24.9704 16.03 24.4504 16.18 23.8544 16.18ZM20.7284 18.88V9.52H22.0064V14.068H22.1864V18.88H20.7284ZM23.6324 14.884C24.0084 14.884 24.3184 14.79 24.5624 14.602C24.8064 14.414 24.9864 14.16 25.1024 13.84C25.2224 13.516 25.2824 13.156 25.2824 12.76C25.2824 12.368 25.2224 12.012 25.1024 11.692C24.9824 11.368 24.7964 11.112 24.5444 10.924C24.2924 10.732 23.9724 10.636 23.5844 10.636C23.2164 10.636 22.9164 10.726 22.6844 10.906C22.4524 11.082 22.2804 11.33 22.1684 11.65C22.0604 11.966 22.0064 12.336 22.0064 12.76C22.0064 13.18 22.0604 13.55 22.1684 13.87C22.2804 14.19 22.4544 14.44 22.6904 14.62C22.9304 14.796 23.2444 14.884 23.6324 14.884ZM28.2549 16V7.18H29.7009V16H28.2549ZM34.3602 16.18C33.7122 16.18 33.1462 16.034 32.6622 15.742C32.1782 15.45 31.8022 15.048 31.5342 14.536C31.2702 14.02 31.1382 13.428 31.1382 12.76C31.1382 12.08 31.2742 11.484 31.5462 10.972C31.8182 10.46 32.1962 10.06 32.6802 9.772C33.1642 9.484 33.7242 9.34 34.3602 9.34C35.0122 9.34 35.5802 9.486 36.0642 9.778C36.5482 10.07 36.9242 10.474 37.1922 10.99C37.4602 11.502 37.5942 12.092 37.5942 12.76C37.5942 13.432 37.4582 14.026 37.1862 14.542C36.9182 15.054 36.5422 15.456 36.0582 15.748C35.5742 16.036 35.0082 16.18 34.3602 16.18ZM34.3602 14.824C34.9362 14.824 35.3642 14.632 35.6442 14.248C35.9242 13.864 36.0642 13.368 36.0642 12.76C36.0642 12.132 35.9222 11.632 35.6382 11.26C35.3542 10.884 34.9282 10.696 34.3602 10.696C33.9722 10.696 33.6522 10.784 33.4002 10.96C33.1522 11.132 32.9682 11.374 32.8482 11.686C32.7282 11.994 32.6682 12.352 32.6682 12.76C32.6682 13.388 32.8102 13.89 33.0942 14.266C33.3822 14.638 33.8042 14.824 34.3602 14.824ZM38.9162 16V9.52H40.1942V11.098L40.0382 10.894C40.1182 10.678 40.2242 10.482 40.3562 10.306C40.4922 10.126 40.6542 9.978 40.8422 9.862C41.0022 9.754 41.1782 9.67 41.3702 9.61C41.5662 9.546 41.7662 9.508 41.9702 9.496C42.1742 9.48 42.3722 9.488 42.5642 9.52V10.87C42.3722 10.814 42.1502 10.796 41.8982 10.816C41.6502 10.836 41.4262 10.906 41.2262 11.026C41.0262 11.134 40.8622 11.272 40.7342 11.44C40.6102 11.608 40.5182 11.8 40.4582 12.016C40.3982 12.228 40.3682 12.458 40.3682 12.706V16H38.9162ZM46.538 16.18C45.882 16.18 45.306 16.038 44.81 15.754C44.314 15.47 43.926 15.076 43.646 14.572C43.37 14.068 43.232 13.488 43.232 12.832C43.232 12.124 43.368 11.51 43.64 10.99C43.912 10.466 44.29 10.06 44.774 9.772C45.258 9.484 45.818 9.34 46.454 9.34C47.126 9.34 47.696 9.498 48.164 9.814C48.636 10.126 48.986 10.568 49.214 11.14C49.442 11.712 49.528 12.386 49.472 13.162H48.038V12.634C48.034 11.93 47.91 11.416 47.666 11.092C47.422 10.768 47.038 10.606 46.514 10.606C45.922 10.606 45.482 10.79 45.194 11.158C44.906 11.522 44.762 12.056 44.762 12.76C44.762 13.416 44.906 13.924 45.194 14.284C45.482 14.644 45.902 14.824 46.454 14.824C46.81 14.824 47.116 14.746 47.372 14.59C47.632 14.43 47.832 14.2 47.972 13.9L49.4 14.332C49.152 14.916 48.768 15.37 48.248 15.694C47.732 16.018 47.162 16.18 46.538 16.18ZM44.306 13.162V12.07H48.764V13.162H44.306ZM50.8107 16V9.52H52.0887V11.098L51.9327 10.894C52.0127 10.678 52.1187 10.482 52.2507 10.306C52.3867 10.126 52.5487 9.978 52.7367 9.862C52.8967 9.754 53.0727 9.67 53.2647 9.61C53.4607 9.546 53.6607 9.508 53.8647 9.496C54.0687 9.48 54.2667 9.488 54.4587 9.52V10.87C54.2667 10.814 54.0447 10.796 53.7927 10.816C53.5447 10.836 53.3207 10.906 53.1207 11.026C52.9207 11.134 52.7567 11.272 52.6287 11.44C52.5047 11.608 52.4127 11.8 52.3527 12.016C52.2927 12.228 52.2627 12.458 52.2627 12.706V16H50.8107Z" fill="#46178F"/>
<defs>
<linearGradient id="paint0_linear_146_195" x1="3.19661e-09" y1="11.5819" x2="76.9974" y2="11.0434" gradientUnits="userSpaceOnUse">
<stop stop-color="#46178F"/>
<stop offset="1" stop-color="#E0DEE1"/>
</linearGradient>
</defs>
</svg>
