<svg width="48" height="44" viewBox="0 0 48 44" fill="none" xmlns="http://www.w3.org/2000/svg">
<rect x="1.5" y="1.5" width="44.8261" height="41" rx="3.5" stroke="#8567B4" stroke-opacity="0.4" stroke-width="3"/>
<path fill-rule="evenodd" clip-rule="evenodd" d="M17.9854 37.9134C21.2158 36.8062 24.3731 34.568 29.9247 35.4666C35.4762 36.3652 39.3106 29.0393 37.2584 25.4454C36.3469 24.2848 35.6998 22.7549 37.2584 20.308C38.7153 15.693 35.9127 12.7955 33.3287 11.4311C30.7446 10.0667 24.4503 7.23196 19.1765 9.21882C13.9027 11.2057 11.7638 14.3266 11.4139 16.4929C11.0641 18.6591 12.4619 18.8709 12.7119 22.2973C12.962 25.7237 9.51801 31.3716 10.9184 34.4791C12.3188 37.5867 14.7551 39.0205 17.9854 37.9134Z" fill="#46178F"/>
<path fill-rule="evenodd" clip-rule="evenodd" d="M32.5482 34.8733C32.4334 34.7027 32.2436 34.6015 32.069 34.4927C31.6216 34.214 31.2354 33.849 30.8542 33.4849C30.06 32.7263 29.2729 31.9602 28.4931 31.1868C28.2968 30.9921 28.0997 30.7955 27.9415 30.5687C27.5791 30.0493 27.1171 29.5995 26.5881 29.2512C26.5127 29.2015 26.4313 29.1524 26.341 29.1487C26.2337 29.1442 26.1355 29.2045 26.0462 29.2644C25.3527 29.7295 24.7342 30.3065 24.222 30.9661C24.1587 31.0475 24.0938 31.1415 24.1056 31.2439C24.1143 31.3197 24.1637 31.3837 24.2115 31.4431C24.8124 32.1895 25.4594 32.8988 26.1477 33.5655C26.3345 33.7465 26.5249 33.9249 26.6905 34.1254C26.9193 34.4025 27.0971 34.7174 27.3026 35.0123C28.2512 36.3734 29.7673 37.26 31.3572 37.7342C31.5534 37.7928 31.7583 37.8461 31.9608 37.816C32.4119 37.7489 32.7196 37.202 32.5427 36.7816C32.4161 36.4806 32.5108 36.1382 32.5915 35.8218C32.6722 35.5054 32.7305 35.1442 32.5482 34.8733Z" fill="#FBFCD8"/>
<path fill-rule="evenodd" clip-rule="evenodd" d="M32.848 26.7838C33.0127 26.4188 33.4004 26.166 33.8008 26.1625C33.9961 26.1608 34.1874 26.2131 34.3756 26.265C35.2036 26.4931 36.0316 26.7213 36.8596 26.9494C37.0751 27.0088 37.2948 27.0701 37.4804 27.1946C37.666 27.3192 37.8149 27.5204 37.8178 27.7439C37.8197 27.8904 37.7601 28.0304 37.6935 28.161C37.6027 28.3391 37.4916 28.5151 37.3251 28.6258C36.9883 28.8495 36.5407 28.7455 36.1521 28.6336C35.2485 28.3733 34.3435 28.1126 33.4653 27.7766C33.1805 27.6677 32.8632 27.5116 32.7904 27.2155C32.7551 27.0719 32.7871 26.9186 32.848 26.7838Z" fill="#FBFCD8"/>
<path fill-rule="evenodd" clip-rule="evenodd" d="M21.561 34.1446C21.931 33.9473 22.4516 34.1305 22.6165 34.516C22.7246 34.7686 22.6886 35.0566 22.6508 35.3286C22.55 36.0527 22.4492 36.7769 22.3484 37.501C22.3278 37.6495 22.3069 37.7989 22.2625 37.9421C22.1775 38.2166 21.9977 38.4692 21.7423 38.6007C21.4869 38.7322 21.1541 38.7243 20.9285 38.5464C20.7595 38.4131 20.6657 38.2023 20.6321 37.9898C20.5986 37.7772 20.6193 37.5602 20.6427 37.3462C20.7195 36.6463 20.8252 35.9496 20.9596 35.2585C21.0431 34.8295 21.1754 34.3502 21.561 34.1446Z" fill="#FBFCD8"/>
<path fill-rule="evenodd" clip-rule="evenodd" d="M12.707 19.7325C12.6657 19.6781 12.7362 19.6096 12.7969 19.5782C13.492 19.2181 14.195 18.8732 14.9051 18.5436C15.0907 18.4575 15.2798 18.3715 15.4821 18.3405C15.6843 18.3096 15.9048 18.3401 16.0648 18.4677C16.2544 18.6189 16.3259 18.876 16.3376 19.1181C16.3474 19.3182 16.3177 19.5342 16.1836 19.683C16.122 19.7513 16.0425 19.8006 15.9639 19.8485C15.2391 20.29 14.4877 20.6879 13.7152 21.0395C13.4815 21.1458 13.212 21.2487 12.9762 21.1471C12.8877 21.109 12.8127 21.0444 12.7497 20.9715C12.458 20.6333 12.4393 20.09 12.707 19.7325Z" fill="#FBFCD8"/>
<path fill-rule="evenodd" clip-rule="evenodd" d="M19.6431 12.746C19.5997 13.0911 19.7591 13.4541 20.0424 13.6558C20.1761 13.751 20.2253 13.9329 20.2041 14.0956C20.1829 14.2584 20.1031 14.407 20.0216 14.5495C19.9605 14.6564 19.8948 14.7654 19.7946 14.837C19.6944 14.9085 19.5502 14.9329 19.4492 14.8626C19.0617 14.5925 18.5366 14.698 18.0789 14.8143C17.9271 14.8529 17.7796 14.7488 17.6575 14.6507C17.5025 14.5264 17.3476 14.402 17.1926 14.2776C17.137 14.2329 17.0798 14.1864 17.0471 14.1229C17.0067 14.0442 17.0097 13.9508 17.0197 13.8629C17.0699 13.4228 17.2686 13.0143 17.4851 12.6278C17.7087 12.2286 18.0216 11.7992 18.4779 11.7654C18.5969 11.7566 18.7286 11.7831 18.804 11.8756C18.9378 12.0399 19.1444 12.1223 19.3229 12.2365C19.5014 12.3508 19.6696 12.5358 19.6431 12.746Z" fill="#FBFCD8"/>
<path fill-rule="evenodd" clip-rule="evenodd" d="M16.9543 13.7087C16.8199 13.8277 16.625 13.8593 16.4476 13.8317C16.2701 13.8042 16.1056 13.7244 15.9459 13.6423C15.1064 13.2105 14.3153 12.6849 13.5919 12.0785C13.5364 12.032 13.4802 11.9838 13.4433 11.9214C13.4 11.8482 13.3867 11.7614 13.3783 11.6767C13.289 10.7732 13.7002 9.83607 14.4255 9.28995C14.7213 9.06726 15.1438 8.91082 15.4501 9.1188C16.1491 9.59346 16.8339 10.0891 17.5033 10.6047C17.7959 10.8301 18.092 11.0665 18.2829 11.3827C18.3485 11.4914 18.3958 11.644 18.3069 11.7346C18.1964 11.3922 16.5044 13.7387 16.9543 13.7087Z" fill="#FBFCD8"/>
<path fill-rule="evenodd" clip-rule="evenodd" d="M11.9456 35.9639C11.5766 36.0974 11.079 35.944 10.979 35.5645C10.8118 34.9301 11.7332 34.6058 12.0774 34.0473C12.486 33.3844 11.9962 32.5471 11.515 31.9349C11.1736 32.2203 10.6762 32.5137 10.3245 32.2409C9.89864 31.9106 10.257 31.2202 10.6913 30.901C11.4702 30.3287 12.4663 30.0599 13.4275 30.1627C13.6721 28.3403 14.6083 26.6193 16.0053 25.4237C17.4023 24.2281 19.2473 23.569 21.0856 23.6087C20.8801 20.0443 22.9466 16.4497 26.1303 14.8337C26.4759 14.6583 26.8459 14.5017 27.2334 14.5041C27.621 14.5064 28.0302 14.7037 28.1773 15.0623C28.3243 15.4208 28.0963 15.9129 27.7101 15.9457C27.5302 15.9609 25.9696 16.5165 26.1303 16.4814C28.1773 16.0338 33.0769 19.6045 35.7148 19.6045C35.9516 19.6045 36.5663 18.7312 36.7329 18.6145C36.8859 18.5073 37.3072 18.4466 37.4913 18.4782C37.9713 18.5607 37.9376 19.2695 37.7311 19.7106C36.4997 22.3417 33.7408 23.9973 30.9047 24.6261C28.0686 25.2549 25.1208 25.0064 22.2268 24.7547C22.0266 26.8244 21.7437 29.0753 20.2629 30.5351C18.855 31.923 16.6281 32.2282 14.7222 31.7031C14.7222 31.417 14.7222 31.417 14.7385 30.6338C14.4079 32.2597 13.7432 33.8169 12.7979 35.1804C12.5743 35.5029 12.3145 35.8304 11.9456 35.9639Z" fill="#FBFCD8"/>
<path d="M31.9259 10.75C31.8089 10.9024 31.6918 11.0548 31.5748 11.2072C31.5116 11.2895 31.3879 11.376 31.3206 11.297C31.2028 11.1587 30.9851 11.1976 30.8073 11.1608C30.6921 11.137 30.5878 11.0776 30.4858 11.0191C29.0106 10.1729 27.5354 9.32662 26.0602 8.48039C25.9436 8.41352 25.8174 8.3349 25.7787 8.20619C26.1155 7.61673 26.6841 6.8047 26.7166 6.82432C27.0704 7.07929 27.4306 7.32538 27.7968 7.5623C28.9584 8.31391 30.1776 8.97182 31.3637 9.68422C31.4791 9.75354 31.6056 9.83957 31.6271 9.97248C31.6437 10.0748 31.5686 10.3283 31.6395 10.2792C31.6776 10.2528 31.7292 10.2765 31.7691 10.3003C31.8895 10.3723 32.0277 10.4819 31.9985 10.6192C31.988 10.6684 31.9565 10.7101 31.9259 10.75Z" fill="#FBFCD8"/>
<path fill-rule="evenodd" clip-rule="evenodd" d="M25.798 16.627C25.8817 16.6133 25.9573 16.5573 25.9949 16.4813C26.6173 16.5428 27.2342 16.6591 27.8362 16.8284C29.1987 17.2117 30.4703 17.8612 31.7072 18.549C32.9741 19.2536 34.3976 19.6749 35.8439 19.7733C35.8548 19.8524 35.7881 19.9255 35.7122 19.95C35.6363 19.9746 35.5539 19.9626 35.4751 19.9505C34.276 19.7659 33.0396 19.5679 32.0105 18.9254C30.9604 18.2697 29.845 17.7187 28.6861 17.2832C28.3872 17.1708 28.0853 17.0661 27.7786 16.977C27.1335 16.7897 26.4682 16.6721 25.798 16.627Z" fill="#0D0022"/>
<path fill-rule="evenodd" clip-rule="evenodd" d="M32.8479 26.7838C33.0126 26.4188 33.4003 26.166 33.8008 26.1625C33.996 26.1608 34.1873 26.2131 34.3756 26.265C35.2036 26.4931 36.0316 26.7213 36.8595 26.9494C37.075 27.0088 37.2947 27.0701 37.4803 27.1946C37.6659 27.3192 37.8148 27.5204 37.8177 27.7439C37.8197 27.8904 37.76 28.0304 37.6935 28.161C37.6027 28.3391 37.4916 28.5151 37.3251 28.6258C36.9883 28.8495 36.5406 28.7455 36.152 28.6336C35.2484 28.3733 34.3435 28.1126 33.4652 27.7766C33.1804 27.6677 32.8631 27.5116 32.7904 27.2155C32.7551 27.0719 32.7871 26.9186 32.8479 26.7838ZM34.9707 27.7941C34.9462 27.9636 34.9812 28.1888 35.1491 28.2225C35.5572 28.3044 35.9615 28.4057 36.3601 28.5259C36.6144 28.6026 36.8928 28.6863 37.138 28.5842C37.3221 28.5075 37.4502 28.3394 37.5591 28.1723C37.6831 27.9819 37.7956 27.7362 37.6852 27.5377C37.6113 27.405 37.4598 27.3391 37.318 27.2848C36.774 27.0763 36.2162 26.9041 35.6494 26.7697C35.4807 26.7297 35.3309 26.8835 35.2418 27.0323C35.1024 27.265 35.0097 27.5256 34.9707 27.7941Z" fill="#0D0022"/>
<path fill-rule="evenodd" clip-rule="evenodd" d="M17.6461 10.9111C17.6041 10.8865 17.5588 10.8634 17.5102 10.863C17.4578 10.8626 17.4092 10.8885 17.3638 10.9147C16.4919 11.419 15.8622 12.3231 15.6915 13.3157C16.0451 13.5957 16.5044 13.7385 16.9543 13.7085C16.8199 13.8276 16.625 13.8592 16.4476 13.8316C16.2701 13.8041 16.1056 13.7243 15.9459 13.6422C15.1064 13.2104 14.3153 12.6848 13.5919 12.0784C13.5364 12.0319 13.4802 11.9837 13.4433 11.9213C13.4 11.8481 13.3867 11.7613 13.3783 11.6766C13.289 10.773 13.7002 9.83594 14.4255 9.28983C14.7213 9.06714 15.1438 8.9107 15.4501 9.11868C16.1491 9.59334 16.8339 10.0889 17.5033 10.6046C17.7959 10.83 18.092 11.0664 18.2829 11.3826C18.3485 11.4912 18.3958 11.6439 18.3069 11.7345C18.1964 11.392 17.9565 11.0931 17.6461 10.9111ZM13.9366 9.97428C13.8371 10.1058 13.7387 10.2404 13.6748 10.3924C13.6018 10.566 13.5768 10.7553 13.5525 10.942C13.5086 11.2787 13.475 11.6563 13.6844 11.9237C13.7593 12.0193 13.8595 12.0915 13.9583 12.1623C14.3995 12.4789 14.8408 12.7954 15.2821 13.1119C15.3348 13.1497 15.3904 13.1887 15.4548 13.1973C15.5191 13.2059 15.594 13.1727 15.6091 13.1095C15.8389 12.148 16.4765 11.291 17.3316 10.7948C17.3862 10.7631 17.3402 10.6801 17.292 10.6393C16.8618 10.2749 16.4048 9.94211 15.9259 9.64454C15.8992 9.62793 15.871 9.61096 15.8395 9.60899C15.799 9.60645 15.7617 9.62915 15.7277 9.6512C15.3066 9.92384 14.9021 10.2335 14.5912 10.6272C14.2803 11.0209 14.0676 11.5071 14.0704 12.0088C14.0478 12.0492 13.9918 11.9945 13.9843 11.9488C13.9236 11.5772 14.0808 11.2039 14.2789 10.8836C14.623 10.327 15.1028 9.85509 15.665 9.52027C15.4973 9.20478 15.0524 9.12855 14.7219 9.26431C14.3913 9.40006 14.1521 9.68928 13.9366 9.97428V9.97428Z" fill="#0D0022"/>
<path fill-rule="evenodd" clip-rule="evenodd" d="M22.6165 34.516C22.7246 34.7686 22.6886 35.0566 22.6508 35.3286L22.3484 37.501C22.3278 37.6495 22.3069 37.7989 22.2625 37.9421C22.1775 38.2166 21.9977 38.4692 21.7423 38.6007C21.4869 38.7322 21.1541 38.7243 20.9285 38.5464C20.7595 38.4131 20.6657 38.2023 20.6321 37.9898C20.5986 37.7772 20.6193 37.5602 20.6427 37.3462C20.7195 36.6463 20.8252 35.9496 20.9596 35.2585L20.9683 35.2147C21.0523 34.7973 21.1885 34.3432 21.561 34.1446C21.931 33.9473 22.4516 34.1305 22.6165 34.516ZM21.0179 36.4114L21.0179 36.4103C20.9925 36.4234 20.9664 36.4376 20.9396 36.4528C20.9092 36.6447 20.8822 36.837 20.8602 37.03C20.8301 37.2927 20.8093 37.5566 20.8018 37.8209L20.801 37.8565C20.7997 37.9458 20.8051 38.0371 20.8483 38.1144C20.9138 38.2315 21.0502 38.2884 21.1803 38.3216C21.3878 38.3746 21.6221 38.3845 21.8024 38.269C22.0203 38.1295 22.098 37.8524 22.1471 37.5984C22.1924 37.3641 22.228 37.128 22.2537 36.8907L22.257 36.859C22.2639 36.7846 22.2651 36.708 22.232 36.6419C22.2016 36.5811 22.1458 36.5372 22.0885 36.5005C22.0702 36.4888 22.0515 36.4776 22.0325 36.467C21.8858 36.415 21.8858 36.3348 21.5896 36.3281C21.3954 36.3237 21.1971 36.3348 21.0179 36.4114Z" fill="#0D0022"/>
<path fill-rule="evenodd" clip-rule="evenodd" d="M12.707 19.7324C12.6657 19.678 12.7362 19.6095 12.7969 19.5781C13.492 19.218 14.195 18.873 14.9051 18.5435C15.0907 18.4574 15.2798 18.3714 15.4821 18.3404C15.6843 18.3094 15.9048 18.34 16.0648 18.4676C16.2544 18.6187 16.3259 18.8758 16.3376 19.118C16.3474 19.3181 16.3177 19.534 16.1836 19.6828C16.122 19.7512 16.0425 19.8005 15.9639 19.8484C15.2391 20.2898 14.4877 20.6878 13.7152 21.0393C13.4815 21.1457 13.212 21.2486 12.9762 21.147C12.8877 21.1089 12.8127 21.0443 12.7497 20.9714C12.458 20.6332 12.4393 20.0899 12.707 19.7324ZM16.1277 18.7729C16.0756 18.6294 15.9396 18.5266 15.7917 18.4889C15.6438 18.4511 15.486 18.4719 15.3411 18.5195C15.2321 18.5553 15.1287 18.6059 15.0256 18.6562C14.8473 18.7434 14.669 18.8305 14.4906 18.9177C14.4361 18.9443 14.3792 18.9729 14.3442 19.0225C14.3194 19.0577 14.3079 19.1002 14.2969 19.1418C14.2542 19.3029 14.2112 19.4703 14.2406 19.6344C14.2841 19.8769 14.4747 20.0622 14.6554 20.2298C14.6896 20.2616 14.7262 20.2946 14.7718 20.3047C14.8325 20.318 14.8933 20.2879 14.9481 20.2587C15.203 20.1228 15.4579 19.987 15.7128 19.8511C15.9093 19.7464 16.121 19.625 16.2002 19.417C16.2788 19.2104 16.2032 18.9806 16.1277 18.7729Z" fill="#0D0022"/>
<path fill-rule="evenodd" clip-rule="evenodd" d="M24.6666 5.785C24.6929 5.74581 24.7471 5.73361 24.7933 5.7435C24.8394 5.75339 24.8795 5.78096 24.9183 5.80793C25.1915 5.99809 25.4647 6.18826 25.7379 6.37843C25.7836 6.41025 25.8332 6.44786 25.8424 6.50279C25.8224 6.54742 25.7552 6.52628 25.7147 6.49876C25.3653 6.26084 25.016 6.02292 24.6666 5.785Z" fill="#0D0022"/>
<path fill-rule="evenodd" clip-rule="evenodd" d="M28.0635 8.70039C28.0217 8.69476 28.0326 8.63104 28.0549 8.59533C28.1386 8.46175 28.2222 8.32816 28.3059 8.19458C28.3352 8.20004 28.3313 8.24336 28.3192 8.27062C28.2516 8.4234 28.1655 8.56803 28.0635 8.70039Z" fill="#0D0022"/>
<path fill-rule="evenodd" clip-rule="evenodd" d="M24.1712 30.8594C24.6771 30.2743 25.2452 29.743 25.863 29.2775C26.0058 29.1699 26.1616 29.0618 26.34 29.0495C26.6232 29.03 26.859 29.2515 27.0551 29.4568C27.5712 29.9968 28.0874 30.5368 28.6035 31.0768C29.2122 31.7138 29.8213 32.351 30.4604 32.9574C31.145 33.607 31.8665 34.2228 32.6619 34.7307C32.9055 34.8863 32.9243 35.2395 32.8454 35.5176C32.7666 35.7958 32.6176 36.0615 32.6202 36.3506C32.6213 36.4729 32.6498 36.5931 32.6686 36.714C32.723 37.065 32.6876 37.4456 32.4852 37.7375C32.2827 38.0293 31.8857 38.2006 31.5557 38.0693C30.2725 37.559 28.9543 37.0265 27.9592 36.069C27.712 35.8311 27.4884 35.5701 27.2652 35.3096C26.2165 34.0853 25.1678 32.8611 24.1191 31.6368C24.0505 31.5567 23.9794 31.4719 23.9572 31.3687C23.9169 31.1817 24.0462 31.0041 24.1712 30.8594M32.5481 34.8732C32.4333 34.7026 32.2435 34.6014 32.0689 34.4927C31.6215 34.2139 31.2353 33.8489 30.8541 33.4848C30.0599 32.7262 29.2728 31.9602 28.493 31.1868C28.2966 30.992 28.0996 30.7955 27.9414 30.5687C27.579 30.0492 27.117 29.5995 26.588 29.2511C26.5126 29.2015 26.4312 29.1523 26.3409 29.1486C26.2336 29.1442 26.1354 29.2044 26.0461 29.2643C25.3526 29.7295 24.7341 30.3064 24.2219 30.966C24.1586 31.0475 24.0937 31.1414 24.1055 31.2439C24.1142 31.3196 24.1636 31.3836 24.2114 31.443C24.8123 32.1894 25.4593 32.8987 26.1476 33.5654C26.3344 33.7464 26.5248 33.9248 26.6904 34.1254C26.9192 34.4025 27.097 34.7174 27.3025 35.0122C28.2511 36.3733 29.7672 37.26 31.3571 37.7342C31.5533 37.7927 31.7582 37.8461 31.9607 37.8159C32.4118 37.7488 32.7195 37.2019 32.5426 36.7815C32.416 36.4805 32.5107 36.1381 32.5914 35.8217C32.6721 35.5053 32.7304 35.1442 32.5481 34.8732Z" fill="#0D0022"/>
<path fill-rule="evenodd" clip-rule="evenodd" d="M27.4005 7.71714C27.3417 7.82641 27.283 7.93567 27.2242 8.04494C27.2012 7.88702 27.306 7.74189 27.4049 7.6167C27.4329 7.64005 27.4177 7.68503 27.4005 7.71714L27.4005 7.71714Z" fill="#0D0022"/>
<path fill-rule="evenodd" clip-rule="evenodd" d="M27.7234 8.08264C27.7357 8.19701 27.686 8.31615 27.5961 8.38794C27.5859 8.27371 27.635 8.15574 27.7234 8.08264L27.7234 8.08264Z" fill="#0D0022"/>
<path fill-rule="evenodd" clip-rule="evenodd" d="M29.2392 8.7749C29.2202 8.89408 29.16 9.0063 29.0711 9.08793C29.0344 9.12164 28.9924 9.15055 28.9451 9.16611C28.9267 9.14251 28.947 9.10912 28.9667 9.08658C29.0575 8.98268 29.1484 8.87879 29.2392 8.7749Z" fill="#0D0022"/>
<path fill-rule="evenodd" clip-rule="evenodd" d="M28.5667 8.81453C28.5822 8.76277 28.6094 8.71455 28.6457 8.67454C28.6822 8.66909 28.6784 8.72967 28.6579 8.76034C28.6249 8.80963 28.592 8.85892 28.559 8.90821C28.5239 8.89062 28.5241 8.83038 28.5594 8.81304L28.5667 8.81453Z" fill="#0D0022"/>
<path fill-rule="evenodd" clip-rule="evenodd" d="M30.2127 9.42175C30.1885 9.48188 30.1338 9.52882 30.0707 9.54367C30.1191 9.46629 30.1675 9.38891 30.2159 9.31152C30.2382 9.344 30.2368 9.39085 30.2127 9.422L30.2127 9.42175Z" fill="#0D0022"/>
<path fill-rule="evenodd" clip-rule="evenodd" d="M30.9111 9.92458C30.9193 9.89468 30.9538 9.87481 30.9837 9.88273C30.963 9.94235 30.9333 9.99886 30.8961 10.0498C30.8599 10.018 30.8667 9.95064 30.9085 9.92669L30.9111 9.92458Z" fill="#0D0022"/>
<path fill-rule="evenodd" clip-rule="evenodd" d="M19.6431 12.746C19.5997 13.0911 19.7591 13.4541 20.0424 13.6558C20.1761 13.751 20.2253 13.9329 20.2041 14.0956C20.1829 14.2584 20.1031 14.407 20.0216 14.5495C19.9605 14.6564 19.8948 14.7654 19.7946 14.837C19.6944 14.9085 19.5502 14.9329 19.4492 14.8626C19.0617 14.5925 18.5366 14.698 18.0789 14.8143C17.9271 14.8529 17.7796 14.7488 17.6575 14.6507C17.5025 14.5264 17.3476 14.402 17.1926 14.2776C17.137 14.2329 17.0798 14.1864 17.0471 14.1229C17.0067 14.0442 17.0097 13.9508 17.0197 13.8629C17.0699 13.4228 17.2686 13.0143 17.4851 12.6278C17.7087 12.2286 18.0216 11.7992 18.4779 11.7654C18.5969 11.7566 18.7286 11.7831 18.804 11.8756C18.9378 12.0399 19.1444 12.1223 19.3229 12.2365C19.5014 12.3508 19.6696 12.5358 19.6431 12.746ZM17.7808 12.7142C17.7441 12.6947 17.7017 12.6747 17.6627 12.6889C17.6372 12.6982 17.6189 12.7204 17.6024 12.7419C17.401 13.0031 17.2523 13.3047 17.1677 13.6235C17.1413 13.7228 17.1215 13.8307 17.1591 13.9264C17.1888 14.002 17.2504 14.0598 17.3101 14.1149C17.4449 14.2392 17.5796 14.3635 17.7143 14.4878C17.8071 14.5734 17.9219 14.6654 18.0451 14.6377C18.4921 14.5372 18.9809 14.4411 19.3913 14.6446C19.5612 14.7288 19.7759 14.6397 19.8946 14.4919C20.0134 14.3441 20.059 14.1523 20.1013 13.9675C19.7691 13.715 19.5169 13.3587 19.3892 12.9614C19.3714 12.9059 19.2871 12.9406 19.2471 12.983C19.0238 13.2191 18.8006 13.4553 18.5774 13.6914C18.4293 13.848 18.2698 14.042 18.3141 14.2529C18.3262 14.3105 18.2282 14.3353 18.1906 14.29C18.1529 14.2447 18.1636 14.1774 18.1807 14.1211C18.34 13.5961 18.8394 13.2641 19.2016 12.8521C19.2722 12.7717 19.3421 12.6757 19.333 12.569C19.3234 12.4569 19.2308 12.3725 19.1445 12.3003C18.9779 12.1611 18.8029 12.0188 18.5924 11.966C18.3818 11.9132 18.1252 11.9777 18.0236 12.1695C18.3461 12.3183 18.6581 12.4896 18.9568 12.6816C18.9992 12.7088 19.0431 12.772 19.0011 12.7997C18.7469 12.6579 18.4927 12.5161 18.2385 12.3743C18.1594 12.3302 18.0775 12.2851 17.9874 12.2758C17.8972 12.2665 17.796 12.3024 17.7561 12.3837C17.7048 12.4884 17.7769 12.617 17.8749 12.6802C17.9729 12.7433 18.0917 12.7635 18.1996 12.8076C18.3576 12.872 18.4932 12.9901 18.5787 13.1378C18.3127 12.9966 18.0468 12.8554 17.7808 12.7142Z" fill="#0D0022"/>
<path fill-rule="evenodd" clip-rule="evenodd" d="M30.4325 9.91358C30.4223 9.94942 30.3923 9.97893 30.3563 9.98855C30.369 9.88588 30.4294 9.79008 30.5165 9.73438C30.5185 9.80122 30.4834 9.86799 30.4271 9.90415L30.4325 9.91358Z" fill="#0D0022"/>
<path fill-rule="evenodd" clip-rule="evenodd" d="M29.5889 9.38049C29.573 9.41624 29.5367 9.44205 29.4977 9.4454C29.5065 9.37894 29.5335 9.31499 29.5751 9.26245C29.5914 9.24189 29.6121 9.22189 29.6382 9.21899C29.6643 9.21609 29.6935 9.2397 29.6866 9.26501C29.6528 9.30175 29.6189 9.33849 29.585 9.37523L29.5889 9.38049Z" fill="#0D0022"/>
<path fill-rule="evenodd" clip-rule="evenodd" d="M24.1623 17.9424C24.1692 17.9613 24.1364 17.9776 24.1255 17.9607C24.1191 17.943 24.1238 17.9218 24.1371 17.9084C24.1469 17.9183 24.1567 17.9281 24.1665 17.9379L24.1623 17.9424Z" fill="#0D0022"/>
<path fill-rule="evenodd" clip-rule="evenodd" d="M31.9721 11.2294C32.0222 11.1973 32.0737 11.164 32.1077 11.1152C32.1417 11.0663 32.1542 10.9975 32.122 10.9475C32.0605 10.9395 32.0035 10.9025 31.9713 10.8495C31.9698 10.8178 32.0021 10.7892 32.0334 10.7943C32.0939 10.8207 32.1569 10.8491 32.1979 10.9008C32.2389 10.9526 32.2491 11.0352 32.2019 11.0815C32.6604 11.3967 33.1188 11.7118 33.5772 12.027C33.5496 12.0473 33.5109 12.0344 33.4798 12.0203C33.0704 11.8343 32.7257 11.5342 32.3514 11.285C32.2646 11.2272 32.1347 11.1772 32.0687 11.2581C31.9804 11.3664 31.7749 11.3294 31.7299 11.1971C31.7215 11.1477 31.8047 11.1449 31.843 11.1773C31.8813 11.2096 31.9299 11.2564 31.9721 11.2294Z" fill="#0D0022"/>
<path fill-rule="evenodd" clip-rule="evenodd" d="M31.177 34.8653C31.2591 34.7586 31.3433 34.6535 31.4298 34.5503C31.4553 34.5199 31.4815 34.4892 31.5147 34.4675C31.6412 34.3847 31.809 34.4596 31.9354 34.5426C32.0749 34.634 32.2078 34.7354 32.333 34.8457C32.4366 34.9371 32.5397 35.0429 32.568 35.1782C32.5963 35.3134 32.5149 35.4794 32.3772 35.4913C32.2928 35.6443 32.1724 35.7774 32.0285 35.8766C31.9469 35.9329 31.8351 35.8982 31.7464 35.8538C31.4923 35.7265 31.2728 35.5307 31.1175 35.2927C31.0927 35.2547 31.0691 35.2146 31.0601 35.1702C31.0379 35.06 31.1086 34.9545 31.177 34.8653ZM32.0105 35.8136C32.0862 35.7059 32.1618 35.5982 32.2375 35.4905C32.1647 35.4043 32.0318 35.4041 31.9365 35.3438C31.8844 35.3108 31.8455 35.261 31.8078 35.2122C31.6972 35.0692 31.5866 34.9262 31.476 34.7833C31.3837 34.8797 31.2981 34.9824 31.2198 35.0905C31.2084 35.1063 31.1968 35.1231 31.1948 35.1425C31.1924 35.1646 31.2031 35.1858 31.2139 35.2053C31.3813 35.5054 31.6769 35.7311 32.0105 35.8136ZM31.8697 34.6148C31.7988 34.5661 31.6894 34.5229 31.6396 34.5929C31.6094 34.6354 31.6251 34.6942 31.6451 34.7424C31.7561 35.0091 31.9722 35.2305 32.2362 35.348C32.312 35.3817 32.4272 35.3911 32.4529 35.3122C32.4624 35.283 32.4544 35.2512 32.4444 35.2222C32.3516 34.9539 32.1036 34.7754 31.8697 34.6148Z" fill="#0D0022"/>
<path fill-rule="evenodd" clip-rule="evenodd" d="M25.3561 31.0946C25.3114 31.1594 25.2667 31.2242 25.2219 31.289C25.1795 31.3504 25.1357 31.4158 25.1302 31.4902C25.1253 31.5568 25.1518 31.6214 25.1813 31.6812C25.3108 31.9443 25.5085 32.1735 25.7497 32.3402C25.6832 32.4222 25.5504 32.3742 25.4661 32.3106C25.2435 32.1426 25.0756 31.9031 24.9937 31.6365C24.9736 31.5713 24.9585 31.503 24.9659 31.4353C24.9814 31.2941 25.089 31.1831 25.1906 31.084C25.3138 30.9638 25.4564 30.8354 25.6285 30.8379C25.7416 30.8396 25.8457 30.8991 25.9359 30.9675C26.1961 31.1646 26.3943 31.4855 26.3366 31.8068C26.3224 31.8857 26.2632 31.979 26.186 31.957C25.9056 31.877 25.6565 31.6916 25.4995 31.4458C25.4665 31.3941 25.4348 31.3373 25.3811 31.3076C25.3795 31.236 25.3711 31.1646 25.3561 31.0946ZM25.6201 31.0547C25.547 31.1007 25.5383 31.2067 25.566 31.2885C25.6404 31.5082 25.8866 31.6129 26.0382 31.7884C26.0578 31.8111 26.0779 31.8365 26.1068 31.8447C26.1507 31.8572 26.1969 31.8222 26.2127 31.7795C26.2285 31.7367 26.2217 31.6892 26.2131 31.6444C26.1886 31.5154 26.1507 31.3868 26.08 31.2761C26.0093 31.1654 25.9026 31.0735 25.7752 31.0414C25.7235 31.0283 25.6653 31.0263 25.6201 31.0547Z" fill="#0D0022"/>
<path fill-rule="evenodd" clip-rule="evenodd" d="M30.5613 33.1866C30.613 33.2117 30.6403 33.2681 30.6639 33.3205C30.6994 33.3995 30.7349 33.4784 30.7704 33.5574C30.7853 33.5904 30.8004 33.6244 30.8017 33.6606C30.8037 33.7147 30.7759 33.7747 30.8063 33.8195C30.6636 33.9325 30.5296 34.0565 30.406 34.19C30.3723 34.2264 30.3376 34.2647 30.2915 34.2827C30.2051 34.3166 30.109 34.2696 30.0331 34.2161C29.8544 34.0904 29.7071 33.9205 29.608 33.7258C29.5574 33.6266 29.5266 33.4887 29.6123 33.4176C29.6399 33.3947 29.6488 33.3569 29.659 33.3225C29.7065 33.162 29.8172 33.021 29.9619 32.9368C29.9828 32.9246 30.0054 32.9133 30.0296 32.9124C30.0507 32.9116 30.0711 32.9188 30.091 32.9258C30.1968 32.9633 30.3026 33.0008 30.4084 33.0382C30.4527 33.0539 30.5062 33.0837 30.4997 33.1302C30.4955 33.16 30.5343 33.1734 30.5613 33.1866M29.7647 33.2776C29.7151 33.3832 29.6655 33.5 29.6946 33.6129C29.706 33.6568 29.7288 33.697 29.7538 33.7348C29.845 33.8731 29.9696 33.9892 30.1139 34.0705C30.2069 34.1228 30.3315 34.1578 30.4137 34.0898C30.4769 34.0375 30.4973 33.936 30.5747 33.909C30.6158 33.8946 30.6183 33.8323 30.5901 33.7991C30.5619 33.7659 30.5171 33.7535 30.476 33.7392C30.2466 33.6593 30.0617 33.4622 29.9966 33.2282C29.9908 33.2073 29.9855 33.1854 29.9716 33.1687C29.9417 33.1326 29.8821 33.1361 29.8441 33.1636C29.8061 33.191 29.7846 33.2352 29.7647 33.2776M30.6628 33.658C30.723 33.5445 30.6284 33.4134 30.5402 33.3201C30.4864 33.2631 30.4325 33.2061 30.3786 33.1492C30.3378 33.106 30.294 33.0609 30.2367 33.0454C30.1793 33.0298 30.1059 33.0577 30.0946 33.1161C30.0898 33.1412 30.097 33.167 30.1054 33.1911C30.1892 33.4314 30.4116 33.6176 30.6628 33.658Z" fill="#0D0022"/>
<path fill-rule="evenodd" clip-rule="evenodd" d="M29.4096 34.4675C29.5955 34.4998 29.7383 34.6447 29.8675 34.7821C29.9196 34.8375 29.9724 34.8938 30.0082 34.9608C30.0928 35.1193 30.0697 35.318 29.9921 35.48C29.9145 35.6421 29.7888 35.7754 29.6651 35.9057C29.5919 35.9829 29.5018 36.0666 29.3961 36.054C29.3569 36.0493 29.3206 36.0313 29.2859 36.0122C28.9766 35.842 28.7285 35.563 28.5957 35.2358C28.5783 35.1928 28.5625 35.1468 28.5692 35.1009C28.5757 35.0558 28.6029 35.0169 28.6293 34.9798C28.7249 34.8458 28.8223 34.7098 28.9512 34.6076C29.0802 34.5053 29.2474 34.4393 29.4096 34.4675M28.7933 35.038C28.7441 35.0879 28.6866 35.1414 28.6842 35.2113C28.6831 35.243 28.6939 35.2738 28.7064 35.3029C28.8223 35.5738 29.0786 35.7536 29.3225 35.9188C29.3384 35.9296 29.3554 35.9407 29.3746 35.9419C29.3958 35.9433 29.4157 35.9323 29.4335 35.9207C29.5219 35.8635 29.5944 35.7855 29.666 35.7083C29.7019 35.6697 29.7394 35.6276 29.747 35.5755C29.7547 35.5234 29.7163 35.4616 29.6638 35.4663C29.5539 35.4761 29.4477 35.4196 29.3645 35.347C29.2182 35.2192 29.1221 35.0355 29.1005 34.8424C29.0931 34.7758 29.0913 34.7016 29.0444 34.6537C28.9873 34.7968 28.9014 34.9283 28.7933 35.038ZM29.3611 34.6277C29.3148 34.6241 29.265 34.6315 29.2298 34.6619C29.149 34.7316 29.1928 34.864 29.2519 34.953C29.3415 35.088 29.4536 35.208 29.5822 35.3065C29.6309 35.3439 29.6837 35.3789 29.7436 35.3918C29.8036 35.4047 29.8726 35.3912 29.9124 35.3445C29.9524 35.2976 29.9545 35.2275 29.9344 35.1692C29.9144 35.1109 29.8755 35.0613 29.8386 35.0119C29.7121 34.8428 29.5717 34.644 29.3611 34.6277L29.3611 34.6277Z" fill="#0D0022"/>
<path fill-rule="evenodd" clip-rule="evenodd" d="M27.6069 34.2473C27.538 34.3001 27.4416 34.3064 27.3584 34.2815C27.2752 34.2566 27.2031 34.2041 27.1373 34.1474C26.9772 34.0092 26.8441 33.8398 26.7479 33.6514C26.6966 33.551 26.655 33.4409 26.6632 33.3285C26.6755 33.1603 26.795 33.0212 26.9156 32.9034C26.9723 32.848 27.0344 32.7923 27.1117 32.7748C27.187 32.7578 27.2656 32.78 27.3373 32.8087C27.7009 32.9538 27.9875 33.2789 28.0859 33.6578C28.0322 33.9111 27.8125 34.0899 27.6069 34.2473ZM27.3277 34.0861C27.406 34.1325 27.4996 34.172 27.5859 34.143C27.6712 34.1143 27.7221 34.0273 27.7541 33.9432C27.6553 33.8274 27.5068 33.767 27.3919 33.6671C27.1877 33.4895 27.1113 33.2102 27.0449 32.9479C26.9325 33.0412 26.8427 33.1616 26.7855 33.2961C26.7691 33.3347 26.7551 33.3761 26.7596 33.4179C26.7628 33.4479 26.7753 33.476 26.7886 33.5031C26.9069 33.7441 27.0967 33.9494 27.3277 34.0861ZM27.1366 33.0506C27.1322 33.0917 27.1525 33.131 27.1733 33.1668C27.2995 33.3837 27.468 33.5759 27.6665 33.7294C27.7271 33.7762 27.8104 33.8207 27.8756 33.7805C27.9145 33.7566 27.9324 33.7088 27.9362 33.6633C27.9465 33.5409 27.8758 33.4276 27.8034 33.3284C27.6955 33.1805 27.5703 33.0347 27.4008 32.9656C27.351 32.9452 27.2959 32.932 27.2434 32.9436C27.1908 32.9552 27.1423 32.9971 27.1366 33.0506V33.0506Z" fill="#0D0022"/>
<path fill-rule="evenodd" clip-rule="evenodd" d="M23.662 6.32178C23.587 6.42061 23.5248 6.5886 23.6356 6.64461C23.7224 6.68854 23.8163 6.60329 23.8764 6.52675C24.1121 6.22655 24.3477 5.92634 24.5834 5.62614C24.6409 5.72855 24.575 5.85391 24.5108 5.95225C24.3326 6.2251 24.1442 6.5079 23.8618 6.67056C24.3481 6.90982 24.812 7.19484 25.2452 7.52063C25.4306 7.45035 25.5846 7.30115 25.6606 7.11806C25.6079 7.16834 25.5219 7.13052 25.4608 7.09084C25.0758 6.84088 24.6988 6.57852 24.3307 6.30433C24.3566 6.2344 24.4618 6.26472 24.5234 6.30681C24.8645 6.54007 25.2056 6.77333 25.5467 7.0066C25.6301 7.0636 25.7332 6.97128 25.7915 6.88879C25.9193 6.70776 26.0472 6.52674 26.1751 6.34571C26.222 6.2792 26.2733 6.20922 26.3492 6.17972C26.4788 6.12935 26.618 6.21515 26.7305 6.29683C26.7635 6.32079 26.7981 6.34683 26.8128 6.38485C26.8382 6.45061 26.795 6.52124 26.7538 6.57848C26.3533 7.13539 25.9527 7.69231 25.5521 8.24923C25.5339 8.27453 25.5149 8.3006 25.4878 8.31606C25.4186 8.35556 25.3315 8.31019 25.2739 8.25519C25.1924 8.17743 25.0693 8.04776 25.141 7.91738C25.2127 7.78699 25.2157 7.78114 25.2761 7.68167C24.7677 7.29559 24.2379 6.89934 23.6147 6.76148C23.5085 6.73799 23.4507 6.61335 23.4633 6.50532C23.4759 6.39728 23.5398 6.30306 23.6017 6.21367C23.7489 6.00135 23.8961 5.78904 24.0432 5.57672C24.0811 5.52212 24.1198 5.46659 24.1724 5.42604C24.2682 5.35224 24.4067 5.33888 24.5148 5.39304C24.6229 5.44719 24.6951 5.56616 24.6933 5.68704C24.6281 5.62324 24.5601 5.55768 24.4744 5.52636C24.3887 5.49505 24.2799 5.50769 24.2247 5.58037C24.0371 5.82751 23.8496 6.07464 23.662 6.32178ZM25.1959 7.96123C25.1959 8.07299 25.2825 8.13387 25.3484 8.15931C25.4143 8.18474 25.4996 8.17463 25.5405 8.1171C25.9018 7.60954 26.263 7.10198 26.6242 6.59442C26.64 6.57228 26.6561 6.5495 26.663 6.52322C26.6779 6.46699 26.6464 6.40672 26.6009 6.37052C26.5554 6.33432 26.4981 6.31711 26.4423 6.30068C26.4172 6.29328 26.3894 6.28602 26.3655 6.29698C26.3495 6.30438 26.3381 6.31894 26.3273 6.33299C26.0252 6.72749 25.737 7.1327 25.4635 7.5476C25.4528 7.52665 25.2695 7.79169 25.1959 7.96123Z" fill="#0D0022"/>
<path fill-rule="evenodd" clip-rule="evenodd" d="M19.8163 13.9606C19.8044 14.0381 19.7405 14.095 19.6897 14.1548C19.5785 14.2856 19.5202 14.4522 19.4643 14.6145C19.3985 14.5429 19.388 14.4336 19.413 14.3396C19.4381 14.2456 19.4935 14.1631 19.548 14.0825C19.5793 14.0362 19.6121 13.9885 19.6597 13.9591C19.7073 13.9298 19.7742 13.9239 19.8163 13.9606V13.9606Z" fill="#0D0022"/>
<path fill-rule="evenodd" clip-rule="evenodd" d="M31.9259 10.7499C31.8089 10.9023 31.6918 11.0547 31.5748 11.2072C31.5116 11.2894 31.3879 11.3759 31.3206 11.2969C31.2028 11.1586 30.9851 11.1976 30.8073 11.1608C30.6921 11.137 30.5878 11.0776 30.4858 11.019C29.0106 10.1728 27.5354 9.32657 26.0602 8.48033C25.9436 8.41346 25.8174 8.33484 25.7787 8.20614C27.3568 9.05274 28.9084 9.94862 30.4305 10.892C30.6172 11.0077 30.8747 11.1197 31.0361 10.9708C31.0825 10.9281 31.1111 10.8699 31.1386 10.8132C31.2805 10.5206 31.4224 10.2281 31.5643 9.93558C29.9707 8.91076 28.2314 8.11177 26.718 6.97184C26.6877 6.94901 26.6552 6.92238 26.6491 6.88492C26.643 6.84747 26.6841 6.80464 26.7166 6.82427C27.0704 7.07923 27.4306 7.32532 27.7968 7.56224C28.9584 8.31385 30.1776 8.97176 31.3637 9.68416C31.4791 9.75348 31.6056 9.83952 31.6271 9.97242C31.6437 10.0748 31.5917 10.1744 31.5415 10.2651C31.4382 10.4517 31.3349 10.6383 31.2315 10.8249C31.1951 10.8906 31.1575 10.9645 31.1752 11.0375C31.2028 11.1516 31.3568 11.193 31.4645 11.1463C31.5722 11.0995 31.6425 10.9962 31.7069 10.8981C31.7657 10.8083 31.8246 10.7185 31.8835 10.6288C31.9308 10.5567 31.8233 10.4856 31.7413 10.4589C31.6594 10.4323 31.5686 10.3282 31.6395 10.2791C31.6776 10.2527 31.7292 10.2765 31.7691 10.3003C31.8895 10.3723 32.0277 10.4819 31.9985 10.6191C31.988 10.6683 31.9565 10.71 31.9259 10.7499Z" fill="#0D0022"/>
<path fill-rule="evenodd" clip-rule="evenodd" d="M19.113 12.5328C19.1375 12.5468 19.1639 12.5629 19.1738 12.5895C19.1838 12.616 19.1648 12.6535 19.1367 12.6494C18.877 12.5 18.6172 12.3506 18.3574 12.2012C18.3621 12.1717 18.3951 12.1535 18.425 12.1546C18.4549 12.1557 18.4822 12.171 18.5081 12.1859C18.7097 12.3015 18.9113 12.4171 19.113 12.5328Z" fill="#0D0022"/>
<path fill-rule="evenodd" clip-rule="evenodd" d="M15.4032 11.081C15.3485 10.9404 15.4281 10.7851 15.5172 10.6634C15.6529 10.4778 15.8171 10.3132 16.0023 10.1769C16.0484 10.143 16.1191 10.113 16.1562 10.1566C16.2012 10.2093 16.1326 10.2814 16.0753 10.3204C15.8336 10.4854 15.665 10.7347 15.5006 10.9768C15.4737 11.0166 15.4451 11.0577 15.4032 11.081L15.4032 11.081Z" fill="#FFB61D"/>
<path fill-rule="evenodd" clip-rule="evenodd" d="M29.1909 32.3283C29.0133 32.4546 28.8358 32.5809 28.6583 32.7073C28.5938 32.7531 28.5149 32.8013 28.4407 32.7739C28.1756 32.6761 27.99 32.4331 27.8667 32.1788C27.8184 32.0793 27.7767 31.9655 27.8107 31.8602C27.8277 31.8074 27.8623 31.7624 27.8963 31.7185C28.0013 31.583 28.1253 31.4365 28.2958 31.4187C28.3715 31.4109 28.4474 31.4304 28.5185 31.4573C28.7429 31.5424 28.9366 31.7061 29.0579 31.9132C29.0108 31.8952 28.9609 31.8844 28.9105 31.8814C28.7866 31.6797 28.5622 31.5435 28.3261 31.5265C28.3894 31.6739 28.4673 31.8151 28.5584 31.9472C28.641 32.0671 28.7434 32.1857 28.8836 32.2251C28.9899 32.255 29.1211 32.2426 29.1909 32.3283ZM28.2913 32.5143C28.3776 32.5851 28.4886 32.6445 28.5969 32.6175C28.7477 32.58 28.8261 32.3935 28.9777 32.3592C28.7756 32.3365 28.5975 32.2076 28.4711 32.0482C28.3448 31.8888 28.2628 31.6997 28.1823 31.5129C28.1711 31.6907 27.9412 31.8049 27.9518 31.9827C27.9538 32.0155 27.9642 32.0472 27.9761 32.0779C28.0414 32.2472 28.1511 32.3991 28.2913 32.5143H28.2913Z" fill="#0D0022"/>
<path fill-rule="evenodd" clip-rule="evenodd" d="M18.1324 12.5119C18.1726 12.488 18.2234 12.5106 18.2642 12.5335C18.3893 12.6038 18.5119 12.6784 18.6319 12.7572C18.6556 12.7727 18.6825 12.7978 18.6722 12.8242C18.6591 12.8581 18.6085 12.8454 18.5772 12.8269C18.452 12.7529 18.3267 12.679 18.2015 12.605C18.1659 12.584 18.1252 12.5525 18.1324 12.5119L18.1324 12.5119Z" fill="#0D0022"/>
<path fill-rule="evenodd" clip-rule="evenodd" d="M15.686 11.4485C15.7596 11.2412 15.8737 11.0483 16.02 10.884C16.0713 10.8264 16.1265 10.7723 16.1816 10.7182C16.2617 10.6397 16.3418 10.5611 16.4219 10.4826C16.4442 10.4607 16.4704 10.4373 16.5016 10.4389C16.5413 10.441 16.5678 10.4856 16.5646 10.5253C16.5615 10.5649 16.5373 10.5994 16.513 10.6309C16.3886 10.7912 16.2364 10.9277 16.1018 11.0796C15.9671 11.2314 15.847 11.405 15.8063 11.6038C15.7954 11.6571 15.7075 11.6532 15.6801 11.6062C15.6528 11.5592 15.6679 11.4998 15.686 11.4485Z" fill="#FFB61D"/>
<path fill-rule="evenodd" clip-rule="evenodd" d="M30.5953 36.5116C30.6368 36.332 30.7237 36.163 30.8458 36.0248C30.8993 36.094 30.8378 36.1893 30.7921 36.2639C30.7552 36.3241 30.7281 36.3904 30.7122 36.4593C30.7075 36.4796 30.7039 36.501 30.7094 36.5211C30.714 36.538 30.7247 36.5524 30.7352 36.5664C30.9157 36.8075 31.1228 37.0661 31.4181 37.125C31.4762 37.1366 31.5362 37.1059 31.5754 37.0615C31.6146 37.0172 31.637 36.9609 31.6588 36.9058C31.2991 36.7628 31.0218 36.4293 30.947 36.0495C30.944 36.0342 30.9414 36.0179 30.947 36.0034C30.9547 35.9831 30.9759 35.9718 30.9959 35.9636C31.1386 35.9047 31.3079 35.9142 31.443 35.9889C31.4953 36.0179 31.5422 36.0556 31.5888 36.0932C31.661 36.1514 31.7332 36.2096 31.8054 36.2678C31.9242 36.3636 32.0549 36.4866 32.0386 36.6383C32.0295 36.7217 31.9764 36.7927 31.9251 36.8591C31.8133 37.004 31.7015 37.1489 31.5897 37.2938C31.1984 37.243 30.8345 37.0104 30.6242 36.6765C30.6082 36.6513 30.5929 36.6247 30.5881 36.5952C30.5837 36.5674 30.589 36.5391 30.5953 36.5116ZM31.4342 36.1341C31.3111 36.063 31.1651 36.0325 31.0239 36.0483C31.13 36.3357 31.3384 36.5843 31.6029 36.7389C31.6677 36.7768 31.7467 36.8097 31.8155 36.7798C31.9041 36.7413 31.9245 36.6232 31.9961 36.5584C31.8579 36.4516 31.7197 36.3447 31.5815 36.2378C31.5339 36.201 31.4862 36.1641 31.4342 36.1341Z" fill="#0D0022"/>
<path fill-rule="evenodd" clip-rule="evenodd" d="M26.7904 29.8364C26.9786 29.7248 27.2306 29.8216 27.3791 29.9823C27.5276 30.143 27.6062 30.3542 27.7161 30.5434C27.6952 30.5519 27.6743 30.5604 27.6534 30.5689C27.5483 30.2882 27.3653 30.0371 27.1302 29.8511C27.0917 29.8206 27.0196 29.8015 27.007 29.8489C27.0033 29.8625 27.0074 29.8768 27.0115 29.8902C27.0352 29.9686 27.0588 30.0469 27.0825 30.1253C27.097 30.1734 27.1116 30.2217 27.1335 30.267C27.2131 30.4319 27.3772 30.5364 27.5333 30.6323C27.5693 30.6544 27.5465 30.7123 27.5125 30.7372C27.4784 30.7622 27.4328 30.781 27.4225 30.822C27.4087 30.6544 27.224 30.5637 27.1239 30.4286C27.0875 30.3794 27.062 30.3232 27.0368 30.2675C26.9834 30.1495 26.9301 30.0315 26.8768 29.9136C26.8109 29.9769 26.745 30.0403 26.6791 30.1037C26.6485 30.1331 26.617 30.164 26.6024 30.2038C26.5818 30.2603 26.5993 30.3232 26.6222 30.3788C26.6649 30.4824 26.7265 30.5781 26.8032 30.6599C26.85 30.7098 26.9028 30.7552 26.9388 30.8134C26.9747 30.8716 26.9912 30.9479 26.9592 31.0084C26.784 30.8632 26.6363 30.6851 26.526 30.4862C26.483 30.4085 26.4447 30.3235 26.4489 30.2348C26.4575 30.0523 26.6333 29.9296 26.7904 29.8364V29.8364Z" fill="#0D0022"/>
<path fill-rule="evenodd" clip-rule="evenodd" d="M12.7978 35.1804C12.5742 35.5028 12.3145 35.8303 11.9455 35.9638C11.5765 36.0974 11.0789 35.9439 10.9789 35.5645C10.8117 34.9301 11.7331 34.6058 12.0774 34.0473C12.4859 33.3843 11.9962 32.5471 11.515 31.9348C11.1735 32.2203 10.6761 32.5136 10.3244 32.2409C9.89858 31.9106 10.2569 31.2201 10.6912 30.901C11.4701 30.3287 12.4663 30.0599 13.4274 30.1627C13.6721 28.3403 14.6082 26.6192 16.0052 25.4237C17.4022 24.2281 19.2472 23.569 21.0855 23.6087C20.88 20.0443 22.9465 16.4497 26.1302 14.8337C26.4758 14.6583 26.8458 14.5017 27.2334 14.5041C27.6209 14.5064 28.0301 14.7037 28.1772 15.0622C28.3243 15.4208 28.0962 15.9129 27.71 15.9457C26.223 16.0718 24.8107 16.9002 23.975 18.1367C25.9529 17.9844 27.8244 18.9539 29.5706 19.8952C30.2822 20.2787 30.9938 20.6623 31.7054 21.0459C32.3963 21.4183 33.1628 21.8028 33.9307 21.6403C35.3507 21.3398 35.7832 19.4794 36.9719 18.6464C37.1249 18.5392 37.3071 18.4466 37.4912 18.4782C37.9712 18.5607 37.9375 19.2695 37.7311 19.7106C36.4996 22.3416 33.7408 23.9973 30.9047 24.6261C28.0686 25.2549 25.1207 25.0063 22.2267 24.7546C22.0265 26.8244 21.7437 29.0753 20.2628 30.5351C18.855 31.923 16.6281 32.2282 14.7221 31.7031C15.7361 31.7778 16.763 31.8353 17.7631 31.6528C18.7633 31.4703 19.7475 31.0239 20.3974 30.2421C20.7865 29.7741 21.0393 29.2089 21.2517 28.6386C21.7108 27.4057 22.003 26.1108 22.1177 24.8002C21.7636 24.8243 21.4094 24.8483 21.0552 24.8723C21.1449 26.6176 20.7104 28.4628 19.5095 29.7324C18.3086 31.002 16.2446 31.5201 14.7384 30.6337C14.4078 32.2596 13.7432 33.8169 12.7978 35.1804ZM16.6527 30.9234C17.2382 30.8319 17.8106 30.6571 18.3473 30.406C18.0148 30.1406 17.6938 29.8549 17.4405 29.5131C16.9012 28.7852 16.6969 27.8416 16.1096 27.1519C15.4042 28.1301 14.9419 29.2821 14.7753 30.4765C14.7716 30.5034 14.7685 30.5329 14.783 30.5559C14.7982 30.5797 14.8277 30.5892 14.8548 30.5969C15.3036 30.7242 15.7598 30.8255 16.2203 30.9002C15.9649 30.6224 15.7076 30.342 15.5133 30.0185C15.319 29.6949 15.1897 29.3209 15.215 28.9443C15.4544 29.5711 15.7967 30.1584 16.224 30.6756C16.3343 30.809 16.4817 30.9501 16.6527 30.9234ZM37.8404 19.1705C37.9729 18.8432 37.521 18.5306 37.1836 18.6348C36.8462 18.7391 36.6371 19.0652 36.4404 19.3585C35.3375 21.0033 33.7301 22.3048 31.8919 23.0415C29.0605 24.1763 25.8967 23.9503 22.8489 23.8259C21.4159 23.7674 19.9534 23.739 18.5792 24.1492C16.5782 24.7464 14.888 26.3049 14.1308 28.2509C13.6935 29.3745 13.559 30.5895 13.2599 31.7575C12.9609 32.9254 12.4502 34.1091 11.4767 34.8204C11.3001 34.9494 11.0954 35.082 11.0463 35.2951C10.9733 35.612 11.3258 35.8996 11.6503 35.8788C11.9747 35.858 12.247 35.6316 12.4697 35.3947C14.7333 32.9863 14.2139 28.8212 16.5506 26.4838C17.6524 25.3816 19.2344 24.8798 20.7868 24.7422C22.3392 24.6045 23.8991 24.7922 25.4556 24.8704C27.8803 24.9922 30.3631 24.8381 32.628 23.9638C34.8929 23.0896 36.929 21.4207 37.8404 19.1705ZM23.1912 19.8362C23.1411 19.8667 23.1112 19.9207 23.0841 19.9726C22.5124 21.0693 22.2297 22.3152 22.2721 23.5513C22.2107 23.5483 22.1867 23.4712 22.1803 23.4102C22.0293 21.9706 22.6278 20.5698 23.2132 19.246C23.3905 18.845 23.5691 18.4416 23.8138 18.0777C24.2696 17.3997 24.9328 16.8904 25.6083 16.4309C25.8331 16.2779 26.0639 16.1274 26.3215 16.0402C26.4929 15.9822 26.6726 15.9535 26.8512 15.925C27.0737 15.8896 27.2962 15.8542 27.5186 15.8187C27.7496 15.7819 28.0142 15.7218 28.1195 15.5129C28.2674 15.2195 27.9695 14.8778 27.6532 14.7893C27.2541 14.6776 26.8289 14.792 26.4385 14.931C25.8403 15.144 25.2597 15.4184 24.7476 15.7939C24.3389 16.0936 23.9782 16.4544 23.6471 16.8381C22.0855 18.648 21.1776 21.0103 21.1249 23.4002C21.1237 23.4546 21.1235 23.5117 21.1484 23.5601C21.2081 23.6763 21.3688 23.6823 21.4992 23.6741C22.4294 23.6157 23.3655 23.6515 24.2885 23.7807C23.8378 23.3555 23.3796 22.9248 22.8308 22.637C22.657 22.5459 22.4638 22.4594 22.3681 22.2881C22.7454 22.349 23.1058 22.5112 23.4016 22.7534C23.6398 22.9484 23.8342 23.1917 24.066 23.3944C24.2977 23.5971 24.5855 23.7631 24.8933 23.7534C25.7561 23.7263 26.6203 23.7418 27.4816 23.7999C26.7944 23.3426 26.228 22.7297 25.6065 22.1865C24.985 21.6432 24.2725 21.1536 23.4571 21.025C23.2295 20.9891 22.9433 20.9389 22.8863 20.7156C23.7471 20.7615 24.5542 21.1633 25.2498 21.6725C25.9455 22.1816 26.5525 22.8004 27.2076 23.3608C27.4415 23.5609 27.719 23.7653 28.0246 23.7286C28.9822 23.6136 29.9471 23.497 30.8635 23.1963C28.6342 22.4039 26.8736 20.5063 24.5647 19.9899C24.1828 19.9045 23.7932 19.8591 23.4045 19.8139C23.3321 19.8055 23.2535 19.7984 23.1912 19.8362ZM31.9731 21.3503C31.7191 21.2272 31.4651 21.1041 31.2111 20.9809C30.8483 20.8051 30.4855 20.6292 30.128 20.4429C29.2954 20.009 28.4922 19.5187 27.6447 19.1148C26.7972 18.7109 25.8944 18.3921 24.9576 18.3294C24.7194 18.3134 24.4773 18.3137 24.2472 18.2498C24.1032 18.2099 23.9466 18.277 23.8404 18.3821C23.7342 18.4873 23.6685 18.6255 23.6049 18.7607C23.4631 19.0621 23.3212 19.3634 23.1794 19.6648C24.2724 19.5628 25.3475 19.972 26.3298 20.462C27.2604 20.9261 28.1501 21.4686 29.0156 22.045C29.4084 22.3066 29.7993 22.5769 30.2313 22.7667C30.6634 22.9566 31.1456 23.0629 31.61 22.979C32.4059 22.8351 33.0063 22.1739 33.7629 21.8882C33.1338 21.9057 32.5394 21.6248 31.9731 21.3503ZM17.6121 25.899C17.8501 26.4874 18.1875 27.0407 18.6388 27.487C19.09 27.9334 19.6586 28.2695 20.2794 28.4016C20.424 27.8726 20.5624 27.342 20.6944 26.8098C20.7069 26.7593 20.7125 26.6924 20.6662 26.6688C20.0028 26.3315 19.4058 25.8642 18.919 25.3013C18.9231 25.2429 18.9933 25.208 19.0509 25.2189C19.1085 25.2298 19.1546 25.2716 19.1972 25.3118C19.672 25.7597 20.1389 26.2477 20.7448 26.4904C20.8824 26.0384 20.976 25.573 21.024 25.1029C21.0328 25.0165 21.0116 24.8958 20.9246 24.8955C19.2099 24.8891 17.5038 25.6031 16.3046 26.8288C16.2215 26.9138 16.2166 27.0521 16.2585 27.1634C16.3004 27.2746 16.3805 27.3664 16.4545 27.4595C16.8152 27.9131 17.0596 28.4456 17.3446 28.9503C17.6297 29.455 17.9722 29.9497 18.4637 30.2568C18.5144 30.2885 18.5705 30.319 18.6301 30.3145C18.6791 30.3107 18.7229 30.2837 18.7639 30.2568C19.3501 29.8725 19.8398 29.3424 20.1766 28.7278C20.2131 28.6612 20.2299 28.5501 20.1557 28.534C19.705 28.4362 19.277 28.2349 18.9143 27.9502C18.634 27.7303 18.3947 27.4636 18.1569 27.1983C18.0114 27.0361 17.865 26.8726 17.7527 26.6859C17.6176 26.4613 17.5347 26.2056 17.5122 25.9444C17.5455 25.9293 17.5788 25.9141 17.6121 25.899ZM10.5673 32.2133C10.8107 32.2639 11.0419 32.0987 11.2314 31.9378C11.4512 31.7512 11.6666 31.5557 11.9164 31.4117C12.1662 31.2677 12.4586 31.1775 12.7434 31.2224C12.8401 31.2377 12.936 31.2683 13.0336 31.261C13.1312 31.2537 13.2349 31.1942 13.2518 31.0978C13.2919 30.8689 13.3235 30.6384 13.3465 30.4072C13.3498 30.3741 13.3517 30.337 13.33 30.3119C13.309 30.2877 13.2735 30.2835 13.2415 30.2814C12.2247 30.2158 11.187 30.6129 10.4738 31.3405C10.3656 31.4508 10.2605 31.5767 10.2353 31.7291C10.2001 31.9424 10.3557 32.1693 10.5673 32.2133ZM12.6188 31.5405C12.7554 31.698 12.892 31.8555 13.0287 32.013C13.0646 31.8197 13.1215 31.6303 13.1979 31.4491C12.7902 31.2778 12.2962 31.3305 11.9338 31.584C11.855 31.6392 11.7824 31.7028 11.7101 31.7663C11.6814 31.7915 11.6515 31.8184 11.6393 31.8546C11.6271 31.8908 11.6404 31.9385 11.6767 31.9506C11.8115 31.9953 11.9071 32.1139 11.9842 32.2332C12.2373 32.6247 12.3761 33.0891 12.3794 33.5552C12.5734 33.1472 12.7673 32.7392 12.9613 32.3311C12.8843 32.3096 12.8645 32.2128 12.8452 32.1352C12.7767 31.8597 12.5558 31.6525 12.3453 31.4621C12.3781 31.4183 12.4448 31.4127 12.495 31.4346C12.5453 31.4564 12.5829 31.4991 12.6188 31.5405Z" fill="#0D0022"/>
</svg>
