<svg width="8" height="16" viewBox="0 0 8 16" fill="none" xmlns="http://www.w3.org/2000/svg">
<path fill-rule="evenodd" clip-rule="evenodd" d="M2.27282 14.8526L7.57969 8.48399C7.77553 8.24879 7.87441 7.95791 7.87441 7.66703C7.87441 7.37711 7.77649 7.08623 7.57969 6.85199L2.25169 0.457429C2.02705 0.188629 1.71313 0.034061 1.38961 0.00526104C1.07473 -0.023539 0.747373 0.0657485 0.480493 0.276949L0.458415 0.296144C0.188655 0.521744 0.0340974 0.835664 0.00529742 1.16014C-0.0235026 1.48462 0.0705676 1.82159 0.295208 2.09231L4.94257 7.66799C3.39121 9.53135 1.80625 11.387 0.277934 13.2657C0.0648141 13.5326 -0.0235026 13.86 0.00529742 14.1758C0.0350574 14.4994 0.188655 14.8123 0.458415 15.0379L0.465129 15.0437C0.733929 15.2654 1.06897 15.3595 1.39057 15.3307C1.71409 15.3009 2.02897 15.1464 2.25457 14.8757L2.27378 14.8526H2.27282Z" fill="#0D0022" fill-opacity="0.7"/>
</svg>
