<svg width="22" height="18" viewBox="0 0 22 18" fill="none" xmlns="http://www.w3.org/2000/svg">
<path fill-rule="evenodd" clip-rule="evenodd" d="M6.36955 5.17986C7.62506 4.27328 8.80211 3.9185 10.3189 4.08879C10.8757 4.1514 11.1829 3.70062 11.2555 3.29242C11.3315 2.86835 11.0986 2.3416 10.5209 2.16629C10.5209 2.16629 6.55571 1.41666 3.93283 4.972C2.60385 6.77346 2.6122 8.4856 2.52955 10.6811C2.48781 11.7797 2.5763 13.1754 2.51953 14.2189C2.49115 14.7431 2.41853 15.6889 1.21728 15.7991C0.642946 15.8517 0.339926 16.1013 0.232239 16.406V16.987C0.362465 17.4069 0.748963 17.7734 1.21728 17.765C2.22486 17.7475 16.9947 17.7467 17.9488 17.7467C17.9805 17.7467 17.9972 17.7467 17.9972 17.7467C18.6183 17.6749 19.0115 17.1632 18.9214 16.6398C18.8646 16.3117 18.7193 15.9335 17.9972 15.7941C17.0105 15.6046 16.6382 15.264 16.6382 14.264C16.6382 13.5686 16.6315 12.1044 16.629 11.6386C16.629 11.5467 16.6282 11.4933 16.6282 11.4933C16.5456 10.3889 14.9703 10.2069 14.6715 11.4933L14.6948 14.6037C14.6948 14.6037 14.7533 15.3467 14.9712 15.7991L4.17659 15.795C4.55725 15.1614 4.49296 14.309 4.49296 14.309C4.49296 11.8448 3.99544 7.77937 5.61492 5.94118C5.78855 5.74417 6.14166 5.34181 6.36789 5.17902L6.36955 5.17986Z" fill="#46178F"/>
<path d="M17.1808 9.19931C19.7211 9.19931 21.7805 7.13997 21.7805 4.59965C21.7805 2.05933 19.7211 0 17.1808 0C14.6405 0 12.5812 2.05933 12.5812 4.59965C12.5812 7.13997 14.6405 9.19931 17.1808 9.19931Z" fill="#46178F"/>
</svg>
