<svg width="25" height="24" viewBox="0 0 25 24" fill="none" xmlns="http://www.w3.org/2000/svg">
<path fill-rule="evenodd" clip-rule="evenodd" d="M20.6747 14.3613C20.2563 15.1419 18.5067 16.3768 17.2956 16.8833C15.7723 17.5203 14.2523 17.8615 12.3704 17.8169C10.5459 17.7737 9.03149 17.3647 7.61259 16.7154C6.48366 16.1987 4.78247 14.9543 4.30592 14.121C4.62251 14.3393 4.79015 14.565 5.07295 14.7877C8.50606 17.4911 13.1756 18.1371 17.2024 16.5578C17.8863 16.2895 18.4967 15.9985 19.0731 15.6013C19.3881 15.384 19.611 15.2382 19.8985 15.0137L20.675 14.3618L20.6747 14.3613ZM11.8245 5.16944L13.0924 5.17174L13.1095 6.22875C13.6444 6.39332 14.1806 6.39613 14.7391 6.58962C15.3193 6.79078 15.6594 7.12836 16.0428 7.29216C15.9084 7.47797 14.8335 8.09349 14.715 8.06764C14.6605 8.05587 13.936 7.34002 13.0978 7.38916L13.1057 8.93244C13.8712 9.14563 14.4765 9.12363 15.1839 9.48987C16.6061 10.2259 16.5974 11.8721 15.1647 12.6847C14.8786 12.847 14.572 12.9836 14.2477 13.0696C13.1771 13.3537 13.096 12.8838 13.1029 13.7768C13.1044 13.9828 13.1032 14.1863 13.0993 14.3923L11.8322 14.4066C11.8383 14.066 11.901 13.5405 11.7958 13.2365C10.8898 13.1162 9.10085 12.7062 8.7149 11.8977C8.95829 11.7201 9.20732 11.5977 9.50292 11.4386C9.83743 11.2581 9.93929 11.0554 10.217 11.2847C10.7114 11.6927 11.1166 11.9404 11.8283 12.0477L11.8317 10.1463C11.026 9.99739 10.5809 10.0289 9.8858 9.68463C8.24603 8.8723 8.53063 6.54483 11.8196 6.26868L11.8245 5.16969V5.16944ZM2.79002 10.1701C2.47547 9.43945 3.1711 7.4836 3.64407 6.69276C3.92483 6.22338 4.47483 5.47477 4.881 5.11313C6.002 4.11576 7.21359 3.31571 8.75047 2.86936C12.3934 1.81158 16.4175 2.3255 19.2231 4.57465C20.9767 5.98049 22.3562 7.91357 22.2172 10.4189C21.9871 9.29075 21.6406 8.2706 21.0282 7.42294C19.1655 4.84517 16.1429 3.39761 12.6074 3.296C9.63959 3.21077 6.37617 4.37425 4.64887 6.34546C3.41808 7.75003 3.1926 8.30157 2.78925 10.1699L2.79002 10.1701ZM0.816507 10.7805C1.15997 13.8338 3.20847 15.9171 4.97518 17.12C10.6677 20.9959 20.0881 19.8979 23.3546 13.7678C24.0072 12.5432 24.3448 10.9899 24.1736 9.37802C23.8496 6.32114 21.7724 4.25089 20.0111 3.02215C15.4895 -0.131471 8.23425 -0.0101607 3.99726 3.52225C2.32063 4.9199 0.430047 7.34079 0.816764 10.7805H0.816507Z" fill="#8567B4"/>
<path fill-rule="evenodd" clip-rule="evenodd" d="M3.08946 16.5913C3.36587 16.8001 3.59519 17.0341 3.88849 17.2685C4.16541 17.4899 4.4733 17.7031 4.78221 17.9012C6.80921 19.2021 9.06834 19.9074 11.608 20.116C13.0118 20.2353 14.0317 20.0526 15.3446 19.9328C15.6095 19.8335 16.394 19.6919 16.7756 19.587C18.6267 19.0775 20.2657 18.2065 21.6493 17.0592C22.0225 16.7497 22.295 16.4175 22.6034 16.1311C23.3124 15.4729 23.9504 14.1627 24.1306 13.9424L24.1713 14.077C24.2578 14.8364 23.4892 16.6013 23.1652 17.1628C21.6025 19.8708 18.2976 21.8362 15.2538 22.2293C14.7009 22.39 11.5865 22.6124 11.1557 22.3414C9.95823 22.4425 7.38711 21.4904 6.46498 21.0382C5.74734 20.686 5.18147 20.3377 4.59768 19.9069C4.16157 19.5852 3.24251 18.8294 3.03571 18.4775C2.06726 17.7561 0.69852 14.9741 0.802686 13.4994C1.08345 13.9091 1.31379 14.4422 1.82591 15.1547C2.24641 15.7401 2.72501 16.1447 3.08946 16.5905V16.5913ZM0.816507 10.7808C0.42979 7.34107 2.32038 4.92019 3.997 3.52253C8.234 -0.00962136 15.4895 -0.131188 20.0108 3.02243C21.7722 4.25118 23.8493 6.32117 24.1733 9.37831C24.3443 10.9902 24.0067 12.5434 23.3543 13.7681C20.0881 19.8982 10.6674 20.9962 4.97493 17.1203C3.20821 15.9174 1.15971 13.8341 0.816251 10.7808H0.816507ZM11.0457 0.0346577C7.89309 0.238637 4.74203 1.61147 2.69353 3.68838C-0.315492 6.73886 0.0131304 9.16895 0.00852362 13.0737C0.00570835 15.4962 1.21193 17.7758 2.74932 19.3469C3.15293 19.7593 3.87441 20.3328 4.39063 20.7029C9.39415 24.2926 17.6639 24.1537 22.2976 19.5292C25.1571 16.6753 25.0182 14.0939 24.9903 10.1341C24.9777 8.35201 24.3369 6.75933 23.5629 5.52701C23.3761 5.22936 23.1522 4.93349 22.9464 4.67449C22.5425 4.16646 22.6262 4.27523 22.2067 3.88723C22.0588 3.75031 22.0189 3.64256 21.8784 3.50999L20.5946 2.50058C18.2249 0.767397 14.6636 -0.199522 11.0459 0.0346577H11.0457Z" fill="#FCFEC6" fill-opacity="0.8"/>
<path fill-rule="evenodd" clip-rule="evenodd" d="M13.1075 10.2843C13.6544 10.2805 14.4481 10.5674 14.4005 11.1926C14.3626 11.6896 13.5646 12.0771 13.1065 12.0392L13.1078 10.2843H13.1075ZM11.8258 8.7643C10.2958 8.81293 10.4555 7.34949 11.8289 7.37918L11.8258 8.7643ZM11.8196 6.26843C8.53063 6.54458 8.24603 8.87205 9.8858 9.68438C10.5807 10.0286 11.0257 9.99713 11.8317 10.1461L11.8283 12.0474C11.1166 11.9402 10.7112 11.6927 10.217 11.2845C9.9393 11.0552 9.83743 11.2579 9.50293 11.4383C9.20732 11.5977 8.9583 11.7198 8.7149 11.8974C9.10085 12.7059 10.8898 13.116 11.7958 13.2362C11.901 13.5403 11.8383 14.0657 11.8322 14.4064L13.0993 14.392C13.1032 14.1858 13.1044 13.9825 13.1029 13.7765C13.096 12.8836 13.1774 13.3535 14.2477 13.0694C14.5722 12.9831 14.8786 12.8467 15.1647 12.6844C16.5974 11.8716 16.6061 10.2257 15.1839 9.48962C14.4765 9.12363 13.8715 9.14538 13.1057 8.93219L13.0978 7.38891C13.936 7.33951 14.6608 8.05536 14.715 8.06739C14.8335 8.09324 15.9085 7.47746 16.0428 7.29191C15.6594 7.12785 15.319 6.79053 14.7391 6.58937C14.1806 6.39588 13.6445 6.39307 13.1096 6.2285L13.0924 5.17149L11.8245 5.16919L11.8196 6.26817V6.26843Z" fill="#46178F" fill-opacity="0.8"/>
<path fill-rule="evenodd" clip-rule="evenodd" d="M2.79002 10.1704C3.19337 8.30203 3.41885 7.7505 4.64964 6.34593C6.37694 4.37472 9.6401 3.21125 12.6082 3.29647C16.1437 3.39808 19.1662 4.84564 21.0289 7.42341C21.6414 8.27081 21.9879 9.29122 22.218 10.4194C22.357 7.91404 20.9772 5.98071 19.2238 4.57512C16.418 2.32571 12.3942 1.81205 8.75124 2.86983C7.2141 3.31618 6.00276 4.11623 4.88177 5.11361C4.47535 5.47524 3.92534 6.2241 3.64484 6.69323C3.17187 7.48407 2.47624 9.43992 2.79079 10.1706L2.79002 10.1704Z" fill="#46178F"/>
<path fill-rule="evenodd" clip-rule="evenodd" d="M20.6747 14.3613L19.8982 15.0132C19.6111 15.2376 19.3881 15.3835 19.0728 15.6008C18.4967 15.998 17.8861 16.289 17.2022 16.5572C13.1756 18.1366 8.50606 17.4906 5.0727 14.7872C4.78989 14.5645 4.62225 14.3388 4.30566 14.1205C4.78221 14.9538 6.48341 16.1984 7.61234 16.7149C9.03124 17.3645 10.5456 17.7734 12.3702 17.8164C14.2518 17.861 15.772 17.5198 17.2954 16.8828C18.5062 16.3763 20.256 15.1414 20.6745 14.3608L20.6747 14.3613Z" fill="#46178F"/>
<path fill-rule="evenodd" clip-rule="evenodd" d="M13.1065 12.0395C13.5648 12.0774 14.3626 11.6899 14.4005 11.1929C14.4481 10.5677 13.6544 10.2805 13.1075 10.2846L13.1062 12.0395H13.1065Z" fill="#8567B4"/>
<path fill-rule="evenodd" clip-rule="evenodd" d="M11.8257 8.76447L11.8288 7.37935C10.4555 7.34966 10.2958 8.8131 11.8257 8.76447Z" fill="#8567B4"/>
<path fill-rule="evenodd" clip-rule="evenodd" d="M16.7758 19.5869C16.3942 19.6918 15.6098 19.8333 15.3449 19.9327C14.032 20.0527 13.0121 20.2352 11.6083 20.1159C9.06863 19.9073 6.8095 19.2022 4.7825 17.901C4.47358 17.7027 4.1657 17.4895 3.88878 17.2684C3.59548 17.0339 3.36616 16.8 3.08975 16.5912C2.72555 16.1453 2.24696 15.7407 1.8262 15.1554C1.31407 14.4429 1.08373 13.9098 0.802974 13.5C0.698809 14.9747 2.06755 17.7567 3.036 18.4782C3.2428 18.8301 4.16186 19.5859 4.59797 19.9076C5.18176 20.3383 5.74763 20.6866 6.46527 21.0388C7.3874 21.491 9.95826 22.4431 11.156 22.342C11.5868 22.613 14.7012 22.3906 15.2541 22.2299C18.2981 21.8365 21.603 19.8712 23.1655 17.1634C23.4898 16.6017 24.2581 14.8367 24.1716 14.0776L24.1309 13.943C23.9507 14.1631 23.3129 15.4735 22.6037 16.1318C22.2951 16.4182 22.0227 16.7504 21.6496 17.0598C20.266 18.2071 18.627 19.0781 16.7758 19.5877V19.5869Z" fill="#8567B4"/>
</svg>
