<svg width="76" height="73" viewBox="0 0 76 73" fill="none" xmlns="http://www.w3.org/2000/svg">
<path d="M34.5121 0L34.676 0.0819764L35.2499 0.6968L35.8237 1.27063L36.1106 1.59854L36.6025 2.0904L36.8894 2.4183L37.3812 2.91016V2.99214H37.4632L37.7501 3.32004L38.16 3.72993L38.4469 4.05783L39.0208 4.63167L39.3077 4.95957L39.7995 5.45143L40.0865 5.77934L40.5783 6.2712L40.8652 6.5991L41.3571 7.09096L41.644 7.41887L42.2179 7.9927L42.5048 8.32061L43.0376 8.85345L43.3245 9.18136L43.7754 9.63223L44.0623 9.96014L44.5132 10.411L44.8001 10.7389L45.333 11.2718L45.6199 11.5997L46.1937 12.1735L46.4806 12.5014L46.9725 12.9933L47.2594 13.3212L47.7513 13.813L48.0382 14.1409L48.53 14.6328V14.7148H48.612L48.8989 15.0427L49.3498 15.4935L49.6367 15.8214L50.0876 16.2723L50.3745 16.6002L50.8664 17.0921L51.1533 17.42L51.7271 17.9938L52.014 18.3217L52.5469 18.8546L52.8338 19.1825L53.3666 19.7153L53.6536 20.0432L54.0634 20.4531L54.3504 20.781L54.9242 21.3549L55.2111 21.6828L55.703 22.1746L55.9899 22.5025L56.4818 22.9944L56.7687 23.3223L57.2605 23.8141L57.5474 24.1421L58.1213 24.7159L58.4082 25.0438L58.941 25.5766L59.228 25.9045L59.6788 26.3554L59.9657 26.6833L60.3756 27.0932L60.6625 27.4211L61.3184 28.0769L61.6053 28.4048L62.0561 28.8967L62.425 29.4295L62.9169 30.3723L63.5317 31.7659L64.2695 33.4464L64.8843 34.84L65.3352 35.8647L66.073 37.5452L66.6878 38.9388L67.4256 40.6193L68.2044 42.3818L68.6552 43.4065L69.2291 44.7181L70.0079 46.4806L70.5817 47.7923L71.3605 49.5547L72.836 52.9158L73.6148 54.6783L74.1887 55.9899L74.9264 57.6704L75.0494 58.1623V60.1297L74.8855 61.5233L74.6395 62.8349L74.2706 64.1056L73.8607 65.2122L73.4099 66.196L72.959 67.0567L72.3852 67.9585L71.8523 68.6962L71.3195 69.3111L70.7456 69.9259L70.4177 70.2538L69.9669 70.6227L69.393 71.0736L68.6962 71.5244L67.9585 71.9343L67.1387 72.3032L66.2779 72.5901L65.2122 72.8361L64.3925 72.959L63.6957 73H63.2858L62.425 72.918L60.5806 72.6311L56.1538 71.8523L44.9641 69.8849L33.8153 67.9175L31.7659 67.5486L30.9051 67.3436L30.2493 67.0567L29.7164 66.6468L28.4868 65.5811L27.4211 64.6794L26.9702 64.3105L26.4374 63.8596L25.9865 63.4907L25.3717 62.9579L24.9208 62.589L24.347 62.0971L23.8961 61.7282L23.3633 61.2774L22.9124 60.9085L22.3386 60.4166L21.8877 60.0477L21.3139 59.5559L20.863 59.187L20.2892 58.6951L19.8383 58.3262L19.2645 57.8344L18.8136 57.4655L18.2807 57.0146L17.8299 56.6457L17.256 56.1538L16.8052 55.785L16.2723 55.3341L15.8214 54.9652L15.2476 54.4733L14.7148 54.0225L14.2639 53.6536L13.6901 53.1617L13.2392 52.7928L12.1735 51.8911L11.7226 51.5222L11.1898 51.0713L10.7389 50.7024L10.1241 50.1696L9.67322 49.8007L9.09938 49.3088L8.64851 48.9399L8.11567 48.4891L7.66479 48.1202L7.13195 47.6693L6.68108 47.3004L6.10724 46.8085L5.65637 46.4396L5.08254 45.9478L4.63167 45.5789L4.05783 45.087L3.60696 44.7181L3.03313 44.2263L2.58226 43.8574L2.04941 43.4065L1.59854 43.0376L1.02471 42.5458L0.204941 41.808L0 41.5211L0.0409882 41.3161L0.327906 41.2751L27.872 46.0707L29.2246 46.3577L30.2493 46.6446L31.0281 46.9725L31.6839 47.3004L32.4217 47.7923L33.2004 48.3661L34.0612 49.0219L34.84 49.5957L35.5778 50.1286L36.3565 50.7024L37.0943 51.2353L37.8731 51.8091L38.6109 52.3419L39.2667 52.8338L40.0045 53.3666L41.562 54.5143L42.2998 55.0472L43.0786 55.621L43.8164 56.1538L44.5952 56.7277L48.2841 59.3919L48.9809 59.8838L49.7187 60.4166L50.2515 60.7445L50.4565 60.8265H50.7024L50.6204 60.6216L50.2515 60.2117L49.9646 59.9248L49.6367 59.6378L48.489 58.4902L48.1611 58.2033L47.4643 57.5065L47.1364 57.2195L46.1527 56.2358L45.8248 55.9489L45.046 55.1701L44.7181 54.8832L44.2263 54.3914L43.8984 54.1044L43.4885 53.6946L43.1606 53.4076L42.3408 52.5879L42.0129 52.301L41.2341 51.5222L40.9062 51.2353L40.2914 50.6204L39.9635 50.3335L39.3487 49.7187L39.2667 49.6777V49.5957L39.1027 49.5138L37.7501 48.1611L37.4222 47.8742L36.3975 46.8495L36.0696 46.5626L35.4138 45.9478L35.2499 45.7019V45.4969L35.5778 45.292L37.0124 44.8411L37.9141 44.4722L38.5699 44.1443L39.3487 43.7344L40.2504 43.1606L40.9472 42.6277L41.3981 42.2588L41.808 41.8899L42.0129 41.685H42.0949L42.1769 41.5211H42.2588L42.3408 41.3571L42.7097 40.9882L43.1606 40.4144L43.6115 39.7996L44.0623 39.0208L44.3902 38.365L44.6362 37.7501L44.8821 36.9714L45.046 36.1106L45.087 35.7417V34.3071L44.9641 33.4874L44.7181 32.5446L43.8984 29.9214L43.4885 28.6508L42.7507 26.2734L42.3408 25.0028L41.603 22.6255L41.1931 21.3549L40.4554 19.0185L40.0045 17.543L39.6766 16.5182L38.8568 13.936L38.324 12.2145L37.9141 10.9439L37.2173 8.73049L36.6844 7.00898L36.2746 5.73835L35.5368 3.36103L35.1269 2.0904L34.5531 0.245929L34.5121 0Z" fill="#46178F"/>
<path d="M32.0938 8.27966H32.3807L32.5446 8.68955L33.4054 11.3538L34.1842 13.7721L34.84 15.8215L35.3728 17.502L35.8237 18.8546L36.4795 20.904L37.3403 23.5683L38.16 26.1095L38.8158 28.1589L39.3487 29.8395L39.7586 31.0691L41.0702 35.1679L41.1931 35.8647V37.0944L41.0292 37.9141L40.7833 38.6519L40.2504 39.6766L39.8815 40.1685L39.0618 40.9883L38.6109 41.3572L38.119 41.726L37.2173 42.2179L36.5615 42.5458L35.5778 42.9147L34.5531 43.2016L33.9382 43.3246H33.4464L2.91015 36.5205L2.54126 36.3976L2.7462 35.2089L3.11509 33.3645L3.52498 31.6429L3.93486 30.1264L4.30375 28.9377L4.8366 27.3802L5.32846 26.1095L5.82032 24.9209L6.43514 23.5683L7.21392 22.0107L7.74676 21.068L8.23862 20.2072L8.77147 19.3465L9.50926 18.2398L10.0011 17.543L10.575 16.7642L10.9848 16.2314L11.5177 15.5756L11.8866 15.1247L12.3784 14.5509L12.8703 14.018L13.2392 13.6081L13.4851 13.3212H13.5671L13.6491 13.1573L14.5918 12.2145L14.9197 11.9276L15.1656 11.6817H15.2476V11.5997L15.5755 11.3128L15.9854 10.9439L16.4363 10.575L16.8052 10.2471L17.1741 9.96018H17.7069L18.3627 10.0831L18.9775 10.2881L19.4284 10.534L19.8383 10.8619L20.5761 11.5997L20.863 11.7637H21.3139L21.8467 11.5587L22.3796 11.1898L22.7484 10.8209L23.1173 10.3701L23.5272 9.83722L23.9781 9.38634L24.306 9.22239L24.47 9.1814H24.7569L25.2487 9.38634L25.7406 9.8782L26.0685 10.2881L26.7243 11.3128L27.0522 11.7637L27.2981 11.8866L27.5851 11.9276L28.0769 11.6817L28.6098 11.2308L29.0606 10.8619L29.5935 10.3701L29.9214 10.0831L30.4542 9.59129L31.0281 9.05844L31.356 8.77152L31.8888 8.36164L32.0938 8.27966Z" fill="#46178F"/>
<path d="M20.1662 17.256L20.4531 17.297L20.822 17.543L21.068 17.7479L21.3549 18.0758L21.9287 18.8546L22.3796 19.5514L23.3633 21.1089L23.8142 21.8057L24.306 22.5845L24.7159 23.1993L25.2078 24.0191L25.6176 24.6749L25.9865 25.2897L26.5194 26.1915L27.0932 27.1752L27.5851 28.0359L28.1589 29.0606L28.6508 29.9214L29.3066 31.1101L29.8804 32.1758L30.3723 33.0775L30.9051 34.0612L31.397 35.0039L31.8479 35.8237L32.1758 36.4795L32.8316 37.7501L33.2415 38.5289L33.8563 39.7176L34.1842 40.3734L34.676 41.3161V41.4391L34.1432 41.3571L32.8726 41.0702L32.8316 40.9882L32.7086 39.9225L32.5037 38.9388L32.2987 38.283L32.0528 37.6272L31.7249 36.9714L31.356 36.3156L30.7822 35.5368L30.4133 35.1269L30.1263 34.799L29.5115 34.2252L28.8557 33.7333L28.1999 33.3234L27.2572 32.8316L26.3964 32.5037L25.6996 32.2987L24.7979 32.1348L23.9781 32.0528H22.9124L21.8467 32.1758L20.822 32.4217L20.0023 32.7086L19.3464 32.9955L18.6087 33.4054L17.9528 33.8563L17.502 34.2252L16.9281 34.717L16.3953 35.2909L15.9444 35.8647L15.4936 36.5615L15.1657 37.0943L14.8377 37.0533L5.98429 35.0859L5.86133 35.0039L5.90232 34.676L6.35319 32.9545L6.84505 31.315L7.45987 29.5525L7.91074 28.4048L8.52556 26.9702L9.18137 25.5766L9.50928 24.9618L9.83718 24.306L10.37 23.3633L11.0668 22.1746L11.8046 21.0679L12.4194 20.1662L12.9933 19.3874L13.4032 18.8546L13.936 18.1988L14.2639 17.7889L14.6328 17.379L15.3296 17.6659L16.1904 17.8709L16.4773 17.9119H17.7069L18.7316 17.7069L19.5104 17.461L19.9613 17.297L20.1662 17.256Z" fill="#FBFCD8"/>
<path d="M24.347 17.8299L24.5519 17.8709H25.3717L25.6996 17.8299H26.3144L26.6423 17.9938L26.9702 18.4447L27.626 19.7563L28.0359 20.5351L28.6917 21.8467L29.1016 22.6255L29.8394 24.1011L30.2493 24.8799L30.8641 26.1095L31.274 26.8883L31.8888 28.1179L32.2987 28.8967L32.7906 29.8804L33.2004 30.6592L33.9382 32.1348L34.3481 32.9136L35.0449 34.3072L35.4548 35.0859L36.3565 36.8894L36.7664 37.6682L37.0943 38.283L38.5289 41.1522L38.6109 41.3571L38.119 41.726L37.9141 41.849L37.7091 41.808L37.2583 40.9472L36.8894 40.2914L35.7417 38.242L35.3318 37.5042L34.676 36.3566L34.0612 35.2499L32.9955 33.3644L31.8478 31.315L31.315 30.3723L30.7002 29.2656L30.2083 28.4049L28.4868 25.3307L28.1179 24.6749L27.5441 23.6502L26.8883 22.5026L26.2734 21.3959L25.6996 20.3712L25.1667 19.4284L24.347 17.9529V17.8299Z" fill="#FBFCD8"/>
<path d="M24.511 33.7743H24.8799L25.5767 33.8973L26.1095 34.1022L26.6833 34.4301L27.1342 34.799L27.3801 35.0859L27.6261 35.5368L27.6671 35.7007V36.6845L27.954 36.7664L28.5278 36.8894L28.7737 37.2993V37.3813L27.5031 37.2993L27.4211 37.6272L27.2162 38.16L27.1752 38.242H27.6671L27.831 38.406L28.1179 39.1437L28.1999 39.4717L27.0522 39.5946L25.6996 39.6766L25.5357 39.4307L25.2078 38.4469L25.1668 38.0781L25.4127 37.8731L25.7406 37.6272L25.9865 37.2993V37.1763L24.9208 37.0533L24.8799 37.2583L24.8389 37.7501L24.6749 38.242L24.388 38.6929L24.0601 38.9388L23.6912 39.1028L23.2813 39.1847H22.5435L21.9287 39.0618L21.2729 38.7749L20.781 38.406L20.4121 37.9961L20.2072 37.5862L20.0432 37.0124L19.9613 36.2746L19.7973 35.6188L19.6334 35.2499V35.1679H20.3302L20.6581 34.676L21.027 34.2252L21.1089 34.1432L21.3959 34.1842L22.5435 34.5531L22.4615 34.758L22.0927 35.2089L21.9287 35.4548V35.5368L22.9534 35.6597L22.9944 35.6188L23.0764 35.0449L23.2403 34.635L23.5272 34.2662L23.9781 33.9382L24.265 33.8153L24.511 33.7743Z" fill="#FBFCD8"/>
<path d="M31.6839 17.543H31.8478L32.4627 19.1825L33.0775 20.781L33.9792 23.1584L34.676 24.9618L35.2499 26.4784L35.9876 28.4048L37.7092 32.9135L38.365 34.6351L39.1028 36.5615L39.6766 38.0781L40.2504 39.5536L40.2094 39.7176L39.8815 40.1685L39.6356 40.3734L39.3077 39.7176L38.8568 38.6519L38.119 36.9714L37.4632 35.4548L36.7664 33.8563L35.1679 30.1673L34.4711 28.5688L33.8972 27.2572L33.4054 26.1095L32.6676 24.429L31.4789 21.6828L31.0691 20.74L30.5362 19.5104L29.8394 17.9119V17.7889L31.274 17.6659L31.6839 17.543Z" fill="#FBFCD8"/>
<path d="M46.4397 38.6109H46.6856L47.0545 38.8978L48.1202 39.9635L48.4481 40.2504V40.3324L48.612 40.4144L50.0056 41.808L50.3335 42.0949L51.6452 43.4065L51.7271 43.4475V43.5295H51.8091V43.6115H51.8911V43.6934L52.055 43.7754L54.0225 45.7428L54.1045 45.7838V45.8658L54.2684 45.9478L56.3178 47.9972L56.6457 48.2841L58.2443 49.8827L58.5722 50.1696L60.0068 51.6042L60.0887 51.6452V51.7271L60.2527 51.8091L62.3841 53.9405L62.712 54.2274L64.6794 56.1948L65.0073 56.4818L66.5649 58.0393L66.8928 58.3262L68.3684 59.8018L68.4503 59.8428V59.9248H68.5323V60.0067H68.6143V60.0887L68.7782 60.1707L70.5817 61.9742L70.6637 62.0152V62.0971L70.8276 62.1791L72.959 64.3105L73.041 64.5154L73 64.7614L72.7541 64.9253L72.3852 64.9663L71.9343 64.5974L70.5817 63.2448L70.2538 62.9579V62.8759L70.0899 62.7939L67.9585 60.6626L67.6306 60.3756L65.6631 58.4082L65.5812 58.3672V58.2852L65.4172 58.2033L64.0236 56.8097L63.6957 56.5227L62.3841 55.2111L62.0562 54.9242L59.7608 52.6289L59.4329 52.342L57.4655 50.3745L57.3835 50.3335V50.2516L57.2196 50.1696L55.703 48.653L55.3751 48.3661L54.0225 47.0135L53.8585 46.8905V46.8085L53.6946 46.7266L51.2353 44.2673L50.9074 43.9804L48.9399 42.0129L48.858 41.9719V41.89L48.694 41.808L47.1774 40.2914L46.8495 40.0045L46.3167 39.4717V39.3897H46.2347L46.1118 39.1437V38.8978L46.2757 38.6929L46.4397 38.6109Z" fill="#FBFCD8"/>
<path d="M44.7181 41.603L44.9641 41.644L45.374 42.0129L45.7019 42.2998L46.1527 42.7507L46.4806 43.0376L46.8085 43.3655L47.1364 43.6524L47.4643 43.9803L47.7923 44.2673L48.2431 44.7181L48.571 45.005L48.9399 45.3739L49.2678 45.6609L49.6367 46.0298L49.9646 46.3167L50.2515 46.6036L50.5795 46.8905L51.0713 47.3824L51.3992 47.6693L51.8091 48.0792L52.137 48.3661L52.5059 48.735L52.8338 49.0219L53.1207 49.3088L53.2027 49.3498V49.4318L53.3667 49.5138L53.9405 50.0876L54.2684 50.3745L54.6783 50.7844L55.0062 51.0713L55.3341 51.3992L55.662 51.6861L55.9899 52.014L56.3178 52.3009L56.8097 52.7928L57.1376 53.0797L57.5474 53.4896L57.8754 53.7765L58.2442 54.1454L58.5722 54.4323L58.8591 54.7193L58.941 54.7602V54.8422L59.105 54.9242L59.6788 55.498L60.0067 55.7849L60.4166 56.1948L60.7445 56.4817L61.0724 56.8097L61.4003 57.0966L61.7282 57.4245L62.0562 57.7114L62.548 58.2033L62.8759 58.4902L63.2858 58.9001L63.6137 59.187L63.9826 59.5559L64.3105 59.8428L64.5974 60.1297L64.6794 60.1707V60.2527L64.8433 60.3346L65.4582 60.9495L65.7861 61.2364L66.155 61.6053L66.4829 61.8922L66.8108 62.2201L67.1387 62.507L67.4666 62.8349L67.7945 63.1218L68.2864 63.6137L68.6143 63.9006L69.0241 64.3105L69.1061 64.3515V64.4335L69.2701 64.5154L69.7209 64.9663L70.0489 65.2532L70.3358 65.5401L70.4177 65.5811V65.6631L70.5817 65.7451L71.0736 66.2369L71.1555 66.4419L71.1145 66.6878L70.9506 66.8928L70.6637 66.9747L70.3358 66.8108L69.9259 66.4009L69.598 66.114L69.1061 65.6221L68.7782 65.3352L68.4913 65.0483L68.1634 64.7614L67.5076 64.1465L67.0977 63.7367L66.7698 63.4497L66.3189 62.9989L66.2369 62.9579V62.8759L66.073 62.7939L65.7041 62.425L65.3762 62.1381L64.7204 61.5233L64.1875 60.9904L63.8596 60.7035L63.4498 60.2936L63.1218 60.0067L61.7692 58.7361L61.3594 58.3262L61.0314 58.0393L60.5806 57.5884L60.2527 57.3015L59.9658 57.0146L59.6378 56.7277L58.982 56.1129L58.4492 55.58L58.1213 55.2931L57.7114 54.8832L57.3835 54.5963L56.0309 53.3257L55.621 52.9158L55.2931 52.6289L54.8422 52.178L54.5143 51.8911L54.2274 51.6041L53.8995 51.3172L53.2437 50.7024L52.7108 50.1696L52.3829 49.8826L51.9731 49.4728L51.6451 49.1858L50.2925 47.9152L49.8827 47.5053L49.5547 47.2184L49.1039 46.7675L48.776 46.4806L48.4891 46.1937L47.8332 45.6199L46.9725 44.7591L46.6446 44.4722L46.1527 43.9803L45.8248 43.6934L45.169 43.0786L44.8411 42.7507L44.5132 42.4638L44.3492 42.2179L44.3083 41.9719L44.4312 41.767L44.5952 41.644L44.7181 41.603Z" fill="#FBFCD8"/>
<path d="M42.3818 44.1443H42.6687L42.9147 44.3082L43.2426 44.6361L43.5705 44.9231L44.2263 45.5379L44.5542 45.8248L45.169 46.3986L45.8248 47.0135L46.3987 47.5463L46.7266 47.8332L46.9725 48.0382V48.1201L47.1365 48.2021L47.5054 48.571L47.8333 48.8579L48.1202 49.1448L48.4481 49.4318L48.9809 49.9236L49.1039 50.0056V50.0876L49.2678 50.1696L49.6777 50.5794L50.0056 50.8664L50.7024 51.5222L51.1123 51.8911L51.6452 52.3829L52.342 53.0387L52.4649 53.1207V53.2027L52.6289 53.2847L52.9158 53.5716L53.2437 53.8585L54.5143 55.0471L55.4981 55.9489L55.662 56.0719V56.1538L55.826 56.2358L56.1949 56.6047L56.5228 56.8916L57.1786 57.5064L57.6704 57.9573L57.7934 58.0393V58.1213L57.9573 58.2032L58.3672 58.6131L58.6951 58.9L59.31 59.4739L59.8018 59.9247L60.3347 60.4166L60.9495 60.9904L61.4823 61.4823L62.4661 62.384L63.1628 63.0399L63.5727 63.4087L64.2285 64.0236L64.6384 64.3925L65.3352 65.0483L65.8271 65.4991L66.3599 65.991L66.4829 66.073V66.155L66.6468 66.2369L67.0567 66.6468L67.3846 66.9337L68.0814 67.5895L68.5733 68.0404L68.8602 68.3683V68.6142L68.6553 68.8602L68.3684 68.9012L67.9995 68.6552L67.3846 68.0814L66.8928 67.6305L66.196 66.9747L65.6631 66.4829L65.3352 66.1959L64.7204 65.6221L64.0646 65.0073L63.5317 64.5154L63.2038 64.2285L62.589 63.6547L61.8922 62.9989L61.4004 62.548L61.0725 62.2611L60.4576 61.6872L59.7608 61.0314L59.228 60.5396L58.9001 60.2527L58.3672 59.7608L58.0393 59.4329L57.7114 59.146L57.0146 58.4902L56.6867 58.2032L55.3751 56.9736L54.8422 56.4817L54.5143 56.1948L53.8995 55.621L53.2027 54.9652L52.6699 54.4733L52.342 54.1864L51.8091 53.6945L51.5222 53.4076L51.1943 53.1207L50.9074 52.8338L50.5795 52.5469L49.5138 51.5632L48.858 50.9483L48.3661 50.4975L47.9562 50.1286L47.3414 49.5547L46.6856 48.9399L46.1527 48.448L45.8248 48.1611L45.21 47.5873L44.5132 46.9315L44.0214 46.4806L43.6115 46.1117L42.9147 45.4559L42.2999 44.8821L42.1359 44.6771L42.0949 44.4722L42.2589 44.2263L42.3818 44.1443Z" fill="#FBFCD8"/>
<path d="M25.5766 35.3318H26.4784L26.6014 35.4548L26.3554 36.4385L26.1505 36.4795L25.0848 36.2746L24.9618 36.1926L25.0438 35.8237L25.2078 35.5368L25.4537 35.3728L25.5766 35.3318Z" fill="#46178F"/>
<path d="M21.5598 36.5205L22.6665 36.5615L22.8714 36.6435L22.6255 37.0943L22.2976 37.3813L21.8877 37.5452H21.3138L21.2729 37.3813L21.4368 36.6435L21.5598 36.5205Z" fill="#46178F"/>
</svg>
