<svg width="24" height="21" viewBox="0 0 24 21" fill="none" xmlns="http://www.w3.org/2000/svg">
<path fill-rule="evenodd" clip-rule="evenodd" d="M19.8223 11.2779L21.8815 8.83121C22.6768 6.17512 16.6766 6.05378 15.3512 5.17154C14.2788 4.45752 12.5331 1.67904 11.2858 0.526506C10.4155 -0.277612 9.58017 0.0786179 9.58017 0.0786179L7.08188 3.23156L6.94335 4.28357H4.04873C3.88519 4.2867 3.73885 4.35544 3.60969 4.5247L1.72386 6.84852C1.1114 7.60316 1.03797 8.28906 1.91292 8.93485L6.30589 12.3461C6.55483 12.5711 6.73502 12.8414 6.82304 13.1731L7.73653 17.1703C8.22192 18.5853 9.18488 18.9775 10.4968 18.415L13.0779 17.3078C13.2643 17.2281 13.4513 17.2088 13.6377 17.2557C13.6377 17.2557 17.5312 19.3832 18.5999 19.9003C19.6681 20.4175 20.0384 19.9003 20.0384 19.9003C20.0384 19.9003 21.9336 17.5916 22.2612 17.1521C22.5882 16.713 22.2955 16.1615 22.2955 16.1615C22.2955 16.1615 20.3056 12.5779 19.9868 12.0524C19.6681 11.5269 19.8233 11.2769 19.8233 11.2769L19.8223 11.2779Z" fill="#FCFEC6" fill-opacity="0.802"/>
<path fill-rule="evenodd" clip-rule="evenodd" d="M19.6785 19.6102C19.089 19.6868 18.8692 19.4743 18.4791 19.278C18.5718 19.0743 20.153 17.1088 20.3264 16.9729C20.7035 17.1333 20.9003 17.3239 21.3586 17.3942C21.2342 17.7192 20.7358 18.2504 20.5196 18.5405C20.2275 18.9337 19.9046 19.2504 19.678 19.6102H19.6785ZM18.0109 18.9983L14.2184 16.9792L16.0261 14.685C16.3532 14.7564 17.6271 15.4839 17.9672 15.6792C18.5817 16.0323 19.2306 16.3709 19.8421 16.7L18.0114 18.9978L18.0109 18.9983ZM13.7107 16.7479C12.6951 16.7797 12.3967 17.1036 11.2618 17.5515C10.4369 17.877 9.74163 18.5134 8.88647 17.8827C9.01927 17.5671 9.68226 16.8302 9.97651 16.4625C10.0645 16.3526 10.1145 16.2849 10.2072 16.1667L10.653 15.561C11.8629 15.9714 11.279 16.286 13.119 15.5027L13.9518 15.1496C14.3632 14.9985 15.1106 14.5835 15.4736 14.5335L14.1908 16.1808C14.0096 16.3948 13.906 16.575 13.7112 16.7474L13.7107 16.7479ZM8.89585 10.5525C8.96459 10.4785 8.94011 10.5092 9.01355 10.4582C9.15104 10.742 9.7208 13.5216 9.85777 14.1939C9.98901 14.8371 10.1853 14.8741 10.3051 15.2365L8.48389 17.4921C8.11672 17.1047 7.50426 13.6429 7.23709 12.6565L8.89533 10.5525H8.89585ZM2.66861 8.88589C2.78527 8.63539 4.31748 6.7131 4.51486 6.58082L6.63452 8.22291C7.31469 8.74944 8.09485 9.33743 8.72815 9.90198C8.65992 10.0957 7.08918 12.0878 6.89649 12.2107L2.66809 8.88589H2.66861ZM2.26551 8.51717C2.02907 8.41092 1.69263 8.01615 1.777 7.65888C1.81189 7.51149 2.18323 7.06934 2.32593 6.89643C2.7134 6.42667 3.13056 5.81784 3.50815 5.45224C3.70605 5.89857 3.86282 5.91628 4.07166 6.24021C3.84563 6.64748 3.45503 7.02819 3.1665 7.40577C3.0186 7.59899 2.87642 7.78075 2.73163 7.96199C2.57644 8.15573 2.46133 8.35363 2.26603 8.51769L2.26551 8.51717ZM21.9076 16.8307C21.3404 17.0755 20.7394 16.6234 20.265 16.3552C19.3874 15.8584 16.0662 13.9694 15.4314 14.0299C14.8403 14.0861 12.7935 15.1699 12.0404 15.4209C11.7228 15.5266 11.429 15.4152 11.1712 15.261C10.2531 14.7137 10.3208 13.9543 10.0593 12.8008C9.75413 11.4545 9.65465 9.91448 8.80418 9.2916L6.79701 7.72606C6.54651 7.53233 6.37933 7.40682 6.13195 7.20058C5.86478 6.97767 3.19046 5.21007 4.06541 4.78353C4.48309 4.5799 8.14328 4.97363 8.75627 4.72416C9.30884 4.49917 9.2802 3.68204 9.38279 2.9576C9.48019 2.26858 9.56039 1.55508 9.6708 0.875954C9.81506 -0.0130547 11.0218 0.945224 11.1603 1.11344L13.894 4.3346C14.0216 4.50542 14.0096 4.47887 14.1684 4.65542C14.282 4.78145 14.3226 4.86738 14.4294 4.99238C15.2684 5.97617 16.2803 6.04388 17.7432 6.4475C18.8036 6.74019 20.7342 7.061 21.2211 7.72554C21.7789 8.48748 21.3185 8.67862 20.9066 9.2015L19.8285 10.5045C18.8458 11.6336 19.278 11.6899 20.3311 13.6419C20.7181 14.3595 21.9701 16.2943 21.9091 16.8302L21.9076 16.8307ZM7.4527 4.28929C7.34698 3.34872 7.88028 3.0102 8.33703 2.38784L9.06146 1.50613C9.07031 1.92954 8.80314 4.04608 8.58232 4.28773L7.4527 4.28981V4.28929Z" fill="#140534"/>
<path fill-rule="evenodd" clip-rule="evenodd" d="M12.6622 8.53432C12.3847 8.70045 12.2216 9.08324 11.6571 8.75982C11.5212 8.68222 10.9525 8.1458 10.8952 8.06143C10.5499 7.55313 10.9024 7.28231 11.5743 6.74901C12.1649 6.28028 11.8638 6.16935 13.1107 6.36986C13.5632 6.44277 13.834 6.60995 14.0116 6.92972L15.6772 11.155C15.7959 11.4591 16.0917 11.968 15.9292 12.2846C15.7313 12.6716 14.2413 12.5039 13.9231 11.7159L12.6622 8.53432ZM21.908 16.8307C21.9695 16.2948 20.717 14.36 20.33 13.6423C19.2769 11.6904 18.8447 11.6341 19.8274 10.505L20.9055 9.20198C21.3174 8.6791 21.7778 8.48797 21.2201 7.72603C20.7336 7.06201 18.8025 6.74067 17.7421 6.44798C16.2792 6.04436 15.2673 5.97614 14.4283 4.99286C14.3215 4.86787 14.2809 4.78194 14.1674 4.65591C14.0085 4.47935 14.0205 4.50591 13.8929 4.33509L11.1592 1.11393C11.0202 0.945712 9.81398 -0.0125664 9.66971 0.876443C9.5593 1.55557 9.4791 2.26907 9.38171 2.95809C9.27911 3.68253 9.30775 4.49914 8.75518 4.72465C8.1422 4.97463 4.482 4.58039 4.06432 4.78402C3.18937 5.21108 5.86422 6.97816 6.13087 7.20107C6.37825 7.4073 6.54542 7.53281 6.79593 7.72655L8.8031 9.29209C9.65357 9.91497 9.75304 11.455 10.0582 12.8013C10.3197 13.9543 10.252 14.7142 11.1701 15.2615C11.4279 15.4152 11.7217 15.5271 12.0394 15.4214C12.7924 15.1704 14.8392 14.0866 15.4303 14.0303C16.0652 13.9699 19.3863 15.8589 20.2639 16.3557C20.7383 16.6239 21.3393 17.076 21.9065 16.8312L21.908 16.8307Z" fill="#46178F"/>
<path fill-rule="evenodd" clip-rule="evenodd" d="M13.9231 11.716C14.2413 12.504 15.7313 12.6717 15.9292 12.2847C16.0912 11.9676 15.7959 11.4593 15.6772 11.1551L14.0116 6.92984C13.8335 6.61007 13.5632 6.44289 13.1106 6.36998C11.8633 6.16947 12.1643 6.28041 11.5743 6.74913C10.9024 7.28243 10.5499 7.55325 10.8952 8.06155C10.9524 8.14592 11.5212 8.68234 11.6571 8.75994C12.2222 9.08388 12.3846 8.70057 12.6622 8.53444L13.9231 11.716Z" fill="#FCFEC6" fill-opacity="0.802"/>
<path fill-rule="evenodd" clip-rule="evenodd" d="M2.66858 8.88588L6.89697 12.2107C7.08967 12.0878 8.65989 10.0957 8.72863 9.90197C8.09534 9.3369 7.31466 8.74943 6.63501 8.2229L4.51535 6.58081C4.31796 6.71309 2.78576 8.6359 2.6691 8.88588H2.66858Z" fill="#8567B4"/>
<path fill-rule="evenodd" clip-rule="evenodd" d="M19.8421 16.7005C19.2306 16.3709 18.5817 16.0323 17.9672 15.6798C17.6271 15.4845 16.3532 14.7569 16.0262 14.6855L14.2184 16.9797L18.0109 18.9988L19.8415 16.7011L19.8421 16.7005Z" fill="#8567B4"/>
<path fill-rule="evenodd" clip-rule="evenodd" d="M7.2381 12.6566C7.50527 13.643 8.11774 17.1053 8.4849 17.4922L10.3061 15.2366C10.1864 14.8741 9.99002 14.8372 9.85878 14.194C9.72181 13.5216 9.15205 10.7421 9.01456 10.4583C8.94113 10.5093 8.9656 10.4786 8.89686 10.5525L7.23862 12.6566H7.2381Z" fill="#8567B4"/>
<path fill-rule="evenodd" clip-rule="evenodd" d="M13.7112 16.7479C13.906 16.5755 14.0101 16.3953 14.1908 16.1812L15.4736 14.5339C15.1106 14.5839 14.3627 14.999 13.9518 15.15L13.119 15.5032C11.279 16.2864 11.8629 15.9719 10.653 15.5615L10.2072 16.1672C10.1145 16.2854 10.0645 16.3531 9.97652 16.463C9.68278 16.8307 9.01928 17.5681 8.88647 17.8832C9.74163 18.5139 10.4369 17.8775 11.2619 17.552C12.3967 17.1041 12.6951 16.7796 13.7107 16.7484L13.7112 16.7479Z" fill="#8567B4"/>
<path fill-rule="evenodd" clip-rule="evenodd" d="M19.6785 19.6102C19.905 19.2504 20.2279 18.9337 20.5201 18.5405C20.7357 18.2504 21.2347 17.7192 21.3591 17.3942C20.9008 17.3239 20.7034 17.1328 20.3269 16.9729C20.1535 17.1088 18.5718 19.0743 18.4796 19.278C18.8697 19.4743 19.0889 19.6868 19.679 19.6102H19.6785Z" fill="#8567B4"/>
<path fill-rule="evenodd" clip-rule="evenodd" d="M2.26599 8.5171C2.46181 8.35305 2.57639 8.15514 2.73159 7.9614C2.87689 7.78016 3.01907 7.5984 3.16646 7.40518C3.45498 7.0276 3.84558 6.64689 4.07161 6.23963C3.86277 5.91621 3.70548 5.89799 3.5081 5.45166C3.13104 5.81726 2.71336 6.42608 2.32588 6.89584C2.18318 7.06875 1.81237 7.51091 1.77696 7.6583C1.69259 8.01609 2.0285 8.41086 2.26547 8.51658L2.26599 8.5171Z" fill="#8567B4"/>
<path fill-rule="evenodd" clip-rule="evenodd" d="M7.45319 4.2893L8.58281 4.28721C8.80363 4.04556 9.0708 1.92903 9.06195 1.50562L8.33752 2.38733C7.88077 3.00969 7.34747 3.34821 7.45319 4.28878V4.2893Z" fill="#8567B4"/>
<path fill-rule="evenodd" clip-rule="evenodd" d="M8.01824 19.4103C5.84285 18.0177 7.25839 15.0512 4.88093 12.7544C4.56897 12.4529 2.35399 10.8853 1.9811 10.7108L1.74622 11.0686L3.23311 12.1524C3.69037 12.4383 4.35283 12.8945 4.66323 13.2372C6.87299 15.6814 5.34131 18.7442 8.08437 20.0071C9.61345 20.7113 10.6827 20.0951 12.0508 19.5676L11.9269 19.1317C11.2925 19.2384 10.7051 19.6624 10.0556 19.7868C9.2692 19.9373 8.55102 19.7504 8.01876 19.4098L8.01824 19.4103Z" fill="#FCFEC6" fill-opacity="0.802"/>
<path fill-rule="evenodd" clip-rule="evenodd" d="M22.9137 6.30011C22.4091 5.80743 20.5056 5.28923 19.6759 5.03873C19.1733 4.88717 18.4578 4.61219 17.9208 4.51428L17.7932 4.98665C18.2729 5.06164 19.0332 5.35433 19.5343 5.50693C20.3467 5.75483 22.1435 6.19647 22.657 6.75477C23.0044 7.13287 23.2674 7.68388 23.1486 8.40571C23.0335 9.10359 22.6096 9.40148 22.2961 9.79625C22.0034 10.165 21.5305 10.541 21.3394 11.0264C20.9644 11.9795 21.5664 12.6612 22.0404 13.4585C22.1737 13.683 22.2893 13.9226 22.456 14.1387L22.833 13.9142C22.7736 13.683 22.1773 12.7341 22.0003 12.4398C21.3196 11.3066 22.0612 10.7488 23.1038 9.61293C23.9079 8.73694 23.8455 7.21099 22.9137 6.30115V6.30011Z" fill="#FCFEC6" fill-opacity="0.802"/>
<path fill-rule="evenodd" clip-rule="evenodd" d="M22.3779 19.1468C22.6414 18.8619 22.8346 18.5666 23.0705 18.2448C24.373 16.4694 24.1283 16.6548 23.4215 14.8898L22.995 15.1043C23.3606 15.7866 23.7231 16.5313 23.2221 17.2053L22.0253 18.8755C22.143 19.0395 22.1544 19.0411 22.3779 19.1468Z" fill="#FCFEC6" fill-opacity="0.802"/>
<path fill-rule="evenodd" clip-rule="evenodd" d="M0 8.76972C0.10416 9.5577 0.607777 10.3181 1.06244 10.5795L1.327 10.2165C1.03535 9.8431 1.10046 10.1071 0.790059 9.56759L0.464036 8.7041L0 8.76972Z" fill="#FCFEC6" fill-opacity="0.802"/>
</svg>
